# MagicaVoxel @ ephtracy

# material
mtllib 8x8x8.mtl

# normals
vn -1 0 0
vn 1 0 0
vn 0 0 1
vn 0 0 -1
vn 0 -1 0
vn 0 1 0

# texcoords
vt 0.00195312 0.5

# verts
v -5 0 5
v -5 0 -3
v -5 1 4
v -5 1 -2
v -5 7 4
v -5 7 -2
v -5 8 5
v -5 8 -3
f -6/1/1 -7/1/1 -8/1/1
f -5/1/1 -7/1/1 -6/1/1
f -4/1/1 -6/1/1 -8/1/1
f -3/1/1 -7/1/1 -5/1/1
f -2/1/1 -4/1/1 -8/1/1
f -2/1/1 -3/1/1 -4/1/1
f -1/1/1 -7/1/1 -3/1/1
f -1/1/1 -3/1/1 -2/1/1
v 2 0 4
v 2 0 -2
v 2 1 5
v 2 1 4
v 2 1 -2
v 2 1 -3
v 2 7 5
v 2 7 4
v 2 7 -2
v 2 7 -3
v 2 8 4
v 2 8 -2
f -9/1/1 -11/1/1 -12/1/1
f -8/1/1 -11/1/1 -9/1/1
f -6/1/1 -9/1/1 -10/1/1
f -5/1/1 -9/1/1 -6/1/1
f -4/1/1 -7/1/1 -8/1/1
f -3/1/1 -7/1/1 -4/1/1
f -2/1/1 -4/1/1 -5/1/1
f -1/1/1 -4/1/1 -2/1/1
v -4 0 4
v -4 0 -2
v -4 1 5
v -4 1 4
v -4 1 -2
v -4 1 -3
v -4 7 5
v -4 7 4
v -4 7 -2
v -4 7 -3
v -4 8 4
v -4 8 -2
f -12/1/2 -11/1/2 -9/1/2
f -9/1/2 -11/1/2 -8/1/2
f -10/1/2 -9/1/2 -6/1/2
f -6/1/2 -9/1/2 -5/1/2
f -8/1/2 -7/1/2 -4/1/2
f -4/1/2 -7/1/2 -3/1/2
f -5/1/2 -4/1/2 -2/1/2
f -2/1/2 -4/1/2 -1/1/2
v 3 0 5
v 3 0 -3
v 3 1 4
v 3 1 -2
v 3 7 4
v 3 7 -2
v 3 8 5
v 3 8 -3
f -8/1/2 -7/1/2 -6/1/2
f -6/1/2 -7/1/2 -5/1/2
f -8/1/2 -6/1/2 -4/1/2
f -5/1/2 -7/1/2 -3/1/2
f -8/1/2 -4/1/2 -2/1/2
f -4/1/2 -3/1/2 -2/1/2
f -3/1/2 -7/1/2 -1/1/2
f -2/1/2 -3/1/2 -1/1/2
v -5 0 5
v -5 8 5
v -4 1 5
v -4 7 5
v 2 1 5
v 2 7 5
v 3 0 5
v 3 8 5
f -6/1/3 -7/1/3 -8/1/3
f -5/1/3 -7/1/3 -6/1/3
f -4/1/3 -6/1/3 -8/1/3
f -3/1/3 -7/1/3 -5/1/3
f -2/1/3 -4/1/3 -8/1/3
f -2/1/3 -3/1/3 -4/1/3
f -1/1/3 -7/1/3 -3/1/3
f -1/1/3 -3/1/3 -2/1/3
v -5 1 -2
v -5 7 -2
v -4 0 -2
v -4 1 -2
v -4 7 -2
v -4 8 -2
v 2 0 -2
v 2 1 -2
v 2 7 -2
v 2 8 -2
v 3 1 -2
v 3 7 -2
f -9/1/3 -11/1/3 -12/1/3
f -8/1/3 -11/1/3 -9/1/3
f -6/1/3 -9/1/3 -10/1/3
f -5/1/3 -9/1/3 -6/1/3
f -4/1/3 -7/1/3 -8/1/3
f -3/1/3 -7/1/3 -4/1/3
f -2/1/3 -4/1/3 -5/1/3
f -1/1/3 -4/1/3 -2/1/3
v -5 1 4
v -5 7 4
v -4 0 4
v -4 1 4
v -4 7 4
v -4 8 4
v 2 0 4
v 2 1 4
v 2 7 4
v 2 8 4
v 3 1 4
v 3 7 4
f -12/1/4 -11/1/4 -9/1/4
f -9/1/4 -11/1/4 -8/1/4
f -10/1/4 -9/1/4 -6/1/4
f -6/1/4 -9/1/4 -5/1/4
f -8/1/4 -7/1/4 -4/1/4
f -4/1/4 -7/1/4 -3/1/4
f -5/1/4 -4/1/4 -2/1/4
f -2/1/4 -4/1/4 -1/1/4
v -5 0 -3
v -5 8 -3
v -4 1 -3
v -4 7 -3
v 2 1 -3
v 2 7 -3
v 3 0 -3
v 3 8 -3
f -8/1/4 -7/1/4 -6/1/4
f -6/1/4 -7/1/4 -5/1/4
f -8/1/4 -6/1/4 -4/1/4
f -5/1/4 -7/1/4 -3/1/4
f -8/1/4 -4/1/4 -2/1/4
f -4/1/4 -3/1/4 -2/1/4
f -3/1/4 -7/1/4 -1/1/4
f -2/1/4 -3/1/4 -1/1/4
v -5 0 5
v 3 0 5
v -4 0 4
v 2 0 4
v -4 0 -2
v 2 0 -2
v -5 0 -3
v 3 0 -3
f -6/1/5 -7/1/5 -8/1/5
f -5/1/5 -7/1/5 -6/1/5
f -4/1/5 -6/1/5 -8/1/5
f -3/1/5 -7/1/5 -5/1/5
f -2/1/5 -4/1/5 -8/1/5
f -2/1/5 -3/1/5 -4/1/5
f -1/1/5 -7/1/5 -3/1/5
f -1/1/5 -3/1/5 -2/1/5
v -4 7 5
v 2 7 5
v -5 7 4
v -4 7 4
v 2 7 4
v 3 7 4
v -5 7 -2
v -4 7 -2
v 2 7 -2
v 3 7 -2
v -4 7 -3
v 2 7 -3
f -9/1/5 -11/1/5 -12/1/5
f -8/1/5 -11/1/5 -9/1/5
f -6/1/5 -9/1/5 -10/1/5
f -5/1/5 -9/1/5 -6/1/5
f -4/1/5 -7/1/5 -8/1/5
f -3/1/5 -7/1/5 -4/1/5
f -2/1/5 -4/1/5 -5/1/5
f -1/1/5 -4/1/5 -2/1/5
v -4 1 5
v 2 1 5
v -5 1 4
v -4 1 4
v 2 1 4
v 3 1 4
v -5 1 -2
v -4 1 -2
v 2 1 -2
v 3 1 -2
v -4 1 -3
v 2 1 -3
f -12/1/6 -11/1/6 -9/1/6
f -9/1/6 -11/1/6 -8/1/6
f -10/1/6 -9/1/6 -6/1/6
f -6/1/6 -9/1/6 -5/1/6
f -8/1/6 -7/1/6 -4/1/6
f -4/1/6 -7/1/6 -3/1/6
f -5/1/6 -4/1/6 -2/1/6
f -2/1/6 -4/1/6 -1/1/6
v -5 8 5
v 3 8 5
v -4 8 4
v 2 8 4
v -4 8 -2
v 2 8 -2
v -5 8 -3
v 3 8 -3
f -8/1/6 -7/1/6 -6/1/6
f -6/1/6 -7/1/6 -5/1/6
f -8/1/6 -6/1/6 -4/1/6
f -5/1/6 -7/1/6 -3/1/6
f -8/1/6 -4/1/6 -2/1/6
f -4/1/6 -3/1/6 -2/1/6
f -3/1/6 -7/1/6 -1/1/6
f -2/1/6 -3/1/6 -1/1/6
