# MagicaVoxel @ ephtracy

# material
mtllib bear.mtl

# normals
vn -1 0 0
vn 1 0 0
vn 0 0 1
vn 0 0 -1
vn 0 -1 0
vn 0 1 0

# texcoords
vt 0.00976562 0.5
vt 0.0292969 0.5
vt 0.373047 0.5
vt 0.416016 0.5
vt 0.537109 0.5
vt 0.958984 0.5
vt 0.994141 0.5

# verts
v -9 0 9
v -9 0 6
v -9 0 -5
v -9 0 -7
v -9 2 7
v -9 2 6
v -9 2 -5
v -9 2 -6
v -9 3 8
v -9 3 7
v -9 3 -6
v -9 3 -7
v -9 4 9
v -9 4 8
v -9 11 9
v -9 11 5
v -9 13 -6
v -9 13 -7
v -9 14 5
v -9 14 -5
v -9 14 -6
v -9 14 -7
v -9 15 -4
v -9 15 -5
v -9 15 -6
v -9 15 -7
v -9 16 9
v -9 16 -4
v -9 16 -5
v -9 16 -6
v -9 16 -7
f -27/3/1 -30/3/1 -31/3/1
f -26/5/1 -29/5/1 -30/5/1
f -26/3/1 -30/3/1 -27/3/1
f -25/3/1 -28/3/1 -29/3/1
f -25/5/1 -29/5/1 -26/5/1
f -24/3/1 -28/3/1 -25/3/1
f -23/3/1 -27/3/1 -31/3/1
f -22/5/1 -26/5/1 -27/5/1
f -22/3/1 -27/3/1 -23/3/1
f -22/5/1 -25/5/1 -26/5/1
f -22/5/1 -24/5/1 -25/5/1
f -21/3/1 -28/3/1 -24/3/1
f -21/5/1 -24/5/1 -22/5/1
f -20/3/1 -28/3/1 -21/3/1
f -19/3/1 -23/3/1 -31/3/1
f -18/5/1 -22/5/1 -23/5/1
f -18/3/1 -23/3/1 -19/3/1
f -18/5/1 -21/5/1 -22/5/1
f -18/5/1 -20/5/1 -21/5/1
f -17/5/1 -18/5/1 -19/5/1
f -16/5/1 -20/5/1 -18/5/1
f -16/5/1 -18/5/1 -17/5/1
f -15/5/1 -20/5/1 -16/5/1
f -14/5/1 -20/5/1 -15/5/1
f -13/3/1 -16/3/1 -17/3/1
f -13/5/1 -15/5/1 -16/5/1
f -12/5/1 -15/5/1 -13/5/1
f -11/4/1 -14/4/1 -15/4/1
f -11/5/1 -15/5/1 -12/5/1
f -10/4/1 -14/4/1 -11/4/1
f -9/3/1 -12/3/1 -13/3/1
f -8/4/1 -11/4/1 -12/4/1
f -8/3/1 -12/3/1 -9/3/1
f -7/2/1 -10/2/1 -11/2/1
f -7/4/1 -11/4/1 -8/4/1
f -6/2/1 -10/2/1 -7/2/1
f -5/3/1 -13/3/1 -17/3/1
f -5/3/1 -9/3/1 -13/3/1
f -4/4/1 -8/4/1 -9/4/1
f -4/3/1 -9/3/1 -5/3/1
f -3/2/1 -7/2/1 -8/2/1
f -3/4/1 -8/4/1 -4/4/1
f -2/1/1 -6/1/1 -7/1/1
f -2/2/1 -7/2/1 -3/2/1
f -1/1/1 -6/1/1 -2/1/1
v 7 0 9
v 7 0 6
v 7 0 -5
v 7 0 -7
v 7 2 7
v 7 2 6
v 7 2 -5
v 7 2 -6
v 7 3 8
v 7 3 7
v 7 3 -6
v 7 3 -7
v 7 4 9
v 7 4 8
v 7 11 9
v 7 11 5
v 7 13 -6
v 7 13 -7
v 7 14 5
v 7 14 -5
v 7 14 -6
v 7 14 -7
v 7 15 -4
v 7 15 -5
v 7 15 -6
v 7 15 -7
v 7 16 9
v 7 16 -4
v 7 16 -5
v 7 16 -6
v 7 16 -7
f -31/3/2 -30/3/2 -27/3/2
f -30/5/2 -29/5/2 -26/5/2
f -27/3/2 -30/3/2 -26/3/2
f -29/3/2 -28/3/2 -25/3/2
f -26/5/2 -29/5/2 -25/5/2
f -25/3/2 -28/3/2 -24/3/2
f -31/3/2 -27/3/2 -23/3/2
f -27/5/2 -26/5/2 -22/5/2
f -23/3/2 -27/3/2 -22/3/2
f -26/5/2 -25/5/2 -22/5/2
f -25/5/2 -24/5/2 -22/5/2
f -24/3/2 -28/3/2 -21/3/2
f -22/5/2 -24/5/2 -21/5/2
f -21/3/2 -28/3/2 -20/3/2
f -31/3/2 -23/3/2 -19/3/2
f -23/5/2 -22/5/2 -18/5/2
f -19/3/2 -23/3/2 -18/3/2
f -22/5/2 -21/5/2 -18/5/2
f -21/5/2 -20/5/2 -18/5/2
f -19/5/2 -18/5/2 -17/5/2
f -18/5/2 -20/5/2 -16/5/2
f -17/5/2 -18/5/2 -16/5/2
f -16/5/2 -20/5/2 -15/5/2
f -15/5/2 -20/5/2 -14/5/2
f -17/3/2 -16/3/2 -13/3/2
f -16/5/2 -15/5/2 -13/5/2
f -13/5/2 -15/5/2 -12/5/2
f -15/4/2 -14/4/2 -11/4/2
f -12/5/2 -15/5/2 -11/5/2
f -11/4/2 -14/4/2 -10/4/2
f -13/3/2 -12/3/2 -9/3/2
f -12/4/2 -11/4/2 -8/4/2
f -9/3/2 -12/3/2 -8/3/2
f -11/2/2 -10/2/2 -7/2/2
f -8/4/2 -11/4/2 -7/4/2
f -7/2/2 -10/2/2 -6/2/2
f -17/3/2 -13/3/2 -5/3/2
f -13/3/2 -9/3/2 -5/3/2
f -9/4/2 -8/4/2 -4/4/2
f -5/3/2 -9/3/2 -4/3/2
f -8/2/2 -7/2/2 -3/2/2
f -4/4/2 -8/4/2 -3/4/2
f -7/1/2 -6/1/2 -2/1/2
f -3/2/2 -7/2/2 -2/2/2
f -2/1/2 -6/1/2 -1/1/2
v -9 0 9
v -9 4 9
v -9 11 9
v -9 16 9
v -8 3 9
v -8 4 9
v -7 2 9
v -7 3 9
v -6 0 9
v -6 2 9
v -4 1 9
v -4 2 9
v -4 4 9
v -4 11 9
v -2 2 9
v -2 4 9
v 0 1 9
v 0 4 9
v 2 4 9
v 2 11 9
v 4 0 9
v 4 2 9
v 5 2 9
v 5 3 9
v 6 3 9
v 6 4 9
v 7 0 9
v 7 4 9
v 7 11 9
v 7 16 9
f -26/3/3 -29/3/3 -30/3/3
f -25/5/3 -28/5/3 -29/5/3
f -25/3/3 -29/3/3 -26/3/3
f -24/3/3 -26/3/3 -30/3/3
f -23/5/3 -25/5/3 -26/5/3
f -23/3/3 -26/3/3 -24/3/3
f -22/3/3 -24/3/3 -30/3/3
f -21/5/3 -23/5/3 -24/5/3
f -21/3/3 -24/3/3 -22/3/3
f -20/5/3 -21/5/3 -22/5/3
f -19/5/3 -23/5/3 -21/5/3
f -19/5/3 -21/5/3 -20/5/3
f -18/5/3 -28/5/3 -25/5/3
f -18/5/3 -23/5/3 -19/5/3
f -18/5/3 -25/5/3 -23/5/3
f -17/3/3 -27/3/3 -28/3/3
f -17/5/3 -28/5/3 -18/5/3
f -16/5/3 -18/5/3 -19/5/3
f -16/3/3 -19/3/3 -20/3/3
f -15/3/3 -17/3/3 -18/3/3
f -15/5/3 -18/5/3 -16/5/3
f -14/3/3 -16/3/3 -20/3/3
f -14/5/3 -20/5/3 -22/5/3
f -14/3/3 -15/3/3 -16/3/3
f -13/3/3 -17/3/3 -15/3/3
f -13/3/3 -15/3/3 -14/3/3
f -12/5/3 -13/5/3 -14/5/3
f -12/3/3 -17/3/3 -13/3/3
f -11/3/3 -27/3/3 -17/3/3
f -11/3/3 -17/3/3 -12/3/3
f -10/5/3 -12/5/3 -14/5/3
f -10/5/3 -14/5/3 -22/5/3
f -10/5/3 -11/5/3 -12/5/3
f -9/5/3 -11/5/3 -10/5/3
f -8/3/3 -9/3/3 -10/3/3
f -8/5/3 -11/5/3 -9/5/3
f -7/5/3 -11/5/3 -8/5/3
f -6/3/3 -7/3/3 -8/3/3
f -6/5/3 -11/5/3 -7/5/3
f -5/5/3 -11/5/3 -6/5/3
f -4/3/3 -8/3/3 -10/3/3
f -4/3/3 -6/3/3 -8/3/3
f -4/3/3 -5/3/3 -6/3/3
f -3/5/3 -11/5/3 -5/5/3
f -3/3/3 -5/3/3 -4/3/3
f -2/3/3 -27/3/3 -11/3/3
f -2/5/3 -11/5/3 -3/5/3
f -1/3/3 -27/3/3 -2/3/3
v -9 0 -7
v -9 3 -7
v -9 13 -7
v -9 14 -7
v -9 15 -7
v -9 16 -7
v -8 2 -7
v -8 3 -7
v -8 13 -7
v -8 14 -7
v -8 15 -7
v -8 16 -7
v -7 0 -7
v -7 2 -7
v -7 13 -7
v -7 14 -7
v -7 15 -7
v -7 16 -7
v -6 6 -7
v -6 8 -7
v -6 9 -7
v -6 15 -7
v -6 16 -7
v -5 3 -7
v -5 5 -7
v -5 8 -7
v -5 9 -7
v -5 12 -7
v -5 13 -7
v -4 5 -7
v -4 6 -7
v -4 9 -7
v -3 2 -7
v -3 3 -7
v -3 11 -7
v -3 12 -7
v -2 1 -7
v -2 2 -7
v 1 1 -7
v 1 2 -7
v 1 11 -7
v 1 12 -7
v 2 2 -7
v 2 3 -7
v 3 5 -7
v 3 6 -7
v 3 8 -7
v 3 9 -7
v 3 12 -7
v 3 13 -7
v 4 3 -7
v 4 5 -7
v 4 8 -7
v 4 9 -7
v 4 15 -7
v 4 16 -7
v 5 0 -7
v 5 2 -7
v 5 6 -7
v 5 9 -7
v 5 13 -7
v 5 14 -7
v 5 15 -7
v 5 16 -7
v 6 2 -7
v 6 3 -7
v 6 13 -7
v 6 14 -7
v 6 15 -7
v 6 16 -7
v 7 0 -7
v 7 3 -7
v 7 13 -7
v 7 14 -7
v 7 15 -7
v 7 16 -7
f -76/3/4 -75/3/4 -70/3/4
f -75/5/4 -74/5/4 -69/5/4
f -70/3/4 -75/3/4 -69/3/4
f -74/4/4 -73/4/4 -68/4/4
f -69/5/4 -74/5/4 -68/5/4
f -73/2/4 -72/2/4 -67/2/4
f -68/4/4 -73/4/4 -67/4/4
f -72/1/4 -71/1/4 -66/1/4
f -67/2/4 -72/2/4 -66/2/4
f -66/1/4 -71/1/4 -65/1/4
f -76/3/4 -70/3/4 -64/3/4
f -68/5/4 -67/5/4 -63/5/4
f -64/3/4 -70/3/4 -63/3/4
f -70/5/4 -69/5/4 -63/5/4
f -69/5/4 -68/5/4 -63/5/4
f -63/5/4 -67/5/4 -62/5/4
f -67/4/4 -66/4/4 -61/4/4
f -62/5/4 -67/5/4 -61/5/4
f -66/2/4 -65/2/4 -60/2/4
f -61/4/4 -66/4/4 -60/4/4
f -60/2/4 -65/2/4 -59/2/4
f -63/5/4 -62/5/4 -58/5/4
f -64/5/4 -63/5/4 -58/5/4
f -58/5/4 -62/5/4 -57/5/4
f -57/5/4 -62/5/4 -56/5/4
f -62/3/4 -61/3/4 -55/3/4
f -60/4/4 -59/4/4 -55/4/4
f -61/3/4 -60/3/4 -55/3/4
f -55/4/4 -59/4/4 -54/4/4
f -64/5/4 -58/5/4 -53/5/4
f -53/5/4 -58/5/4 -52/5/4
f -57/6/4 -56/6/4 -51/6/4
f -58/7/4 -57/7/4 -51/7/4
f -56/5/4 -62/5/4 -50/5/4
f -51/6/4 -56/6/4 -50/6/4
f -50/5/4 -62/5/4 -49/5/4
f -62/3/4 -55/3/4 -48/3/4
f -49/5/4 -62/5/4 -48/5/4
f -55/3/4 -54/3/4 -48/3/4
f -52/5/4 -58/5/4 -47/5/4
f -53/1/4 -52/1/4 -47/1/4
f -58/7/4 -51/7/4 -46/7/4
f -47/5/4 -58/5/4 -46/5/4
f -51/7/4 -50/7/4 -46/7/4
f -50/5/4 -49/5/4 -45/5/4
f -46/7/4 -50/7/4 -45/7/4
f -64/5/4 -53/5/4 -44/5/4
f -53/1/4 -47/1/4 -43/1/4
f -44/5/4 -53/5/4 -43/5/4
f -47/1/4 -46/1/4 -43/1/4
f -46/5/4 -45/5/4 -42/5/4
f -45/5/4 -49/5/4 -42/5/4
f -49/3/4 -48/3/4 -41/3/4
f -42/5/4 -49/5/4 -41/5/4
f -64/5/4 -44/5/4 -40/5/4
f -44/2/4 -43/2/4 -39/2/4
f -40/5/4 -44/5/4 -39/5/4
f -64/5/4 -40/5/4 -38/5/4
f -40/2/4 -39/2/4 -38/2/4
f -39/2/4 -43/2/4 -37/2/4
f -38/2/4 -39/2/4 -37/2/4
f -46/5/4 -42/5/4 -36/5/4
f -42/3/4 -41/3/4 -36/3/4
f -41/3/4 -48/3/4 -35/3/4
f -36/3/4 -41/3/4 -35/3/4
f -37/2/4 -43/2/4 -34/2/4
f -38/5/4 -37/5/4 -34/5/4
f -43/1/4 -46/1/4 -33/1/4
f -34/2/4 -43/2/4 -33/2/4
f -33/1/4 -46/1/4 -32/1/4
f -46/5/4 -36/5/4 -31/5/4
f -32/1/4 -46/1/4 -31/1/4
f -36/5/4 -35/5/4 -31/5/4
f -31/5/4 -35/5/4 -30/5/4
f -30/5/4 -35/5/4 -29/5/4
f -35/3/4 -48/3/4 -28/3/4
f -29/5/4 -35/5/4 -28/5/4
f -48/3/4 -54/3/4 -27/3/4
f -28/3/4 -48/3/4 -27/3/4
f -33/1/4 -32/1/4 -26/1/4
f -34/5/4 -33/5/4 -26/5/4
f -32/5/4 -31/5/4 -25/5/4
f -26/1/4 -32/1/4 -25/1/4
f -30/6/4 -29/6/4 -24/6/4
f -31/7/4 -30/7/4 -24/7/4
f -29/5/4 -28/5/4 -23/5/4
f -24/6/4 -29/6/4 -23/6/4
f -28/5/4 -27/5/4 -23/5/4
f -27/3/4 -54/3/4 -22/3/4
f -22/3/4 -54/3/4 -21/3/4
f -38/5/4 -34/5/4 -20/5/4
f -64/5/4 -38/5/4 -20/5/4
f -26/5/4 -25/5/4 -20/5/4
f -34/5/4 -26/5/4 -20/5/4
f -20/5/4 -25/5/4 -19/5/4
f -31/7/4 -24/7/4 -18/7/4
f -19/5/4 -25/5/4 -18/5/4
f -25/5/4 -31/5/4 -18/5/4
f -24/7/4 -23/7/4 -18/7/4
f -23/5/4 -27/5/4 -17/5/4
f -18/7/4 -23/7/4 -17/7/4
f -27/3/4 -22/3/4 -16/3/4
f -17/5/4 -27/5/4 -16/5/4
f -16/3/4 -22/3/4 -15/3/4
f -22/4/4 -21/4/4 -14/4/4
f -15/3/4 -22/3/4 -14/3/4
f -14/4/4 -21/4/4 -13/4/4
f -19/5/4 -18/5/4 -12/5/4
f -20/3/4 -19/3/4 -12/3/4
f -16/5/4 -15/5/4 -12/5/4
f -18/5/4 -17/5/4 -12/5/4
f -17/5/4 -16/5/4 -12/5/4
f -12/5/4 -15/5/4 -11/5/4
f -11/5/4 -15/5/4 -10/5/4
f -15/4/4 -14/4/4 -9/4/4
f -10/5/4 -15/5/4 -9/5/4
f -14/2/4 -13/2/4 -8/2/4
f -9/4/4 -14/4/4 -8/4/4
f -8/2/4 -13/2/4 -7/2/4
f -20/3/4 -12/3/4 -6/3/4
f -12/3/4 -11/3/4 -6/3/4
f -11/5/4 -10/5/4 -5/5/4
f -6/3/4 -11/3/4 -5/3/4
f -10/4/4 -9/4/4 -4/4/4
f -5/5/4 -10/5/4 -4/5/4
f -9/2/4 -8/2/4 -3/2/4
f -4/4/4 -9/4/4 -3/4/4
f -8/1/4 -7/1/4 -2/1/4
f -3/2/4 -8/2/4 -2/2/4
f -2/1/4 -7/1/4 -1/1/4
v -9 0 9
v -6 0 9
v 4 0 9
v 7 0 9
v -8 0 8
v -6 0 8
v 4 0 8
v 6 0 8
v -9 0 6
v -8 0 6
v 6 0 6
v 7 0 6
v -9 0 -5
v -8 0 -5
v 6 0 -5
v 7 0 -5
v -8 0 -6
v -7 0 -6
v 5 0 -6
v 6 0 -6
v -9 0 -7
v -7 0 -7
v 5 0 -7
v 7 0 -7
f -20/3/5 -23/3/5 -24/3/5
f -19/5/5 -22/5/5 -23/5/5
f -19/3/5 -23/3/5 -20/3/5
f -18/3/5 -21/3/5 -22/3/5
f -18/5/5 -22/5/5 -19/5/5
f -17/3/5 -21/3/5 -18/3/5
f -16/3/5 -20/3/5 -24/3/5
f -15/5/5 -19/5/5 -20/5/5
f -15/3/5 -20/3/5 -16/3/5
f -15/5/5 -18/5/5 -19/5/5
f -15/5/5 -17/5/5 -18/5/5
f -14/3/5 -21/3/5 -17/3/5
f -14/5/5 -17/5/5 -15/5/5
f -13/3/5 -21/3/5 -14/3/5
f -12/5/5 -15/5/5 -16/5/5
f -12/5/5 -14/5/5 -15/5/5
f -12/5/5 -13/5/5 -14/5/5
f -11/5/5 -13/5/5 -12/5/5
f -10/5/5 -13/5/5 -11/5/5
f -9/5/5 -13/5/5 -10/5/5
f -8/3/5 -11/3/5 -12/3/5
f -8/5/5 -10/5/5 -11/5/5
f -7/5/5 -10/5/5 -8/5/5
f -6/5/5 -10/5/5 -7/5/5
f -5/3/5 -9/3/5 -10/3/5
f -5/5/5 -10/5/5 -6/5/5
f -4/3/5 -8/3/5 -12/3/5
f -4/3/5 -7/3/5 -8/3/5
f -3/5/5 -6/5/5 -7/5/5
f -3/3/5 -7/3/5 -4/3/5
f -2/3/5 -5/3/5 -6/3/5
f -2/5/5 -6/5/5 -3/5/5
f -1/3/5 -9/3/5 -5/3/5
f -1/3/5 -5/3/5 -2/3/5
v -9 16 9
v 7 16 9
v -9 16 -4
v -8 16 -4
v 6 16 -4
v 7 16 -4
v -9 16 -5
v -8 16 -5
v -7 16 -5
v 5 16 -5
v 6 16 -5
v 7 16 -5
v -9 16 -6
v -8 16 -6
v -7 16 -6
v -6 16 -6
v 4 16 -6
v 5 16 -6
v 6 16 -6
v 7 16 -6
v -9 16 -7
v -8 16 -7
v -7 16 -7
v -6 16 -7
v 4 16 -7
v 5 16 -7
v 6 16 -7
v 7 16 -7
f -28/3/6 -27/3/6 -26/3/6
f -26/3/6 -27/3/6 -25/3/6
f -25/3/6 -27/3/6 -24/3/6
f -24/3/6 -27/3/6 -23/3/6
f -26/4/6 -25/4/6 -22/4/6
f -25/3/6 -24/3/6 -21/3/6
f -22/4/6 -25/4/6 -21/4/6
f -21/3/6 -24/3/6 -20/3/6
f -20/3/6 -24/3/6 -19/3/6
f -24/4/6 -23/4/6 -18/4/6
f -19/3/6 -24/3/6 -18/3/6
f -18/4/6 -23/4/6 -17/4/6
f -22/2/6 -21/2/6 -16/2/6
f -21/4/6 -20/4/6 -15/4/6
f -16/2/6 -21/2/6 -15/2/6
f -20/3/6 -19/3/6 -14/3/6
f -15/4/6 -20/4/6 -14/4/6
f -14/3/6 -19/3/6 -13/3/6
f -13/3/6 -19/3/6 -12/3/6
f -19/4/6 -18/4/6 -11/4/6
f -12/3/6 -19/3/6 -11/3/6
f -18/2/6 -17/2/6 -10/2/6
f -11/4/6 -18/4/6 -10/4/6
f -10/2/6 -17/2/6 -9/2/6
f -16/1/6 -15/1/6 -8/1/6
f -15/2/6 -14/2/6 -7/2/6
f -8/1/6 -15/1/6 -7/1/6
f -14/4/6 -13/4/6 -6/4/6
f -7/2/6 -14/2/6 -6/2/6
f -13/3/6 -12/3/6 -5/3/6
f -6/4/6 -13/4/6 -5/4/6
f -12/4/6 -11/4/6 -4/4/6
f -5/3/6 -12/3/6 -4/3/6
f -11/2/6 -10/2/6 -3/2/6
f -4/4/6 -11/4/6 -3/4/6
f -10/1/6 -9/1/6 -2/1/6
f -3/2/6 -10/2/6 -2/2/6
f -2/1/6 -9/1/6 -1/1/6
