# MagicaVoxel @ ephtracy

# material
mtllib bird.mtl

# normals
vn -1 0 0
vn 1 0 0
vn 0 0 1
vn 0 0 -1
vn 0 -1 0
vn 0 1 0

# texcoords
vt 0.00195312 0.5
vt 0.00585938 0.5
vt 0.0175781 0.5
vt 0.0214844 0.5
vt 0.0410156 0.5
vt 0.626953 0.5
vt 0.658203 0.5

# verts
v -5 1 1.5
v -5 1 0.5
v -5 2 1.5
v -5 2 0.5
f -2/4/1 -3/4/1 -4/4/1
f -1/4/1 -3/4/1 -2/4/1
v -4 0 1.5
v -4 0 0.5
v -4 1 2.5
v -4 1 1.5
v -4 1 0.5
v -4 1 -0.5
v -4 2 1.5
v -4 2 0.5
v -4 4 2.5
v -4 4 -0.5
f -7/4/1 -9/4/1 -10/4/1
f -6/4/1 -9/4/1 -7/4/1
f -4/2/1 -7/2/1 -8/2/1
f -3/2/1 -5/2/1 -6/2/1
f -2/2/1 -4/2/1 -8/2/1
f -2/2/1 -3/2/1 -4/2/1
f -1/2/1 -5/2/1 -3/2/1
f -1/2/1 -3/2/1 -2/2/1
v -3 0 2.5
v -3 0 1.5
v -3 0 0.5
v -3 0 -0.5
v -3 1 2.5
v -3 1 1.5
v -3 1 0.5
v -3 1 -0.5
v -3 2 3.5
v -3 2 2.5
v -3 2 -0.5
v -3 2 -1.5
v -3 3 3.5
v -3 3 2.5
v -3 3 -0.5
v -3 3 -1.5
v -3 4 2.5
v -3 4 -0.5
v -3 5 2.5
v -3 5 -0.5
f -16/2/1 -19/2/1 -20/2/1
f -15/2/1 -19/2/1 -16/2/1
f -14/2/1 -17/2/1 -18/2/1
f -13/2/1 -17/2/1 -14/2/1
f -8/7/1 -11/7/1 -12/7/1
f -7/7/1 -11/7/1 -8/7/1
f -6/6/1 -9/6/1 -10/6/1
f -5/6/1 -9/6/1 -6/6/1
f -2/2/1 -3/2/1 -4/2/1
f -1/2/1 -3/2/1 -2/2/1
v -2 1 1.5
v -2 1 0.5
v -2 4 1.5
v -2 4 0.5
f -2/2/1 -3/2/1 -4/2/1
f -1/2/1 -3/2/1 -2/2/1
v -1 3 3.5
v -1 3 2.5
v -1 3 -0.5
v -1 3 -1.5
v -1 4 3.5
v -1 4 2.5
v -1 4 -0.5
v -1 4 -1.5
f -4/1/1 -7/1/1 -8/1/1
f -3/1/1 -7/1/1 -4/1/1
f -2/1/1 -5/1/1 -6/1/1
f -1/1/1 -5/1/1 -2/1/1
v 0 2 4.5
v 0 2 3.5
v 0 2 -1.5
v 0 2 -2.5
v 0 3 4.5
v 0 3 3.5
v 0 3 -1.5
v 0 3 -2.5
f -4/1/1 -7/1/1 -8/1/1
f -3/1/1 -7/1/1 -4/1/1
f -2/1/1 -5/1/1 -6/1/1
f -1/1/1 -5/1/1 -2/1/1
v -4 1 1.5
v -4 1 0.5
v -4 2 1.5
v -4 2 0.5
f -4/4/2 -3/4/2 -2/4/2
f -2/4/2 -3/4/2 -1/4/2
v -3 2 1.5
v -3 2 0.5
v -3 4 1.5
v -3 4 0.5
f -4/2/2 -3/2/2 -2/2/2
f -2/2/2 -3/2/2 -1/2/2
v -2 2 3.5
v -2 2 2.5
v -2 2 -0.5
v -2 2 -1.5
v -2 3 3.5
v -2 3 2.5
v -2 3 -0.5
v -2 3 -1.5
f -8/7/2 -7/7/2 -4/7/2
f -4/7/2 -7/7/2 -3/7/2
f -6/6/2 -5/6/2 -2/6/2
f -2/6/2 -5/6/2 -1/6/2
v 1 0 2.5
v 1 0 -0.5
v 1 1 2.5
v 1 1 -0.5
v 1 3 3.5
v 1 3 2.5
v 1 3 -0.5
v 1 3 -1.5
v 1 4 3.5
v 1 4 2.5
v 1 4 -0.5
v 1 4 -1.5
v 1 5 2.5
v 1 5 -0.5
f -14/2/2 -13/2/2 -12/2/2
f -12/2/2 -13/2/2 -11/2/2
f -10/1/2 -9/1/2 -6/1/2
f -9/3/2 -8/3/2 -5/3/2
f -6/1/2 -9/1/2 -5/1/2
f -8/1/2 -7/1/2 -4/1/2
f -5/3/2 -8/3/2 -4/3/2
f -4/1/2 -7/1/2 -3/1/2
f -5/3/2 -4/3/2 -2/3/2
f -2/3/2 -4/3/2 -1/3/2
v 2 1 2.5
v 2 1 1.5
v 2 1 0.5
v 2 1 -0.5
v 2 2 4.5
v 2 2 3.5
v 2 2 -1.5
v 2 2 -2.5
v 2 3 4.5
v 2 3 3.5
v 2 3 2.5
v 2 3 1.5
v 2 3 0.5
v 2 3 -0.5
v 2 3 -1.5
v 2 3 -2.5
f -12/1/2 -11/1/2 -8/1/2
f -8/1/2 -11/1/2 -7/1/2
f -16/3/2 -15/3/2 -6/3/2
f -6/3/2 -15/3/2 -5/3/2
f -14/3/2 -13/3/2 -4/3/2
f -4/3/2 -13/3/2 -3/3/2
f -10/1/2 -9/1/2 -2/1/2
f -2/1/2 -9/1/2 -1/1/2
v 3 1 1.5
v 3 1 0.5
v 3 3 1.5
v 3 3 0.5
f -4/3/2 -3/3/2 -2/3/2
f -2/3/2 -3/3/2 -1/3/2
v 0 2 4.5
v 0 3 4.5
v 2 2 4.5
v 2 3 4.5
f -2/1/3 -3/1/3 -4/1/3
f -1/1/3 -3/1/3 -2/1/3
v -3 2 3.5
v -3 3 3.5
v -2 2 3.5
v -2 3 3.5
v -1 3 3.5
v -1 4 3.5
v 0 3 3.5
v 1 3 3.5
v 1 4 3.5
f -7/7/3 -8/7/3 -9/7/3
f -6/7/3 -8/7/3 -7/7/3
f -3/1/3 -4/1/3 -5/1/3
f -2/1/3 -4/1/3 -3/1/3
f -1/1/3 -4/1/3 -2/1/3
v -4 1 2.5
v -4 4 2.5
v -3 0 2.5
v -3 1 2.5
v -3 2 2.5
v -3 3 2.5
v -3 4 2.5
v -3 5 2.5
v -2 2 2.5
v -2 3 2.5
v -2 4 2.5
v -1 3 2.5
v -1 4 2.5
v -1 5 2.5
v 0 1 2.5
v 0 2 2.5
v 1 0 2.5
v 1 1 2.5
v 1 2 2.5
v 1 3 2.5
v 1 4 2.5
v 1 5 2.5
v 2 1 2.5
v 2 3 2.5
f -21/2/3 -23/2/3 -24/2/3
f -20/2/3 -23/2/3 -21/2/3
f -19/2/3 -23/2/3 -20/2/3
f -18/2/3 -23/2/3 -19/2/3
f -16/2/3 -21/2/3 -22/2/3
f -16/2/3 -20/2/3 -21/2/3
f -15/2/3 -17/2/3 -18/2/3
f -15/2/3 -18/2/3 -19/2/3
f -14/2/3 -17/2/3 -15/2/3
f -13/3/3 -15/3/3 -16/3/3
f -13/3/3 -14/3/3 -15/3/3
f -12/2/3 -17/2/3 -14/2/3
f -12/3/3 -14/3/3 -13/3/3
f -11/2/3 -17/2/3 -12/2/3
f -10/2/3 -16/2/3 -22/2/3
f -9/3/3 -13/3/3 -16/3/3
f -9/2/3 -16/2/3 -10/2/3
f -8/2/3 -10/2/3 -22/2/3
f -7/5/3 -9/5/3 -10/5/3
f -7/2/3 -10/2/3 -8/2/3
f -6/3/3 -13/3/3 -9/3/3
f -6/5/3 -9/5/3 -7/5/3
f -5/3/3 -13/3/3 -6/3/3
f -4/3/3 -11/3/3 -12/3/3
f -3/3/3 -11/3/3 -4/3/3
f -2/3/3 -5/3/3 -6/3/3
f -2/3/3 -6/3/3 -7/3/3
f -1/3/3 -5/3/3 -2/3/3
v -5 1 1.5
v -5 2 1.5
v -4 0 1.5
v -4 1 1.5
v -4 2 1.5
v -3 0 1.5
v -3 1 1.5
v 2 1 1.5
v 2 3 1.5
v 3 1 1.5
v 3 3 1.5
f -8/4/3 -10/4/3 -11/4/3
f -7/4/3 -10/4/3 -8/4/3
f -6/4/3 -8/4/3 -9/4/3
f -5/4/3 -8/4/3 -6/4/3
f -2/3/3 -3/3/3 -4/3/3
f -1/3/3 -3/3/3 -2/3/3
v -4 1 0.5
v -4 2 0.5
v -3 1 0.5
v -3 2 0.5
v -3 4 0.5
v -2 1 0.5
v -2 4 0.5
f -5/2/3 -6/2/3 -7/2/3
f -4/2/3 -6/2/3 -5/2/3
f -2/2/3 -4/2/3 -5/2/3
f -2/2/3 -3/2/3 -4/2/3
f -1/2/3 -3/2/3 -2/2/3
v 0 2 -1.5
v 0 3 -1.5
v 1 3 -1.5
v 2 2 -1.5
v 2 3 -1.5
f -3/1/3 -4/1/3 -5/1/3
f -2/1/3 -3/1/3 -5/1/3
f -1/1/3 -3/1/3 -2/1/3
v 0 2 3.5
v 0 3 3.5
v 1 3 3.5
v 2 2 3.5
v 2 3 3.5
f -5/1/4 -4/1/4 -3/1/4
f -5/1/4 -3/1/4 -2/1/4
f -2/1/4 -3/1/4 -1/1/4
v -4 1 1.5
v -4 2 1.5
v -3 1 1.5
v -3 2 1.5
v -3 4 1.5
v -2 1 1.5
v -2 4 1.5
f -7/2/4 -6/2/4 -5/2/4
f -5/2/4 -6/2/4 -4/2/4
f -5/2/4 -4/2/4 -2/2/4
f -4/2/4 -3/2/4 -2/2/4
f -2/2/4 -3/2/4 -1/2/4
v -5 1 0.5
v -5 2 0.5
v -4 0 0.5
v -4 1 0.5
v -4 2 0.5
v -3 0 0.5
v -3 1 0.5
v 2 1 0.5
v 2 3 0.5
v 3 1 0.5
v 3 3 0.5
f -11/4/4 -10/4/4 -8/4/4
f -8/4/4 -10/4/4 -7/4/4
f -9/4/4 -8/4/4 -6/4/4
f -6/4/4 -8/4/4 -5/4/4
f -4/3/4 -3/3/4 -2/3/4
f -2/3/4 -3/3/4 -1/3/4
v -4 1 -0.5
v -4 4 -0.5
v -3 0 -0.5
v -3 1 -0.5
v -3 2 -0.5
v -3 3 -0.5
v -3 4 -0.5
v -3 5 -0.5
v -2 2 -0.5
v -2 3 -0.5
v -2 4 -0.5
v -1 3 -0.5
v -1 4 -0.5
v -1 5 -0.5
v 0 1 -0.5
v 0 2 -0.5
v 1 0 -0.5
v 1 1 -0.5
v 1 3 -0.5
v 1 4 -0.5
v 1 5 -0.5
v 2 1 -0.5
v 2 3 -0.5
f -23/2/4 -22/2/4 -20/2/4
f -20/2/4 -22/2/4 -19/2/4
f -19/2/4 -22/2/4 -18/2/4
f -18/2/4 -22/2/4 -17/2/4
f -21/2/4 -20/2/4 -15/2/4
f -20/2/4 -19/2/4 -15/2/4
f -17/2/4 -16/2/4 -14/2/4
f -18/2/4 -17/2/4 -14/2/4
f -14/2/4 -16/2/4 -13/2/4
f -15/3/4 -14/3/4 -12/3/4
f -14/3/4 -13/3/4 -12/3/4
f -13/2/4 -16/2/4 -11/2/4
f -12/3/4 -13/3/4 -11/3/4
f -11/2/4 -16/2/4 -10/2/4
f -21/2/4 -15/2/4 -9/2/4
f -15/3/4 -12/3/4 -8/3/4
f -9/2/4 -15/2/4 -8/2/4
f -21/2/4 -9/2/4 -7/2/4
f -9/3/4 -8/3/4 -6/3/4
f -7/2/4 -9/2/4 -6/2/4
f -8/3/4 -12/3/4 -5/3/4
f -6/3/4 -8/3/4 -5/3/4
f -11/3/4 -10/3/4 -4/3/4
f -4/3/4 -10/3/4 -3/3/4
f -6/3/4 -5/3/4 -2/3/4
f -2/3/4 -5/3/4 -1/3/4
v -3 2 -1.5
v -3 3 -1.5
v -2 2 -1.5
v -2 3 -1.5
v -1 3 -1.5
v -1 4 -1.5
v 0 3 -1.5
v 1 3 -1.5
v 1 4 -1.5
f -9/6/4 -8/6/4 -7/6/4
f -7/6/4 -8/6/4 -6/6/4
f -5/1/4 -4/1/4 -3/1/4
f -3/1/4 -4/1/4 -2/1/4
f -2/1/4 -4/1/4 -1/1/4
v 0 2 -2.5
v 0 3 -2.5
v 2 2 -2.5
v 2 3 -2.5
f -4/1/4 -3/1/4 -2/1/4
f -2/1/4 -3/1/4 -1/1/4
v -3 0 2.5
v 1 0 2.5
v -4 0 1.5
v -3 0 1.5
v -4 0 0.5
v -3 0 0.5
v -3 0 -0.5
v 1 0 -0.5
f -5/2/5 -7/2/5 -8/2/5
f -4/4/5 -5/4/5 -6/4/5
f -3/2/5 -7/2/5 -5/2/5
f -3/4/5 -5/4/5 -4/4/5
f -2/2/5 -7/2/5 -3/2/5
f -1/2/5 -7/2/5 -2/2/5
v -4 1 2.5
v -3 1 2.5
v 1 1 2.5
v 2 1 2.5
v -5 1 1.5
v -4 1 1.5
v -3 1 1.5
v 2 1 1.5
v 3 1 1.5
v -5 1 0.5
v -4 1 0.5
v -3 1 0.5
v 2 1 0.5
v 3 1 0.5
v -4 1 -0.5
v -3 1 -0.5
v 1 1 -0.5
v 2 1 -0.5
f -13/2/5 -17/2/5 -18/2/5
f -12/2/5 -17/2/5 -13/2/5
f -11/3/5 -15/3/5 -16/3/5
f -9/4/5 -13/4/5 -14/4/5
f -8/4/5 -13/4/5 -9/4/5
f -6/3/5 -10/3/5 -11/3/5
f -6/3/5 -11/3/5 -16/3/5
f -5/3/5 -10/3/5 -6/3/5
f -4/2/5 -7/2/5 -8/2/5
f -3/2/5 -7/2/5 -4/2/5
f -2/3/5 -6/3/5 -16/3/5
f -1/3/5 -6/3/5 -2/3/5
v 0 2 4.5
v 2 2 4.5
v -3 2 3.5
v -2 2 3.5
v 0 2 3.5
v 2 2 3.5
v -3 2 2.5
v -2 2 2.5
v -4 2 1.5
v -3 2 1.5
v -4 2 0.5
v -3 2 0.5
v -3 2 -0.5
v -2 2 -0.5
v -3 2 -1.5
v -2 2 -1.5
v 0 2 -1.5
v 2 2 -1.5
v 0 2 -2.5
v 2 2 -2.5
f -16/1/5 -19/1/5 -20/1/5
f -15/1/5 -19/1/5 -16/1/5
f -14/7/5 -17/7/5 -18/7/5
f -13/7/5 -17/7/5 -14/7/5
f -10/2/5 -11/2/5 -12/2/5
f -9/2/5 -11/2/5 -10/2/5
f -6/6/5 -7/6/5 -8/6/5
f -5/6/5 -7/6/5 -6/6/5
f -2/1/5 -3/1/5 -4/1/5
f -1/1/5 -3/1/5 -2/1/5
v -1 3 3.5
v 0 3 3.5
v 1 3 3.5
v -1 3 2.5
v 1 3 2.5
v -1 3 -0.5
v 1 3 -0.5
v -1 3 -1.5
v 0 3 -1.5
v 1 3 -1.5
f -7/1/5 -9/1/5 -10/1/5
f -7/1/5 -8/1/5 -9/1/5
f -6/1/5 -8/1/5 -7/1/5
f -3/1/5 -4/1/5 -5/1/5
f -2/1/5 -4/1/5 -3/1/5
f -1/1/5 -4/1/5 -2/1/5
v -3 4 1.5
v -2 4 1.5
v -3 4 0.5
v -2 4 0.5
f -2/2/5 -3/2/5 -4/2/5
f -1/2/5 -3/2/5 -2/2/5
v -4 1 1.5
v -3 1 1.5
v -2 1 1.5
v -4 1 0.5
v -3 1 0.5
v -2 1 0.5
f -6/4/6 -5/4/6 -3/4/6
f -5/2/6 -4/2/6 -2/2/6
f -3/4/6 -5/4/6 -2/4/6
f -2/2/6 -4/2/6 -1/2/6
v -5 2 1.5
v -4 2 1.5
v -5 2 0.5
v -4 2 0.5
f -4/4/6 -3/4/6 -2/4/6
f -2/4/6 -3/4/6 -1/4/6
v 0 3 4.5
v 2 3 4.5
v -3 3 3.5
v -2 3 3.5
v 0 3 3.5
v 1 3 3.5
v 2 3 3.5
v -3 3 2.5
v -2 3 2.5
v 1 3 2.5
v 2 3 2.5
v 2 3 1.5
v 3 3 1.5
v 2 3 0.5
v 3 3 0.5
v -3 3 -0.5
v -2 3 -0.5
v 1 3 -0.5
v 2 3 -0.5
v -3 3 -1.5
v -2 3 -1.5
v 0 3 -1.5
v 1 3 -1.5
v 2 3 -1.5
v 0 3 -2.5
v 2 3 -2.5
f -26/1/6 -25/1/6 -22/1/6
f -22/1/6 -25/1/6 -21/1/6
f -21/1/6 -25/1/6 -20/1/6
f -24/7/6 -23/7/6 -19/7/6
f -19/7/6 -23/7/6 -18/7/6
f -17/3/6 -16/3/6 -15/3/6
f -17/3/6 -15/3/6 -13/3/6
f -15/3/6 -14/3/6 -13/3/6
f -13/3/6 -14/3/6 -12/3/6
f -17/3/6 -13/3/6 -9/3/6
f -9/3/6 -13/3/6 -8/3/6
f -11/6/6 -10/6/6 -7/6/6
f -7/6/6 -10/6/6 -6/6/6
f -4/1/6 -3/1/6 -2/1/6
f -5/1/6 -4/1/6 -2/1/6
f -2/1/6 -3/1/6 -1/1/6
v -1 4 3.5
v 1 4 3.5
v -4 4 2.5
v -3 4 2.5
v -1 4 2.5
v 1 4 2.5
v -4 4 -0.5
v -3 4 -0.5
v -1 4 -0.5
v 1 4 -0.5
v -1 4 -1.5
v 1 4 -1.5
f -12/1/6 -11/1/6 -8/1/6
f -8/1/6 -11/1/6 -7/1/6
f -10/2/6 -9/2/6 -6/2/6
f -6/2/6 -9/2/6 -5/2/6
f -4/1/6 -3/1/6 -2/1/6
f -2/1/6 -3/1/6 -1/1/6
v -3 5 2.5
v -1 5 2.5
v 1 5 2.5
v -3 5 -0.5
v -1 5 -0.5
v 1 5 -0.5
f -6/2/6 -5/2/6 -3/2/6
f -5/3/6 -4/3/6 -2/3/6
f -3/2/6 -5/2/6 -2/2/6
f -2/3/6 -4/3/6 -1/3/6
