# MagicaVoxel @ ephtracy

# material
mtllib cube.mtl

# normals
vn -1 0 0
vn 1 0 0
vn 0 0 1
vn 0 0 -1
vn 0 -1 0
vn 0 1 0

# texcoords
vt 0.00585938 0.5
vt 0.0214844 0.5
vt 0.0371094 0.5
vt 0.0605469 0.5
vt 0.0917969 0.5
vt 0.212891 0.5
vt 0.298828 0.5
vt 0.306641 0.5
vt 0.705078 0.5
vt 0.712891 0.5
vt 0.755859 0.5

# verts
v -9 0 9
v -9 0 -7
v -9 1 8
v -9 1 4
v -9 1 3
v -9 1 -1
v -9 1 -2
v -9 1 -6
v -9 5 8
v -9 5 4
v -9 5 3
v -9 5 -1
v -9 5 -2
v -9 5 -6
v -9 6 8
v -9 6 4
v -9 6 3
v -9 6 -1
v -9 6 -2
v -9 6 -6
v -9 10 8
v -9 10 4
v -9 10 3
v -9 10 -1
v -9 10 -2
v -9 10 -6
v -9 11 8
v -9 11 4
v -9 11 3
v -9 11 -1
v -9 11 -2
v -9 11 -6
v -9 15 8
v -9 15 4
v -9 15 3
v -9 15 -1
v -9 15 -2
v -9 15 -6
v -9 16 9
v -9 16 -7
f -38/4/1 -39/4/1 -40/4/1
f -37/4/1 -39/4/1 -38/4/1
f -36/4/1 -39/4/1 -37/4/1
f -35/4/1 -39/4/1 -36/4/1
f -34/4/1 -39/4/1 -35/4/1
f -33/4/1 -39/4/1 -34/4/1
f -32/4/1 -38/4/1 -40/4/1
f -32/11/1 -37/11/1 -38/11/1
f -31/4/1 -36/4/1 -37/4/1
f -31/11/1 -37/11/1 -32/11/1
f -30/5/1 -35/5/1 -36/5/1
f -30/4/1 -36/4/1 -31/4/1
f -29/4/1 -34/4/1 -35/4/1
f -29/5/1 -35/5/1 -30/5/1
f -28/8/1 -33/8/1 -34/8/1
f -28/4/1 -34/4/1 -29/4/1
f -27/4/1 -39/4/1 -33/4/1
f -27/8/1 -33/8/1 -28/8/1
f -26/4/1 -28/4/1 -29/4/1
f -26/4/1 -29/4/1 -30/4/1
f -26/4/1 -27/4/1 -28/4/1
f -26/4/1 -30/4/1 -31/4/1
f -26/4/1 -31/4/1 -32/4/1
f -26/4/1 -32/4/1 -40/4/1
f -25/4/1 -27/4/1 -26/4/1
f -24/4/1 -27/4/1 -25/4/1
f -23/4/1 -27/4/1 -24/4/1
f -22/4/1 -27/4/1 -23/4/1
f -21/4/1 -39/4/1 -27/4/1
f -21/4/1 -27/4/1 -22/4/1
f -20/4/1 -26/4/1 -40/4/1
f -20/1/1 -25/1/1 -26/1/1
f -19/4/1 -24/4/1 -25/4/1
f -19/1/1 -25/1/1 -20/1/1
f -18/2/1 -23/2/1 -24/2/1
f -18/4/1 -24/4/1 -19/4/1
f -17/4/1 -22/4/1 -23/4/1
f -17/2/1 -23/2/1 -18/2/1
f -16/7/1 -21/7/1 -22/7/1
f -16/4/1 -22/4/1 -17/4/1
f -15/4/1 -39/4/1 -21/4/1
f -15/7/1 -21/7/1 -16/7/1
f -14/4/1 -18/4/1 -19/4/1
f -14/4/1 -16/4/1 -17/4/1
f -14/4/1 -15/4/1 -16/4/1
f -14/4/1 -19/4/1 -20/4/1
f -14/4/1 -20/4/1 -40/4/1
f -14/4/1 -17/4/1 -18/4/1
f -13/4/1 -15/4/1 -14/4/1
f -12/4/1 -15/4/1 -13/4/1
f -11/4/1 -15/4/1 -12/4/1
f -10/4/1 -15/4/1 -11/4/1
f -9/4/1 -39/4/1 -15/4/1
f -9/4/1 -15/4/1 -10/4/1
f -8/4/1 -14/4/1 -40/4/1
f -8/9/1 -13/9/1 -14/9/1
f -7/4/1 -12/4/1 -13/4/1
f -7/9/1 -13/9/1 -8/9/1
f -6/6/1 -11/6/1 -12/6/1
f -6/4/1 -12/4/1 -7/4/1
f -5/4/1 -10/4/1 -11/4/1
f -5/6/1 -11/6/1 -6/6/1
f -4/10/1 -9/10/1 -10/10/1
f -4/4/1 -10/4/1 -5/4/1
f -3/4/1 -39/4/1 -9/4/1
f -3/10/1 -9/10/1 -4/10/1
f -2/4/1 -6/4/1 -7/4/1
f -2/4/1 -4/4/1 -5/4/1
f -2/4/1 -3/4/1 -4/4/1
f -2/4/1 -7/4/1 -8/4/1
f -2/4/1 -8/4/1 -40/4/1
f -2/4/1 -5/4/1 -6/4/1
f -1/4/1 -39/4/1 -3/4/1
f -1/4/1 -3/4/1 -2/4/1
v 7 0 9
v 7 0 -7
v 7 1 8
v 7 1 4
v 7 1 3
v 7 1 -1
v 7 1 -2
v 7 1 -6
v 7 5 8
v 7 5 4
v 7 5 3
v 7 5 -1
v 7 5 -2
v 7 5 -6
v 7 6 8
v 7 6 4
v 7 6 3
v 7 6 -1
v 7 6 -2
v 7 6 -6
v 7 10 8
v 7 10 4
v 7 10 3
v 7 10 -1
v 7 10 -2
v 7 10 -6
v 7 11 8
v 7 11 4
v 7 11 3
v 7 11 -1
v 7 11 -2
v 7 11 -6
v 7 15 8
v 7 15 4
v 7 15 3
v 7 15 -1
v 7 15 -2
v 7 15 -6
v 7 16 9
v 7 16 -7
f -40/4/2 -39/4/2 -38/4/2
f -38/4/2 -39/4/2 -37/4/2
f -37/4/2 -39/4/2 -36/4/2
f -36/4/2 -39/4/2 -35/4/2
f -35/4/2 -39/4/2 -34/4/2
f -34/4/2 -39/4/2 -33/4/2
f -40/4/2 -38/4/2 -32/4/2
f -38/2/2 -37/2/2 -32/2/2
f -37/4/2 -36/4/2 -31/4/2
f -32/2/2 -37/2/2 -31/2/2
f -36/9/2 -35/9/2 -30/9/2
f -31/4/2 -36/4/2 -30/4/2
f -35/4/2 -34/4/2 -29/4/2
f -30/9/2 -35/9/2 -29/9/2
f -34/6/2 -33/6/2 -28/6/2
f -29/4/2 -34/4/2 -28/4/2
f -33/4/2 -39/4/2 -27/4/2
f -28/6/2 -33/6/2 -27/6/2
f -29/4/2 -28/4/2 -26/4/2
f -30/4/2 -29/4/2 -26/4/2
f -28/4/2 -27/4/2 -26/4/2
f -31/4/2 -30/4/2 -26/4/2
f -32/4/2 -31/4/2 -26/4/2
f -40/4/2 -32/4/2 -26/4/2
f -26/4/2 -27/4/2 -25/4/2
f -25/4/2 -27/4/2 -24/4/2
f -24/4/2 -27/4/2 -23/4/2
f -23/4/2 -27/4/2 -22/4/2
f -27/4/2 -39/4/2 -21/4/2
f -22/4/2 -27/4/2 -21/4/2
f -40/4/2 -26/4/2 -20/4/2
f -26/1/2 -25/1/2 -20/1/2
f -25/4/2 -24/4/2 -19/4/2
f -20/1/2 -25/1/2 -19/1/2
f -24/11/2 -23/11/2 -18/11/2
f -19/4/2 -24/4/2 -18/4/2
f -23/4/2 -22/4/2 -17/4/2
f -18/11/2 -23/11/2 -17/11/2
f -22/5/2 -21/5/2 -16/5/2
f -17/4/2 -22/4/2 -16/4/2
f -21/4/2 -39/4/2 -15/4/2
f -16/5/2 -21/5/2 -15/5/2
f -19/4/2 -18/4/2 -14/4/2
f -17/4/2 -16/4/2 -14/4/2
f -16/4/2 -15/4/2 -14/4/2
f -20/4/2 -19/4/2 -14/4/2
f -40/4/2 -20/4/2 -14/4/2
f -18/4/2 -17/4/2 -14/4/2
f -14/4/2 -15/4/2 -13/4/2
f -13/4/2 -15/4/2 -12/4/2
f -12/4/2 -15/4/2 -11/4/2
f -11/4/2 -15/4/2 -10/4/2
f -15/4/2 -39/4/2 -9/4/2
f -10/4/2 -15/4/2 -9/4/2
f -40/4/2 -14/4/2 -8/4/2
f -14/8/2 -13/8/2 -8/8/2
f -13/4/2 -12/4/2 -7/4/2
f -8/8/2 -13/8/2 -7/8/2
f -12/7/2 -11/7/2 -6/7/2
f -7/4/2 -12/4/2 -6/4/2
f -11/4/2 -10/4/2 -5/4/2
f -6/7/2 -11/7/2 -5/7/2
f -10/10/2 -9/10/2 -4/10/2
f -5/4/2 -10/4/2 -4/4/2
f -9/4/2 -39/4/2 -3/4/2
f -4/10/2 -9/10/2 -3/10/2
f -7/4/2 -6/4/2 -2/4/2
f -5/4/2 -4/4/2 -2/4/2
f -4/4/2 -3/4/2 -2/4/2
f -8/4/2 -7/4/2 -2/4/2
f -40/4/2 -8/4/2 -2/4/2
f -6/4/2 -5/4/2 -2/4/2
f -3/4/2 -39/4/2 -1/4/2
f -2/4/2 -3/4/2 -1/4/2
v -9 0 9
v -9 16 9
v -8 1 9
v -8 5 9
v -8 6 9
v -8 10 9
v -8 11 9
v -8 15 9
v -4 1 9
v -4 5 9
v -4 6 9
v -4 10 9
v -4 11 9
v -4 15 9
v -3 1 9
v -3 5 9
v -3 6 9
v -3 10 9
v -3 11 9
v -3 15 9
v 1 1 9
v 1 5 9
v 1 6 9
v 1 10 9
v 1 11 9
v 1 15 9
v 2 1 9
v 2 5 9
v 2 6 9
v 2 10 9
v 2 11 9
v 2 15 9
v 6 1 9
v 6 5 9
v 6 6 9
v 6 10 9
v 6 11 9
v 6 15 9
v 7 0 9
v 7 16 9
f -38/4/3 -39/4/3 -40/4/3
f -37/4/3 -39/4/3 -38/4/3
f -36/4/3 -39/4/3 -37/4/3
f -35/4/3 -39/4/3 -36/4/3
f -34/4/3 -39/4/3 -35/4/3
f -33/4/3 -39/4/3 -34/4/3
f -32/4/3 -38/4/3 -40/4/3
f -32/6/3 -37/6/3 -38/6/3
f -31/4/3 -36/4/3 -37/4/3
f -31/6/3 -37/6/3 -32/6/3
f -30/2/3 -35/2/3 -36/2/3
f -30/4/3 -36/4/3 -31/4/3
f -29/4/3 -34/4/3 -35/4/3
f -29/2/3 -35/2/3 -30/2/3
f -28/11/3 -33/11/3 -34/11/3
f -28/4/3 -34/4/3 -29/4/3
f -27/4/3 -39/4/3 -33/4/3
f -27/11/3 -33/11/3 -28/11/3
f -26/4/3 -28/4/3 -29/4/3
f -26/4/3 -29/4/3 -30/4/3
f -26/4/3 -27/4/3 -28/4/3
f -26/4/3 -30/4/3 -31/4/3
f -26/4/3 -31/4/3 -32/4/3
f -26/4/3 -32/4/3 -40/4/3
f -25/4/3 -27/4/3 -26/4/3
f -24/4/3 -27/4/3 -25/4/3
f -23/4/3 -27/4/3 -24/4/3
f -22/4/3 -27/4/3 -23/4/3
f -21/4/3 -39/4/3 -27/4/3
f -21/4/3 -27/4/3 -22/4/3
f -20/4/3 -26/4/3 -40/4/3
f -20/9/3 -25/9/3 -26/9/3
f -19/4/3 -24/4/3 -25/4/3
f -19/9/3 -25/9/3 -20/9/3
f -18/5/3 -23/5/3 -24/5/3
f -18/4/3 -24/4/3 -19/4/3
f -17/4/3 -22/4/3 -23/4/3
f -17/5/3 -23/5/3 -18/5/3
f -16/8/3 -21/8/3 -22/8/3
f -16/4/3 -22/4/3 -17/4/3
f -15/4/3 -39/4/3 -21/4/3
f -15/8/3 -21/8/3 -16/8/3
f -14/4/3 -18/4/3 -19/4/3
f -14/4/3 -16/4/3 -17/4/3
f -14/4/3 -15/4/3 -16/4/3
f -14/4/3 -19/4/3 -20/4/3
f -14/4/3 -20/4/3 -40/4/3
f -14/4/3 -17/4/3 -18/4/3
f -13/4/3 -15/4/3 -14/4/3
f -12/4/3 -15/4/3 -13/4/3
f -11/4/3 -15/4/3 -12/4/3
f -10/4/3 -15/4/3 -11/4/3
f -9/4/3 -39/4/3 -15/4/3
f -9/4/3 -15/4/3 -10/4/3
f -8/4/3 -14/4/3 -40/4/3
f -8/10/3 -13/10/3 -14/10/3
f -7/4/3 -12/4/3 -13/4/3
f -7/10/3 -13/10/3 -8/10/3
f -6/7/3 -11/7/3 -12/7/3
f -6/4/3 -12/4/3 -7/4/3
f -5/4/3 -10/4/3 -11/4/3
f -5/7/3 -11/7/3 -6/7/3
f -4/1/3 -9/1/3 -10/1/3
f -4/4/3 -10/4/3 -5/4/3
f -3/4/3 -39/4/3 -9/4/3
f -3/1/3 -9/1/3 -4/1/3
f -2/4/3 -6/4/3 -7/4/3
f -2/4/3 -4/4/3 -5/4/3
f -2/4/3 -3/4/3 -4/4/3
f -2/4/3 -7/4/3 -8/4/3
f -2/4/3 -8/4/3 -40/4/3
f -2/4/3 -5/4/3 -6/4/3
f -1/4/3 -39/4/3 -3/4/3
f -1/4/3 -3/4/3 -2/4/3
v -9 0 -7
v -9 16 -7
v -8 1 -7
v -8 5 -7
v -8 6 -7
v -8 10 -7
v -8 11 -7
v -8 15 -7
v -4 1 -7
v -4 5 -7
v -4 6 -7
v -4 10 -7
v -4 11 -7
v -4 15 -7
v -3 1 -7
v -3 5 -7
v -3 6 -7
v -3 10 -7
v -3 11 -7
v -3 15 -7
v 1 1 -7
v 1 5 -7
v 1 6 -7
v 1 10 -7
v 1 11 -7
v 1 15 -7
v 2 1 -7
v 2 5 -7
v 2 6 -7
v 2 10 -7
v 2 11 -7
v 2 15 -7
v 6 1 -7
v 6 5 -7
v 6 6 -7
v 6 10 -7
v 6 11 -7
v 6 15 -7
v 7 0 -7
v 7 16 -7
f -40/4/4 -39/4/4 -38/4/4
f -38/4/4 -39/4/4 -37/4/4
f -37/4/4 -39/4/4 -36/4/4
f -36/4/4 -39/4/4 -35/4/4
f -35/4/4 -39/4/4 -34/4/4
f -34/4/4 -39/4/4 -33/4/4
f -40/4/4 -38/4/4 -32/4/4
f -38/8/4 -37/8/4 -32/8/4
f -37/4/4 -36/4/4 -31/4/4
f -32/8/4 -37/8/4 -31/8/4
f -36/2/4 -35/2/4 -30/2/4
f -31/4/4 -36/4/4 -30/4/4
f -35/4/4 -34/4/4 -29/4/4
f -30/2/4 -35/2/4 -29/2/4
f -34/11/4 -33/11/4 -28/11/4
f -29/4/4 -34/4/4 -28/4/4
f -33/4/4 -39/4/4 -27/4/4
f -28/11/4 -33/11/4 -27/11/4
f -29/4/4 -28/4/4 -26/4/4
f -30/4/4 -29/4/4 -26/4/4
f -28/4/4 -27/4/4 -26/4/4
f -31/4/4 -30/4/4 -26/4/4
f -32/4/4 -31/4/4 -26/4/4
f -40/4/4 -32/4/4 -26/4/4
f -26/4/4 -27/4/4 -25/4/4
f -25/4/4 -27/4/4 -24/4/4
f -24/4/4 -27/4/4 -23/4/4
f -23/4/4 -27/4/4 -22/4/4
f -27/4/4 -39/4/4 -21/4/4
f -22/4/4 -27/4/4 -21/4/4
f -40/4/4 -26/4/4 -20/4/4
f -26/7/4 -25/7/4 -20/7/4
f -25/4/4 -24/4/4 -19/4/4
f -20/7/4 -25/7/4 -19/7/4
f -24/6/4 -23/6/4 -18/6/4
f -19/4/4 -24/4/4 -18/4/4
f -23/4/4 -22/4/4 -17/4/4
f -18/6/4 -23/6/4 -17/6/4
f -22/1/4 -21/1/4 -16/1/4
f -17/4/4 -22/4/4 -16/4/4
f -21/4/4 -39/4/4 -15/4/4
f -16/1/4 -21/1/4 -15/1/4
f -19/4/4 -18/4/4 -14/4/4
f -17/4/4 -16/4/4 -14/4/4
f -16/4/4 -15/4/4 -14/4/4
f -20/4/4 -19/4/4 -14/4/4
f -40/4/4 -20/4/4 -14/4/4
f -18/4/4 -17/4/4 -14/4/4
f -14/4/4 -15/4/4 -13/4/4
f -13/4/4 -15/4/4 -12/4/4
f -12/4/4 -15/4/4 -11/4/4
f -11/4/4 -15/4/4 -10/4/4
f -15/4/4 -39/4/4 -9/4/4
f -10/4/4 -15/4/4 -9/4/4
f -40/4/4 -14/4/4 -8/4/4
f -14/5/4 -13/5/4 -8/5/4
f -13/4/4 -12/4/4 -7/4/4
f -8/5/4 -13/5/4 -7/5/4
f -12/10/4 -11/10/4 -6/10/4
f -7/4/4 -12/4/4 -6/4/4
f -11/4/4 -10/4/4 -5/4/4
f -6/10/4 -11/10/4 -5/10/4
f -10/9/4 -9/9/4 -4/9/4
f -5/4/4 -10/4/4 -4/4/4
f -9/4/4 -39/4/4 -3/4/4
f -4/9/4 -9/9/4 -3/9/4
f -7/4/4 -6/4/4 -2/4/4
f -5/4/4 -4/4/4 -2/4/4
f -4/4/4 -3/4/4 -2/4/4
f -8/4/4 -7/4/4 -2/4/4
f -40/4/4 -8/4/4 -2/4/4
f -6/4/4 -5/4/4 -2/4/4
f -3/4/4 -39/4/4 -1/4/4
f -2/4/4 -3/4/4 -1/4/4
v -9 0 9
v 7 0 9
v -8 0 8
v -4 0 8
v -3 0 8
v 1 0 8
v 2 0 8
v 6 0 8
v -8 0 4
v -4 0 4
v -3 0 4
v 1 0 4
v 2 0 4
v 6 0 4
v -8 0 3
v -4 0 3
v -3 0 3
v 1 0 3
v 2 0 3
v 6 0 3
v -8 0 -1
v -4 0 -1
v -3 0 -1
v 1 0 -1
v 2 0 -1
v 6 0 -1
v -8 0 -2
v -4 0 -2
v -3 0 -2
v 1 0 -2
v 2 0 -2
v 6 0 -2
v -8 0 -6
v -4 0 -6
v -3 0 -6
v 1 0 -6
v 2 0 -6
v 6 0 -6
v -9 0 -7
v 7 0 -7
f -38/4/5 -39/4/5 -40/4/5
f -37/4/5 -39/4/5 -38/4/5
f -36/4/5 -39/4/5 -37/4/5
f -35/4/5 -39/4/5 -36/4/5
f -34/4/5 -39/4/5 -35/4/5
f -33/4/5 -39/4/5 -34/4/5
f -32/4/5 -38/4/5 -40/4/5
f -32/10/5 -37/10/5 -38/10/5
f -31/4/5 -36/4/5 -37/4/5
f -31/10/5 -37/10/5 -32/10/5
f -30/8/5 -35/8/5 -36/8/5
f -30/4/5 -36/4/5 -31/4/5
f -29/4/5 -34/4/5 -35/4/5
f -29/8/5 -35/8/5 -30/8/5
f -28/7/5 -33/7/5 -34/7/5
f -28/4/5 -34/4/5 -29/4/5
f -27/4/5 -39/4/5 -33/4/5
f -27/7/5 -33/7/5 -28/7/5
f -26/4/5 -28/4/5 -29/4/5
f -26/4/5 -29/4/5 -30/4/5
f -26/4/5 -27/4/5 -28/4/5
f -26/4/5 -30/4/5 -31/4/5
f -26/4/5 -31/4/5 -32/4/5
f -26/4/5 -32/4/5 -40/4/5
f -25/4/5 -27/4/5 -26/4/5
f -24/4/5 -27/4/5 -25/4/5
f -23/4/5 -27/4/5 -24/4/5
f -22/4/5 -27/4/5 -23/4/5
f -21/4/5 -39/4/5 -27/4/5
f -21/4/5 -27/4/5 -22/4/5
f -20/4/5 -26/4/5 -40/4/5
f -20/5/5 -25/5/5 -26/5/5
f -19/4/5 -24/4/5 -25/4/5
f -19/5/5 -25/5/5 -20/5/5
f -18/11/5 -23/11/5 -24/11/5
f -18/4/5 -24/4/5 -19/4/5
f -17/4/5 -22/4/5 -23/4/5
f -17/11/5 -23/11/5 -18/11/5
f -16/6/5 -21/6/5 -22/6/5
f -16/4/5 -22/4/5 -17/4/5
f -15/4/5 -39/4/5 -21/4/5
f -15/6/5 -21/6/5 -16/6/5
f -14/4/5 -18/4/5 -19/4/5
f -14/4/5 -16/4/5 -17/4/5
f -14/4/5 -15/4/5 -16/4/5
f -14/4/5 -19/4/5 -20/4/5
f -14/4/5 -20/4/5 -40/4/5
f -14/4/5 -17/4/5 -18/4/5
f -13/4/5 -15/4/5 -14/4/5
f -12/4/5 -15/4/5 -13/4/5
f -11/4/5 -15/4/5 -12/4/5
f -10/4/5 -15/4/5 -11/4/5
f -9/4/5 -39/4/5 -15/4/5
f -9/4/5 -15/4/5 -10/4/5
f -8/4/5 -14/4/5 -40/4/5
f -8/9/5 -13/9/5 -14/9/5
f -7/4/5 -12/4/5 -13/4/5
f -7/9/5 -13/9/5 -8/9/5
f -6/1/5 -11/1/5 -12/1/5
f -6/4/5 -12/4/5 -7/4/5
f -5/4/5 -10/4/5 -11/4/5
f -5/1/5 -11/1/5 -6/1/5
f -4/2/5 -9/2/5 -10/2/5
f -4/4/5 -10/4/5 -5/4/5
f -3/4/5 -39/4/5 -9/4/5
f -3/2/5 -9/2/5 -4/2/5
f -2/4/5 -6/4/5 -7/4/5
f -2/4/5 -4/4/5 -5/4/5
f -2/4/5 -3/4/5 -4/4/5
f -2/4/5 -7/4/5 -8/4/5
f -2/4/5 -8/4/5 -40/4/5
f -2/4/5 -5/4/5 -6/4/5
f -1/4/5 -39/4/5 -3/4/5
f -1/4/5 -3/4/5 -2/4/5
v -9 16 9
v 7 16 9
v -8 16 8
v -4 16 8
v -3 16 8
v 1 16 8
v 2 16 8
v 6 16 8
v -8 16 4
v -4 16 4
v -3 16 4
v 1 16 4
v 2 16 4
v 6 16 4
v -8 16 3
v -4 16 3
v -3 16 3
v 1 16 3
v 2 16 3
v 6 16 3
v -8 16 -1
v -4 16 -1
v -3 16 -1
v 1 16 -1
v 2 16 -1
v 6 16 -1
v -8 16 -2
v -4 16 -2
v -3 16 -2
v 1 16 -2
v 2 16 -2
v 6 16 -2
v -8 16 -6
v -4 16 -6
v -3 16 -6
v 1 16 -6
v 2 16 -6
v 6 16 -6
v -9 16 -7
v 7 16 -7
f -40/4/6 -39/4/6 -38/4/6
f -38/4/6 -39/4/6 -37/4/6
f -37/4/6 -39/4/6 -36/4/6
f -36/4/6 -39/4/6 -35/4/6
f -35/4/6 -39/4/6 -34/4/6
f -34/4/6 -39/4/6 -33/4/6
f -40/4/6 -38/4/6 -32/4/6
f -38/8/6 -37/8/6 -32/8/6
f -37/4/6 -36/4/6 -31/4/6
f -32/8/6 -37/8/6 -31/8/6
f -36/1/6 -35/1/6 -30/1/6
f -31/4/6 -36/4/6 -30/4/6
f -35/4/6 -34/4/6 -29/4/6
f -30/1/6 -35/1/6 -29/1/6
f -34/9/6 -33/9/6 -28/9/6
f -29/4/6 -34/4/6 -28/4/6
f -33/4/6 -39/4/6 -27/4/6
f -28/9/6 -33/9/6 -27/9/6
f -29/4/6 -28/4/6 -26/4/6
f -30/4/6 -29/4/6 -26/4/6
f -28/4/6 -27/4/6 -26/4/6
f -31/4/6 -30/4/6 -26/4/6
f -32/4/6 -31/4/6 -26/4/6
f -40/4/6 -32/4/6 -26/4/6
f -26/4/6 -27/4/6 -25/4/6
f -25/4/6 -27/4/6 -24/4/6
f -24/4/6 -27/4/6 -23/4/6
f -23/4/6 -27/4/6 -22/4/6
f -27/4/6 -39/4/6 -21/4/6
f -22/4/6 -27/4/6 -21/4/6
f -40/4/6 -26/4/6 -20/4/6
f -26/6/6 -25/6/6 -20/6/6
f -25/4/6 -24/4/6 -19/4/6
f -20/6/6 -25/6/6 -19/6/6
f -24/7/6 -23/7/6 -18/7/6
f -19/4/6 -24/4/6 -18/4/6
f -23/4/6 -22/4/6 -17/4/6
f -18/7/6 -23/7/6 -17/7/6
f -22/5/6 -21/5/6 -16/5/6
f -17/4/6 -22/4/6 -16/4/6
f -21/4/6 -39/4/6 -15/4/6
f -16/5/6 -21/5/6 -15/5/6
f -19/4/6 -18/4/6 -14/4/6
f -17/4/6 -16/4/6 -14/4/6
f -16/4/6 -15/4/6 -14/4/6
f -20/4/6 -19/4/6 -14/4/6
f -40/4/6 -20/4/6 -14/4/6
f -18/4/6 -17/4/6 -14/4/6
f -14/4/6 -15/4/6 -13/4/6
f -13/4/6 -15/4/6 -12/4/6
f -12/4/6 -15/4/6 -11/4/6
f -11/4/6 -15/4/6 -10/4/6
f -15/4/6 -39/4/6 -9/4/6
f -10/4/6 -15/4/6 -9/4/6
f -40/4/6 -14/4/6 -8/4/6
f -14/2/6 -13/2/6 -8/2/6
f -13/4/6 -12/4/6 -7/4/6
f -8/2/6 -13/2/6 -7/2/6
f -12/11/6 -11/11/6 -6/11/6
f -7/4/6 -12/4/6 -6/4/6
f -11/4/6 -10/4/6 -5/4/6
f -6/11/6 -11/11/6 -5/11/6
f -10/10/6 -9/10/6 -4/10/6
f -5/4/6 -10/4/6 -4/4/6
f -9/4/6 -39/4/6 -3/4/6
f -4/10/6 -9/10/6 -3/10/6
f -7/4/6 -6/4/6 -2/4/6
f -5/4/6 -4/4/6 -2/4/6
f -4/4/6 -3/4/6 -2/4/6
f -8/4/6 -7/4/6 -2/4/6
f -40/4/6 -8/4/6 -2/4/6
f -6/4/6 -5/4/6 -2/4/6
f -3/4/6 -39/4/6 -1/4/6
f -2/4/6 -3/4/6 -1/4/6
