# MagicaVoxel @ ephtracy

# material
mtllib heart.mtl

# normals
vn -1 0 0
vn 1 0 0
vn 0 0 1
vn 0 0 -1
vn 0 -1 0
vn 0 1 0

# texcoords
vt 0.00976562 0.5

# verts
v -6 4 1.5
v -6 4 0.5
v -6 5 2.5
v -6 5 1.5
v -6 5 0.5
v -6 5 -0.5
v -6 6 2.5
v -6 6 1.5
v -6 6 0.5
v -6 6 -0.5
v -6 7 1.5
v -6 7 0.5
f -9/1/1 -11/1/1 -12/1/1
f -8/1/1 -11/1/1 -9/1/1
f -6/1/1 -9/1/1 -10/1/1
f -6/1/1 -7/1/1 -8/1/1
f -6/1/1 -8/1/1 -9/1/1
f -5/1/1 -7/1/1 -6/1/1
f -4/1/1 -7/1/1 -5/1/1
f -3/1/1 -7/1/1 -4/1/1
f -2/1/1 -4/1/1 -5/1/1
f -1/1/1 -4/1/1 -2/1/1
v -5 3 1.5
v -5 3 0.5
v -5 4 2.5
v -5 4 1.5
v -5 4 0.5
v -5 4 -0.5
v -5 5 2.5
v -5 5 1.5
v -5 5 0.5
v -5 5 -0.5
v -5 6 2.5
v -5 6 1.5
v -5 6 0.5
v -5 6 -0.5
v -5 7 2.5
v -5 7 1.5
v -5 7 0.5
v -5 7 -0.5
v -5 8 1.5
v -5 8 0.5
f -17/1/1 -19/1/1 -20/1/1
f -16/1/1 -19/1/1 -17/1/1
f -14/1/1 -17/1/1 -18/1/1
f -13/1/1 -17/1/1 -14/1/1
f -12/1/1 -15/1/1 -16/1/1
f -11/1/1 -15/1/1 -12/1/1
f -6/1/1 -9/1/1 -10/1/1
f -5/1/1 -9/1/1 -6/1/1
f -4/1/1 -7/1/1 -8/1/1
f -3/1/1 -7/1/1 -4/1/1
f -2/1/1 -4/1/1 -5/1/1
f -1/1/1 -4/1/1 -2/1/1
v -4 2 1.5
v -4 2 0.5
v -4 3 2.5
v -4 3 1.5
v -4 3 0.5
v -4 3 -0.5
v -4 4 2.5
v -4 4 1.5
v -4 4 0.5
v -4 4 -0.5
v -4 7 2.5
v -4 7 1.5
v -4 7 0.5
v -4 7 -0.5
v -4 8 2.5
v -4 8 1.5
v -4 8 0.5
v -4 8 -0.5
f -15/1/1 -17/1/1 -18/1/1
f -14/1/1 -17/1/1 -15/1/1
f -12/1/1 -15/1/1 -16/1/1
f -11/1/1 -15/1/1 -12/1/1
f -10/1/1 -13/1/1 -14/1/1
f -9/1/1 -13/1/1 -10/1/1
f -4/1/1 -7/1/1 -8/1/1
f -3/1/1 -7/1/1 -4/1/1
f -2/1/1 -5/1/1 -6/1/1
f -1/1/1 -5/1/1 -2/1/1
v -3 1 1.5
v -3 1 0.5
v -3 2 2.5
v -3 2 1.5
v -3 2 0.5
v -3 2 -0.5
v -3 3 2.5
v -3 3 1.5
v -3 3 0.5
v -3 3 -0.5
f -7/1/1 -9/1/1 -10/1/1
f -6/1/1 -9/1/1 -7/1/1
f -4/1/1 -7/1/1 -8/1/1
f -3/1/1 -7/1/1 -4/1/1
f -2/1/1 -5/1/1 -6/1/1
f -1/1/1 -5/1/1 -2/1/1
v -2 0 1.5
v -2 0 0.5
v -2 1 2.5
v -2 1 1.5
v -2 1 0.5
v -2 1 -0.5
v -2 2 2.5
v -2 2 1.5
v -2 2 0.5
v -2 2 -0.5
f -7/1/1 -9/1/1 -10/1/1
f -6/1/1 -9/1/1 -7/1/1
f -4/1/1 -7/1/1 -8/1/1
f -3/1/1 -7/1/1 -4/1/1
f -2/1/1 -5/1/1 -6/1/1
f -1/1/1 -5/1/1 -2/1/1
v 0 6 2.5
v 0 6 -0.5
v 0 7 2.5
v 0 7 -0.5
f -2/1/1 -3/1/1 -4/1/1
f -1/1/1 -3/1/1 -2/1/1
v 1 7 2.5
v 1 7 -0.5
v 1 8 2.5
v 1 8 -0.5
f -2/1/1 -3/1/1 -4/1/1
f -1/1/1 -3/1/1 -2/1/1
v -3 7 2.5
v -3 7 -0.5
v -3 8 2.5
v -3 8 -0.5
f -4/1/2 -3/1/2 -2/1/2
f -2/1/2 -3/1/2 -1/1/2
v -2 6 2.5
v -2 6 -0.5
v -2 7 2.5
v -2 7 -0.5
f -4/1/2 -3/1/2 -2/1/2
f -2/1/2 -3/1/2 -1/1/2
v 0 0 1.5
v 0 0 0.5
v 0 1 2.5
v 0 1 1.5
v 0 1 0.5
v 0 1 -0.5
v 0 2 2.5
v 0 2 1.5
v 0 2 0.5
v 0 2 -0.5
f -10/1/2 -9/1/2 -7/1/2
f -7/1/2 -9/1/2 -6/1/2
f -8/1/2 -7/1/2 -4/1/2
f -4/1/2 -7/1/2 -3/1/2
f -6/1/2 -5/1/2 -2/1/2
f -2/1/2 -5/1/2 -1/1/2
v 1 1 1.5
v 1 1 0.5
v 1 2 2.5
v 1 2 1.5
v 1 2 0.5
v 1 2 -0.5
v 1 3 2.5
v 1 3 1.5
v 1 3 0.5
v 1 3 -0.5
f -10/1/2 -9/1/2 -7/1/2
f -7/1/2 -9/1/2 -6/1/2
f -8/1/2 -7/1/2 -4/1/2
f -4/1/2 -7/1/2 -3/1/2
f -6/1/2 -5/1/2 -2/1/2
f -2/1/2 -5/1/2 -1/1/2
v 2 2 1.5
v 2 2 0.5
v 2 3 2.5
v 2 3 1.5
v 2 3 0.5
v 2 3 -0.5
v 2 4 2.5
v 2 4 1.5
v 2 4 0.5
v 2 4 -0.5
v 2 7 2.5
v 2 7 1.5
v 2 7 0.5
v 2 7 -0.5
v 2 8 2.5
v 2 8 1.5
v 2 8 0.5
v 2 8 -0.5
f -18/1/2 -17/1/2 -15/1/2
f -15/1/2 -17/1/2 -14/1/2
f -16/1/2 -15/1/2 -12/1/2
f -12/1/2 -15/1/2 -11/1/2
f -14/1/2 -13/1/2 -10/1/2
f -10/1/2 -13/1/2 -9/1/2
f -8/1/2 -7/1/2 -4/1/2
f -4/1/2 -7/1/2 -3/1/2
f -6/1/2 -5/1/2 -2/1/2
f -2/1/2 -5/1/2 -1/1/2
v 3 3 1.5
v 3 3 0.5
v 3 4 2.5
v 3 4 1.5
v 3 4 0.5
v 3 4 -0.5
v 3 5 2.5
v 3 5 1.5
v 3 5 0.5
v 3 5 -0.5
v 3 6 2.5
v 3 6 1.5
v 3 6 0.5
v 3 6 -0.5
v 3 7 2.5
v 3 7 1.5
v 3 7 0.5
v 3 7 -0.5
v 3 8 1.5
v 3 8 0.5
f -20/1/2 -19/1/2 -17/1/2
f -17/1/2 -19/1/2 -16/1/2
f -18/1/2 -17/1/2 -14/1/2
f -14/1/2 -17/1/2 -13/1/2
f -16/1/2 -15/1/2 -12/1/2
f -12/1/2 -15/1/2 -11/1/2
f -10/1/2 -9/1/2 -6/1/2
f -6/1/2 -9/1/2 -5/1/2
f -8/1/2 -7/1/2 -4/1/2
f -4/1/2 -7/1/2 -3/1/2
f -5/1/2 -4/1/2 -2/1/2
f -2/1/2 -4/1/2 -1/1/2
v 4 4 1.5
v 4 4 0.5
v 4 5 2.5
v 4 5 1.5
v 4 5 0.5
v 4 5 -0.5
v 4 6 2.5
v 4 6 1.5
v 4 6 0.5
v 4 6 -0.5
v 4 7 1.5
v 4 7 0.5
f -12/1/2 -11/1/2 -9/1/2
f -9/1/2 -11/1/2 -8/1/2
f -10/1/2 -9/1/2 -6/1/2
f -8/1/2 -7/1/2 -6/1/2
f -9/1/2 -8/1/2 -6/1/2
f -6/1/2 -7/1/2 -5/1/2
f -5/1/2 -7/1/2 -4/1/2
f -4/1/2 -7/1/2 -3/1/2
f -5/1/2 -4/1/2 -2/1/2
f -2/1/2 -4/1/2 -1/1/2
v -6 5 2.5
v -6 6 2.5
v -5 4 2.5
v -5 5 2.5
v -5 6 2.5
v -5 7 2.5
v -4 3 2.5
v -4 4 2.5
v -4 7 2.5
v -4 8 2.5
v -3 2 2.5
v -3 3 2.5
v -3 7 2.5
v -3 8 2.5
v -2 1 2.5
v -2 2 2.5
v -2 6 2.5
v -2 7 2.5
v 0 1 2.5
v 0 2 2.5
v 0 6 2.5
v 0 7 2.5
v 1 2 2.5
v 1 3 2.5
v 1 7 2.5
v 1 8 2.5
v 2 3 2.5
v 2 4 2.5
v 2 7 2.5
v 2 8 2.5
v 3 4 2.5
v 3 5 2.5
v 3 6 2.5
v 3 7 2.5
v 4 5 2.5
v 4 6 2.5
f -33/1/3 -35/1/3 -36/1/3
f -32/1/3 -35/1/3 -33/1/3
f -29/1/3 -33/1/3 -34/1/3
f -29/1/3 -31/1/3 -32/1/3
f -29/1/3 -32/1/3 -33/1/3
f -28/1/3 -31/1/3 -29/1/3
f -25/1/3 -29/1/3 -30/1/3
f -25/1/3 -27/1/3 -28/1/3
f -25/1/3 -28/1/3 -29/1/3
f -24/1/3 -27/1/3 -25/1/3
f -23/1/3 -27/1/3 -24/1/3
f -21/1/3 -25/1/3 -26/1/3
f -21/1/3 -24/1/3 -25/1/3
f -20/1/3 -24/1/3 -21/1/3
f -19/1/3 -24/1/3 -20/1/3
f -18/1/3 -21/1/3 -22/1/3
f -18/1/3 -20/1/3 -21/1/3
f -17/1/3 -20/1/3 -18/1/3
f -16/1/3 -20/1/3 -17/1/3
f -14/1/3 -15/1/3 -16/1/3
f -14/1/3 -16/1/3 -17/1/3
f -13/1/3 -15/1/3 -14/1/3
f -12/1/3 -15/1/3 -13/1/3
f -10/1/3 -12/1/3 -13/1/3
f -10/1/3 -11/1/3 -12/1/3
f -9/1/3 -11/1/3 -10/1/3
f -8/1/3 -11/1/3 -9/1/3
f -7/1/3 -11/1/3 -8/1/3
f -6/1/3 -8/1/3 -9/1/3
f -5/1/3 -8/1/3 -6/1/3
f -4/1/3 -8/1/3 -5/1/3
f -3/1/3 -8/1/3 -4/1/3
f -2/1/3 -4/1/3 -5/1/3
f -1/1/3 -4/1/3 -2/1/3
v -6 4 1.5
v -6 5 1.5
v -6 6 1.5
v -6 7 1.5
v -5 3 1.5
v -5 4 1.5
v -5 5 1.5
v -5 6 1.5
v -5 7 1.5
v -5 8 1.5
v -4 2 1.5
v -4 3 1.5
v -4 4 1.5
v -4 7 1.5
v -4 8 1.5
v -3 1 1.5
v -3 2 1.5
v -3 3 1.5
v -2 0 1.5
v -2 1 1.5
v -2 2 1.5
v 0 0 1.5
v 0 1 1.5
v 0 2 1.5
v 1 1 1.5
v 1 2 1.5
v 1 3 1.5
v 2 2 1.5
v 2 3 1.5
v 2 4 1.5
v 2 7 1.5
v 2 8 1.5
v 3 3 1.5
v 3 4 1.5
v 3 5 1.5
v 3 6 1.5
v 3 7 1.5
v 3 8 1.5
v 4 4 1.5
v 4 5 1.5
v 4 6 1.5
v 4 7 1.5
f -37/1/3 -41/1/3 -42/1/3
f -36/1/3 -41/1/3 -37/1/3
f -35/1/3 -39/1/3 -40/1/3
f -34/1/3 -39/1/3 -35/1/3
f -31/1/3 -37/1/3 -38/1/3
f -30/1/3 -37/1/3 -31/1/3
f -29/1/3 -33/1/3 -34/1/3
f -28/1/3 -33/1/3 -29/1/3
f -26/1/3 -31/1/3 -32/1/3
f -25/1/3 -31/1/3 -26/1/3
f -23/1/3 -26/1/3 -27/1/3
f -22/1/3 -26/1/3 -23/1/3
f -21/1/3 -23/1/3 -24/1/3
f -20/1/3 -23/1/3 -21/1/3
f -18/1/3 -19/1/3 -20/1/3
f -17/1/3 -19/1/3 -18/1/3
f -15/1/3 -16/1/3 -17/1/3
f -14/1/3 -16/1/3 -15/1/3
f -10/1/3 -13/1/3 -14/1/3
f -9/1/3 -13/1/3 -10/1/3
f -6/1/3 -11/1/3 -12/1/3
f -5/1/3 -11/1/3 -6/1/3
f -4/1/3 -8/1/3 -9/1/3
f -3/1/3 -8/1/3 -4/1/3
f -2/1/3 -6/1/3 -7/1/3
f -1/1/3 -6/1/3 -2/1/3
v -6 4 0.5
v -6 5 0.5
v -6 6 0.5
v -6 7 0.5
v -5 3 0.5
v -5 4 0.5
v -5 5 0.5
v -5 6 0.5
v -5 7 0.5
v -5 8 0.5
v -4 2 0.5
v -4 3 0.5
v -4 4 0.5
v -4 7 0.5
v -4 8 0.5
v -3 1 0.5
v -3 2 0.5
v -3 3 0.5
v -2 0 0.5
v -2 1 0.5
v -2 2 0.5
v 0 0 0.5
v 0 1 0.5
v 0 2 0.5
v 1 1 0.5
v 1 2 0.5
v 1 3 0.5
v 2 2 0.5
v 2 3 0.5
v 2 4 0.5
v 2 7 0.5
v 2 8 0.5
v 3 3 0.5
v 3 4 0.5
v 3 5 0.5
v 3 6 0.5
v 3 7 0.5
v 3 8 0.5
v 4 4 0.5
v 4 5 0.5
v 4 6 0.5
v 4 7 0.5
f -42/1/4 -41/1/4 -37/1/4
f -37/1/4 -41/1/4 -36/1/4
f -40/1/4 -39/1/4 -35/1/4
f -35/1/4 -39/1/4 -34/1/4
f -38/1/4 -37/1/4 -31/1/4
f -31/1/4 -37/1/4 -30/1/4
f -34/1/4 -33/1/4 -29/1/4
f -29/1/4 -33/1/4 -28/1/4
f -32/1/4 -31/1/4 -26/1/4
f -26/1/4 -31/1/4 -25/1/4
f -27/1/4 -26/1/4 -23/1/4
f -23/1/4 -26/1/4 -22/1/4
f -24/1/4 -23/1/4 -21/1/4
f -21/1/4 -23/1/4 -20/1/4
f -20/1/4 -19/1/4 -18/1/4
f -18/1/4 -19/1/4 -17/1/4
f -17/1/4 -16/1/4 -15/1/4
f -15/1/4 -16/1/4 -14/1/4
f -14/1/4 -13/1/4 -10/1/4
f -10/1/4 -13/1/4 -9/1/4
f -12/1/4 -11/1/4 -6/1/4
f -6/1/4 -11/1/4 -5/1/4
f -9/1/4 -8/1/4 -4/1/4
f -4/1/4 -8/1/4 -3/1/4
f -7/1/4 -6/1/4 -2/1/4
f -2/1/4 -6/1/4 -1/1/4
v -6 5 -0.5
v -6 6 -0.5
v -5 4 -0.5
v -5 5 -0.5
v -5 6 -0.5
v -5 7 -0.5
v -4 3 -0.5
v -4 4 -0.5
v -4 7 -0.5
v -4 8 -0.5
v -3 2 -0.5
v -3 3 -0.5
v -3 7 -0.5
v -3 8 -0.5
v -2 1 -0.5
v -2 2 -0.5
v -2 6 -0.5
v -2 7 -0.5
v 0 1 -0.5
v 0 2 -0.5
v 0 6 -0.5
v 0 7 -0.5
v 1 2 -0.5
v 1 3 -0.5
v 1 7 -0.5
v 1 8 -0.5
v 2 3 -0.5
v 2 4 -0.5
v 2 7 -0.5
v 2 8 -0.5
v 3 4 -0.5
v 3 5 -0.5
v 3 6 -0.5
v 3 7 -0.5
v 4 5 -0.5
v 4 6 -0.5
f -36/1/4 -35/1/4 -33/1/4
f -33/1/4 -35/1/4 -32/1/4
f -34/1/4 -33/1/4 -29/1/4
f -32/1/4 -31/1/4 -29/1/4
f -33/1/4 -32/1/4 -29/1/4
f -29/1/4 -31/1/4 -28/1/4
f -30/1/4 -29/1/4 -25/1/4
f -28/1/4 -27/1/4 -25/1/4
f -29/1/4 -28/1/4 -25/1/4
f -25/1/4 -27/1/4 -24/1/4
f -24/1/4 -27/1/4 -23/1/4
f -26/1/4 -25/1/4 -21/1/4
f -25/1/4 -24/1/4 -21/1/4
f -21/1/4 -24/1/4 -20/1/4
f -20/1/4 -24/1/4 -19/1/4
f -22/1/4 -21/1/4 -18/1/4
f -21/1/4 -20/1/4 -18/1/4
f -18/1/4 -20/1/4 -17/1/4
f -17/1/4 -20/1/4 -16/1/4
f -16/1/4 -15/1/4 -14/1/4
f -17/1/4 -16/1/4 -14/1/4
f -14/1/4 -15/1/4 -13/1/4
f -13/1/4 -15/1/4 -12/1/4
f -13/1/4 -12/1/4 -10/1/4
f -12/1/4 -11/1/4 -10/1/4
f -10/1/4 -11/1/4 -9/1/4
f -9/1/4 -11/1/4 -8/1/4
f -8/1/4 -11/1/4 -7/1/4
f -9/1/4 -8/1/4 -6/1/4
f -6/1/4 -8/1/4 -5/1/4
f -5/1/4 -8/1/4 -4/1/4
f -4/1/4 -8/1/4 -3/1/4
f -5/1/4 -4/1/4 -2/1/4
f -2/1/4 -4/1/4 -1/1/4
v -2 0 1.5
v 0 0 1.5
v -2 0 0.5
v 0 0 0.5
f -2/1/5 -3/1/5 -4/1/5
f -1/1/5 -3/1/5 -2/1/5
v -2 1 2.5
v 0 1 2.5
v -3 1 1.5
v -2 1 1.5
v 0 1 1.5
v 1 1 1.5
v -3 1 0.5
v -2 1 0.5
v 0 1 0.5
v 1 1 0.5
v -2 1 -0.5
v 0 1 -0.5
f -9/1/5 -11/1/5 -12/1/5
f -8/1/5 -11/1/5 -9/1/5
f -6/1/5 -9/1/5 -10/1/5
f -5/1/5 -9/1/5 -6/1/5
f -4/1/5 -7/1/5 -8/1/5
f -3/1/5 -7/1/5 -4/1/5
f -2/1/5 -4/1/5 -5/1/5
f -1/1/5 -4/1/5 -2/1/5
v -3 2 2.5
v -2 2 2.5
v 0 2 2.5
v 1 2 2.5
v -4 2 1.5
v -3 2 1.5
v -2 2 1.5
v 0 2 1.5
v 1 2 1.5
v 2 2 1.5
v -4 2 0.5
v -3 2 0.5
v -2 2 0.5
v 0 2 0.5
v 1 2 0.5
v 2 2 0.5
v -3 2 -0.5
v -2 2 -0.5
v 0 2 -0.5
v 1 2 -0.5
f -15/1/5 -19/1/5 -20/1/5
f -14/1/5 -19/1/5 -15/1/5
f -13/1/5 -17/1/5 -18/1/5
f -12/1/5 -17/1/5 -13/1/5
f -10/1/5 -15/1/5 -16/1/5
f -9/1/5 -15/1/5 -10/1/5
f -6/1/5 -11/1/5 -12/1/5
f -5/1/5 -11/1/5 -6/1/5
f -4/1/5 -8/1/5 -9/1/5
f -3/1/5 -8/1/5 -4/1/5
f -2/1/5 -6/1/5 -7/1/5
f -1/1/5 -6/1/5 -2/1/5
v -4 3 2.5
v -3 3 2.5
v 1 3 2.5
v 2 3 2.5
v -5 3 1.5
v -4 3 1.5
v -3 3 1.5
v 1 3 1.5
v 2 3 1.5
v 3 3 1.5
v -5 3 0.5
v -4 3 0.5
v -3 3 0.5
v 1 3 0.5
v 2 3 0.5
v 3 3 0.5
v -4 3 -0.5
v -3 3 -0.5
v 1 3 -0.5
v 2 3 -0.5
f -15/1/5 -19/1/5 -20/1/5
f -14/1/5 -19/1/5 -15/1/5
f -13/1/5 -17/1/5 -18/1/5
f -12/1/5 -17/1/5 -13/1/5
f -10/1/5 -15/1/5 -16/1/5
f -9/1/5 -15/1/5 -10/1/5
f -6/1/5 -11/1/5 -12/1/5
f -5/1/5 -11/1/5 -6/1/5
f -4/1/5 -8/1/5 -9/1/5
f -3/1/5 -8/1/5 -4/1/5
f -2/1/5 -6/1/5 -7/1/5
f -1/1/5 -6/1/5 -2/1/5
v -5 4 2.5
v -4 4 2.5
v 2 4 2.5
v 3 4 2.5
v -6 4 1.5
v -5 4 1.5
v -4 4 1.5
v 2 4 1.5
v 3 4 1.5
v 4 4 1.5
v -6 4 0.5
v -5 4 0.5
v -4 4 0.5
v 2 4 0.5
v 3 4 0.5
v 4 4 0.5
v -5 4 -0.5
v -4 4 -0.5
v 2 4 -0.5
v 3 4 -0.5
f -15/1/5 -19/1/5 -20/1/5
f -14/1/5 -19/1/5 -15/1/5
f -13/1/5 -17/1/5 -18/1/5
f -12/1/5 -17/1/5 -13/1/5
f -10/1/5 -15/1/5 -16/1/5
f -9/1/5 -15/1/5 -10/1/5
f -6/1/5 -11/1/5 -12/1/5
f -5/1/5 -11/1/5 -6/1/5
f -4/1/5 -8/1/5 -9/1/5
f -3/1/5 -8/1/5 -4/1/5
f -2/1/5 -6/1/5 -7/1/5
f -1/1/5 -6/1/5 -2/1/5
v -6 5 2.5
v -5 5 2.5
v 3 5 2.5
v 4 5 2.5
v -6 5 1.5
v -5 5 1.5
v 3 5 1.5
v 4 5 1.5
v -6 5 0.5
v -5 5 0.5
v 3 5 0.5
v 4 5 0.5
v -6 5 -0.5
v -5 5 -0.5
v 3 5 -0.5
v 4 5 -0.5
f -12/1/5 -15/1/5 -16/1/5
f -11/1/5 -15/1/5 -12/1/5
f -10/1/5 -13/1/5 -14/1/5
f -9/1/5 -13/1/5 -10/1/5
f -4/1/5 -7/1/5 -8/1/5
f -3/1/5 -7/1/5 -4/1/5
f -2/1/5 -5/1/5 -6/1/5
f -1/1/5 -5/1/5 -2/1/5
v -6 6 2.5
v -5 6 2.5
v -2 6 2.5
v 0 6 2.5
v 3 6 2.5
v 4 6 2.5
v -6 6 1.5
v -5 6 1.5
v 3 6 1.5
v 4 6 1.5
v -6 6 0.5
v -5 6 0.5
v 3 6 0.5
v 4 6 0.5
v -6 6 -0.5
v -5 6 -0.5
v -2 6 -0.5
v 0 6 -0.5
v 3 6 -0.5
v 4 6 -0.5
f -20/1/6 -19/1/6 -14/1/6
f -14/1/6 -19/1/6 -13/1/6
f -16/1/6 -15/1/6 -12/1/6
f -12/1/6 -15/1/6 -11/1/6
f -10/1/6 -9/1/6 -6/1/6
f -6/1/6 -9/1/6 -5/1/6
f -18/1/6 -17/1/6 -4/1/6
f -4/1/6 -17/1/6 -3/1/6
f -8/1/6 -7/1/6 -2/1/6
f -2/1/6 -7/1/6 -1/1/6
v -5 7 2.5
v -4 7 2.5
v -3 7 2.5
v -2 7 2.5
v 0 7 2.5
v 1 7 2.5
v 2 7 2.5
v 3 7 2.5
v -6 7 1.5
v -5 7 1.5
v -4 7 1.5
v 2 7 1.5
v 3 7 1.5
v 4 7 1.5
v -6 7 0.5
v -5 7 0.5
v -4 7 0.5
v 2 7 0.5
v 3 7 0.5
v 4 7 0.5
v -5 7 -0.5
v -4 7 -0.5
v -3 7 -0.5
v -2 7 -0.5
v 0 7 -0.5
v 1 7 -0.5
v 2 7 -0.5
v 3 7 -0.5
f -28/1/6 -27/1/6 -19/1/6
f -19/1/6 -27/1/6 -18/1/6
f -22/1/6 -21/1/6 -17/1/6
f -17/1/6 -21/1/6 -16/1/6
f -20/1/6 -19/1/6 -14/1/6
f -14/1/6 -19/1/6 -13/1/6
f -16/1/6 -15/1/6 -10/1/6
f -10/1/6 -15/1/6 -9/1/6
f -13/1/6 -12/1/6 -8/1/6
f -8/1/6 -12/1/6 -7/1/6
f -26/1/6 -25/1/6 -6/1/6
f -6/1/6 -25/1/6 -5/1/6
f -24/1/6 -23/1/6 -4/1/6
f -4/1/6 -23/1/6 -3/1/6
f -11/1/6 -10/1/6 -2/1/6
f -2/1/6 -10/1/6 -1/1/6
v -4 8 2.5
v -3 8 2.5
v 1 8 2.5
v 2 8 2.5
v -5 8 1.5
v -4 8 1.5
v 2 8 1.5
v 3 8 1.5
v -5 8 0.5
v -4 8 0.5
v 2 8 0.5
v 3 8 0.5
v -4 8 -0.5
v -3 8 -0.5
v 1 8 -0.5
v 2 8 -0.5
f -16/1/6 -15/1/6 -11/1/6
f -14/1/6 -13/1/6 -10/1/6
f -12/1/6 -11/1/6 -8/1/6
f -11/1/6 -15/1/6 -7/1/6
f -8/1/6 -11/1/6 -7/1/6
f -10/1/6 -9/1/6 -6/1/6
f -14/1/6 -10/1/6 -6/1/6
f -6/1/6 -9/1/6 -5/1/6
f -7/1/6 -15/1/6 -4/1/6
f -4/1/6 -15/1/6 -3/1/6
f -14/1/6 -6/1/6 -2/1/6
f -2/1/6 -6/1/6 -1/1/6
