# MagicaVoxel @ ephtracy

# material
mtllib kulou.mtl

# normals
vn -1 0 0
vn 1 0 0
vn 0 0 1
vn 0 0 -1
vn 0 -1 0
vn 0 1 0

# texcoords
vt 0.958984 0.5
vt 0.986328 0.5
vt 0.990234 0.5

# verts
v -9 0 9
v -9 0 6
v -9 0 4
v -9 0 2
v -9 0 -0
v -9 0 -2
v -9 0 -4
v -9 0 -7
v -9 11 9
v -9 11 6
v -9 11 4
v -9 11 2
v -9 11 -0
v -9 11 -2
v -9 11 -4
v -9 11 -7
v -9 14 9
v -9 14 -7
v -9 16 9
v -9 16 -7
f -12/1/1 -19/1/1 -20/1/1
f -11/2/1 -18/2/1 -19/2/1
f -11/1/1 -19/1/1 -12/1/1
f -10/1/1 -17/1/1 -18/1/1
f -10/2/1 -18/2/1 -11/2/1
f -9/2/1 -16/2/1 -17/2/1
f -9/1/1 -17/1/1 -10/1/1
f -8/1/1 -15/1/1 -16/1/1
f -8/2/1 -16/2/1 -9/2/1
f -7/2/1 -14/2/1 -15/2/1
f -7/1/1 -15/1/1 -8/1/1
f -6/1/1 -13/1/1 -14/1/1
f -6/2/1 -14/2/1 -7/2/1
f -5/1/1 -13/1/1 -6/1/1
f -4/3/1 -7/3/1 -8/3/1
f -4/3/1 -11/3/1 -12/3/1
f -4/3/1 -5/3/1 -6/3/1
f -4/3/1 -6/3/1 -7/3/1
f -4/3/1 -8/3/1 -9/3/1
f -4/3/1 -9/3/1 -10/3/1
f -4/3/1 -10/3/1 -11/3/1
f -3/3/1 -5/3/1 -4/3/1
f -2/1/1 -3/1/1 -4/1/1
f -1/1/1 -3/1/1 -2/1/1
v 7 0 9
v 7 0 6
v 7 0 4
v 7 0 2
v 7 0 -0
v 7 0 -2
v 7 0 -4
v 7 0 -7
v 7 11 9
v 7 11 6
v 7 11 4
v 7 11 2
v 7 11 -0
v 7 11 -2
v 7 11 -4
v 7 11 -7
v 7 14 9
v 7 14 -7
v 7 16 9
v 7 16 -7
f -20/1/2 -19/1/2 -12/1/2
f -19/2/2 -18/2/2 -11/2/2
f -12/1/2 -19/1/2 -11/1/2
f -18/1/2 -17/1/2 -10/1/2
f -11/2/2 -18/2/2 -10/2/2
f -17/2/2 -16/2/2 -9/2/2
f -10/1/2 -17/1/2 -9/1/2
f -16/1/2 -15/1/2 -8/1/2
f -9/2/2 -16/2/2 -8/2/2
f -15/2/2 -14/2/2 -7/2/2
f -8/1/2 -15/1/2 -7/1/2
f -14/1/2 -13/1/2 -6/1/2
f -7/2/2 -14/2/2 -6/2/2
f -6/1/2 -13/1/2 -5/1/2
f -8/3/2 -7/3/2 -4/3/2
f -12/3/2 -11/3/2 -4/3/2
f -6/3/2 -5/3/2 -4/3/2
f -7/3/2 -6/3/2 -4/3/2
f -9/3/2 -8/3/2 -4/3/2
f -10/3/2 -9/3/2 -4/3/2
f -11/3/2 -10/3/2 -4/3/2
f -4/3/2 -5/3/2 -3/3/2
f -4/1/2 -3/1/2 -2/1/2
f -2/1/2 -3/1/2 -1/1/2
v -9 0 9
v -9 11 9
v -9 14 9
v -9 16 9
v -6 0 9
v -6 11 9
v -6 14 9
v -6 16 9
v -4 0 9
v -4 11 9
v -4 14 9
v -4 16 9
v -2 0 9
v -2 11 9
v -2 14 9
v -2 16 9
v 0 0 9
v 0 11 9
v 0 14 9
v 0 16 9
v 2 0 9
v 2 11 9
v 2 14 9
v 2 16 9
v 4 0 9
v 4 11 9
v 4 14 9
v 4 16 9
v 7 0 9
v 7 11 9
v 7 14 9
v 7 16 9
f -28/1/3 -31/1/3 -32/1/3
f -27/3/3 -30/3/3 -31/3/3
f -27/1/3 -31/1/3 -28/1/3
f -26/1/3 -29/1/3 -30/1/3
f -26/3/3 -30/3/3 -27/3/3
f -25/1/3 -29/1/3 -26/1/3
f -24/2/3 -27/2/3 -28/2/3
f -24/2/3 -26/2/3 -27/2/3
f -24/2/3 -25/2/3 -26/2/3
f -23/2/3 -25/2/3 -24/2/3
f -22/2/3 -25/2/3 -23/2/3
f -21/2/3 -25/2/3 -22/2/3
f -20/1/3 -23/1/3 -24/1/3
f -19/3/3 -22/3/3 -23/3/3
f -19/1/3 -23/1/3 -20/1/3
f -18/1/3 -21/1/3 -22/1/3
f -18/3/3 -22/3/3 -19/3/3
f -17/1/3 -21/1/3 -18/1/3
f -16/2/3 -19/2/3 -20/2/3
f -16/2/3 -18/2/3 -19/2/3
f -16/2/3 -17/2/3 -18/2/3
f -15/2/3 -17/2/3 -16/2/3
f -14/2/3 -17/2/3 -15/2/3
f -13/2/3 -17/2/3 -14/2/3
f -12/1/3 -15/1/3 -16/1/3
f -11/3/3 -14/3/3 -15/3/3
f -11/1/3 -15/1/3 -12/1/3
f -10/1/3 -13/1/3 -14/1/3
f -10/3/3 -14/3/3 -11/3/3
f -9/1/3 -13/1/3 -10/1/3
f -8/2/3 -11/2/3 -12/2/3
f -8/2/3 -10/2/3 -11/2/3
f -8/2/3 -9/2/3 -10/2/3
f -7/2/3 -9/2/3 -8/2/3
f -6/2/3 -9/2/3 -7/2/3
f -5/2/3 -9/2/3 -6/2/3
f -4/1/3 -7/1/3 -8/1/3
f -3/3/3 -6/3/3 -7/3/3
f -3/1/3 -7/1/3 -4/1/3
f -2/1/3 -5/1/3 -6/1/3
f -2/3/3 -6/3/3 -3/3/3
f -1/1/3 -5/1/3 -2/1/3
v -9 0 -7
v -9 11 -7
v -9 14 -7
v -9 16 -7
v -7 7 -7
v -7 10 -7
v -6 0 -7
v -6 3 -7
v -6 5 -7
v -6 6 -7
v -6 7 -7
v -6 14 -7
v -6 16 -7
v -5 6 -7
v -5 7 -7
v -5 9 -7
v -5 10 -7
v -4 0 -7
v -4 3 -7
v -4 6 -7
v -4 7 -7
v -4 8 -7
v -4 9 -7
v -4 14 -7
v -4 16 -7
v -3 3 -7
v -3 4 -7
v -3 5 -7
v -3 6 -7
v -3 7 -7
v -3 8 -7
v -2 0 -7
v -2 3 -7
v -2 6 -7
v -2 7 -7
v -2 14 -7
v -2 16 -7
v 0 0 -7
v 0 3 -7
v 0 6 -7
v 0 7 -7
v 0 14 -7
v 0 16 -7
v 1 3 -7
v 1 4 -7
v 1 5 -7
v 1 6 -7
v 1 7 -7
v 1 8 -7
v 2 0 -7
v 2 3 -7
v 2 6 -7
v 2 7 -7
v 2 8 -7
v 2 9 -7
v 2 14 -7
v 2 16 -7
v 3 6 -7
v 3 7 -7
v 3 9 -7
v 3 10 -7
v 4 0 -7
v 4 3 -7
v 4 5 -7
v 4 6 -7
v 4 7 -7
v 4 14 -7
v 4 16 -7
v 5 7 -7
v 5 10 -7
v 7 0 -7
v 7 11 -7
v 7 14 -7
v 7 16 -7
f -74/1/4 -73/1/4 -70/1/4
f -70/1/4 -73/1/4 -69/1/4
f -74/1/4 -70/1/4 -68/1/4
f -68/1/4 -70/1/4 -67/1/4
f -67/1/4 -70/1/4 -66/1/4
f -66/1/4 -70/1/4 -65/1/4
f -70/2/4 -69/2/4 -64/2/4
f -65/1/4 -70/1/4 -64/1/4
f -72/1/4 -71/1/4 -63/1/4
f -73/3/4 -72/3/4 -63/3/4
f -63/1/4 -71/1/4 -62/1/4
f -65/2/4 -64/2/4 -61/2/4
f -66/3/4 -65/3/4 -61/3/4
f -64/2/4 -69/2/4 -60/2/4
f -61/2/4 -64/2/4 -60/2/4
f -60/2/4 -69/2/4 -59/2/4
f -69/1/4 -73/1/4 -58/1/4
f -59/2/4 -69/2/4 -58/2/4
f -68/2/4 -67/2/4 -57/2/4
f -67/1/4 -66/1/4 -56/1/4
f -57/2/4 -67/2/4 -56/2/4
f -66/3/4 -61/3/4 -55/3/4
f -61/1/4 -60/1/4 -55/1/4
f -60/2/4 -59/2/4 -54/2/4
f -55/1/4 -60/1/4 -54/1/4
f -54/2/4 -59/2/4 -53/2/4
f -59/1/4 -58/1/4 -52/1/4
f -53/2/4 -59/2/4 -52/2/4
f -63/2/4 -62/2/4 -51/2/4
f -73/3/4 -63/3/4 -51/3/4
f -51/2/4 -62/2/4 -50/2/4
f -56/1/4 -66/1/4 -49/1/4
f -57/1/4 -56/1/4 -49/1/4
f -49/1/4 -66/1/4 -48/1/4
f -66/3/4 -55/3/4 -47/3/4
f -48/1/4 -66/1/4 -47/1/4
f -54/2/4 -53/2/4 -46/2/4
f -47/3/4 -55/3/4 -46/3/4
f -55/2/4 -54/2/4 -46/2/4
f -46/2/4 -53/2/4 -45/2/4
f -53/1/4 -52/1/4 -44/1/4
f -45/2/4 -53/2/4 -44/2/4
f -57/1/4 -49/1/4 -43/1/4
f -49/3/4 -48/3/4 -42/3/4
f -43/1/4 -49/1/4 -42/1/4
f -46/2/4 -45/2/4 -41/2/4
f -48/2/4 -47/2/4 -41/2/4
f -47/2/4 -46/2/4 -41/2/4
f -45/1/4 -44/1/4 -40/1/4
f -41/2/4 -45/2/4 -40/2/4
f -51/1/4 -50/1/4 -39/1/4
f -73/3/4 -51/3/4 -39/3/4
f -39/1/4 -50/1/4 -38/1/4
f -43/2/4 -42/2/4 -37/2/4
f -42/3/4 -48/3/4 -36/3/4
f -37/2/4 -42/2/4 -36/2/4
f -41/1/4 -40/1/4 -35/1/4
f -48/2/4 -41/2/4 -35/2/4
f -40/1/4 -44/1/4 -34/1/4
f -35/1/4 -40/1/4 -34/1/4
f -73/3/4 -39/3/4 -33/3/4
f -39/2/4 -38/2/4 -33/2/4
f -33/2/4 -38/2/4 -32/2/4
f -36/3/4 -48/3/4 -31/3/4
f -37/1/4 -36/1/4 -31/1/4
f -48/2/4 -35/2/4 -30/2/4
f -31/3/4 -48/3/4 -30/3/4
f -35/2/4 -34/2/4 -30/2/4
f -30/2/4 -34/2/4 -29/2/4
f -29/2/4 -34/2/4 -28/2/4
f -34/1/4 -44/1/4 -27/1/4
f -28/2/4 -34/2/4 -27/2/4
f -44/1/4 -52/1/4 -26/1/4
f -27/1/4 -44/1/4 -26/1/4
f -37/1/4 -31/1/4 -25/1/4
f -31/1/4 -30/1/4 -25/1/4
f -30/1/4 -29/1/4 -25/1/4
f -25/1/4 -29/1/4 -24/1/4
f -28/2/4 -27/2/4 -23/2/4
f -29/3/4 -28/3/4 -23/3/4
f -27/2/4 -26/2/4 -23/2/4
f -23/2/4 -26/2/4 -22/2/4
f -26/1/4 -52/1/4 -21/1/4
f -22/2/4 -26/2/4 -21/2/4
f -52/1/4 -58/1/4 -20/1/4
f -21/1/4 -52/1/4 -20/1/4
f -33/1/4 -32/1/4 -19/1/4
f -73/3/4 -33/3/4 -19/3/4
f -19/1/4 -32/1/4 -18/1/4
f -23/1/4 -22/1/4 -17/1/4
f -29/3/4 -23/3/4 -17/3/4
f -22/2/4 -21/2/4 -16/2/4
f -17/1/4 -22/1/4 -16/1/4
f -21/2/4 -20/2/4 -16/2/4
f -20/1/4 -58/1/4 -15/1/4
f -16/2/4 -20/2/4 -15/2/4
f -58/1/4 -73/1/4 -14/1/4
f -15/1/4 -58/1/4 -14/1/4
f -25/2/4 -24/2/4 -13/2/4
f -24/1/4 -29/1/4 -12/1/4
f -13/2/4 -24/2/4 -12/2/4
f -29/3/4 -17/3/4 -11/3/4
f -12/1/4 -29/1/4 -11/1/4
f -16/2/4 -15/2/4 -10/2/4
f -11/3/4 -17/3/4 -10/3/4
f -17/2/4 -16/2/4 -10/2/4
f -15/2/4 -14/2/4 -10/2/4
f -10/2/4 -14/2/4 -9/2/4
f -19/2/4 -18/2/4 -8/2/4
f -73/3/4 -19/3/4 -8/3/4
f -8/2/4 -18/2/4 -7/2/4
f -13/1/4 -12/1/4 -6/1/4
f -12/1/4 -11/1/4 -6/1/4
f -9/2/4 -14/2/4 -6/2/4
f -10/1/4 -9/1/4 -6/1/4
f -11/1/4 -10/1/4 -6/1/4
f -14/1/4 -73/1/4 -5/1/4
f -6/2/4 -14/2/4 -5/2/4
f -13/1/4 -6/1/4 -4/1/4
f -6/1/4 -5/1/4 -4/1/4
f -73/3/4 -8/3/4 -3/3/4
f -4/1/4 -5/1/4 -3/1/4
f -5/1/4 -73/1/4 -3/1/4
f -8/1/4 -7/1/4 -2/1/4
f -3/3/4 -8/3/4 -2/3/4
f -2/1/4 -7/1/4 -1/1/4
v -9 0 9
v -6 0 9
v -4 0 9
v -2 0 9
v 0 0 9
v 2 0 9
v 4 0 9
v 7 0 9
v -8 0 8
v -6 0 8
v -4 0 8
v -2 0 8
v 0 0 8
v 2 0 8
v 4 0 8
v 6 0 8
v -9 0 6
v -8 0 6
v 6 0 6
v 7 0 6
v -9 0 4
v -8 0 4
v 6 0 4
v 7 0 4
v -9 0 2
v -8 0 2
v 6 0 2
v 7 0 2
v -9 0 -0
v -8 0 -0
v 6 0 -0
v 7 0 -0
v -9 0 -2
v -8 0 -2
v 6 0 -2
v 7 0 -2
v -9 0 -4
v -6 0 -4
v -4 0 -4
v -2 0 -4
v 0 0 -4
v 2 0 -4
v 4 0 -4
v 7 0 -4
v -9 0 -7
v -6 0 -7
v -4 0 -7
v -2 0 -7
v 0 0 -7
v 2 0 -7
v 4 0 -7
v 7 0 -7
f -44/1/5 -51/1/5 -52/1/5
f -43/2/5 -50/2/5 -51/2/5
f -43/1/5 -51/1/5 -44/1/5
f -42/1/5 -49/1/5 -50/1/5
f -42/2/5 -50/2/5 -43/2/5
f -41/2/5 -48/2/5 -49/2/5
f -41/1/5 -49/1/5 -42/1/5
f -40/1/5 -47/1/5 -48/1/5
f -40/2/5 -48/2/5 -41/2/5
f -39/2/5 -46/2/5 -47/2/5
f -39/1/5 -47/1/5 -40/1/5
f -38/1/5 -45/1/5 -46/1/5
f -38/2/5 -46/2/5 -39/2/5
f -37/1/5 -45/1/5 -38/1/5
f -36/1/5 -44/1/5 -52/1/5
f -35/2/5 -39/2/5 -40/2/5
f -35/1/5 -44/1/5 -36/1/5
f -35/2/5 -43/2/5 -44/2/5
f -35/2/5 -37/2/5 -38/2/5
f -35/2/5 -38/2/5 -39/2/5
f -35/2/5 -40/2/5 -41/2/5
f -35/2/5 -41/2/5 -42/2/5
f -35/2/5 -42/2/5 -43/2/5
f -34/1/5 -45/1/5 -37/1/5
f -34/2/5 -37/2/5 -35/2/5
f -33/1/5 -45/1/5 -34/1/5
f -32/2/5 -35/2/5 -36/2/5
f -32/2/5 -34/2/5 -35/2/5
f -32/2/5 -33/2/5 -34/2/5
f -31/2/5 -33/2/5 -32/2/5
f -30/2/5 -33/2/5 -31/2/5
f -29/2/5 -33/2/5 -30/2/5
f -28/1/5 -31/1/5 -32/1/5
f -27/2/5 -30/2/5 -31/2/5
f -27/1/5 -31/1/5 -28/1/5
f -26/1/5 -29/1/5 -30/1/5
f -26/2/5 -30/2/5 -27/2/5
f -25/1/5 -29/1/5 -26/1/5
f -24/2/5 -27/2/5 -28/2/5
f -24/2/5 -26/2/5 -27/2/5
f -24/2/5 -25/2/5 -26/2/5
f -23/2/5 -25/2/5 -24/2/5
f -22/2/5 -25/2/5 -23/2/5
f -21/2/5 -25/2/5 -22/2/5
f -20/1/5 -23/1/5 -24/1/5
f -19/2/5 -22/2/5 -23/2/5
f -19/1/5 -23/1/5 -20/1/5
f -18/1/5 -21/1/5 -22/1/5
f -18/2/5 -22/2/5 -19/2/5
f -17/1/5 -21/1/5 -18/1/5
f -16/2/5 -19/2/5 -20/2/5
f -16/2/5 -18/2/5 -19/2/5
f -16/2/5 -17/2/5 -18/2/5
f -15/2/5 -17/2/5 -16/2/5
f -14/2/5 -17/2/5 -15/2/5
f -13/2/5 -17/2/5 -14/2/5
f -12/2/5 -17/2/5 -13/2/5
f -11/2/5 -17/2/5 -12/2/5
f -10/2/5 -17/2/5 -11/2/5
f -9/2/5 -17/2/5 -10/2/5
f -8/1/5 -15/1/5 -16/1/5
f -7/2/5 -14/2/5 -15/2/5
f -7/1/5 -15/1/5 -8/1/5
f -6/1/5 -13/1/5 -14/1/5
f -6/2/5 -14/2/5 -7/2/5
f -5/2/5 -12/2/5 -13/2/5
f -5/1/5 -13/1/5 -6/1/5
f -4/1/5 -11/1/5 -12/1/5
f -4/2/5 -12/2/5 -5/2/5
f -3/2/5 -10/2/5 -11/2/5
f -3/1/5 -11/1/5 -4/1/5
f -2/1/5 -9/1/5 -10/1/5
f -2/2/5 -10/2/5 -3/2/5
f -1/1/5 -9/1/5 -2/1/5
v -9 16 9
v -6 16 9
v -4 16 9
v -2 16 9
v 0 16 9
v 2 16 9
v 4 16 9
v 7 16 9
v -8 16 8
v -6 16 8
v -4 16 8
v -2 16 8
v 0 16 8
v 2 16 8
v 4 16 8
v 6 16 8
v -8 16 -1
v -6 16 -1
v -4 16 -1
v -2 16 -1
v 0 16 -1
v 2 16 -1
v 4 16 -1
v 6 16 -1
v -9 16 -7
v -6 16 -7
v -4 16 -7
v -2 16 -7
v 0 16 -7
v 2 16 -7
v 4 16 -7
v 7 16 -7
f -32/1/6 -31/1/6 -24/1/6
f -31/2/6 -30/2/6 -23/2/6
f -24/1/6 -31/1/6 -23/1/6
f -30/1/6 -29/1/6 -22/1/6
f -23/2/6 -30/2/6 -22/2/6
f -29/2/6 -28/2/6 -21/2/6
f -22/1/6 -29/1/6 -21/1/6
f -28/1/6 -27/1/6 -20/1/6
f -21/2/6 -28/2/6 -20/2/6
f -27/2/6 -26/2/6 -19/2/6
f -20/1/6 -27/1/6 -19/1/6
f -26/1/6 -25/1/6 -18/1/6
f -19/2/6 -26/2/6 -18/2/6
f -18/1/6 -25/1/6 -17/1/6
f -32/1/6 -24/1/6 -16/1/6
f -24/3/6 -23/3/6 -16/3/6
f -23/2/6 -22/2/6 -15/2/6
f -16/3/6 -23/3/6 -15/3/6
f -22/3/6 -21/3/6 -14/3/6
f -15/2/6 -22/2/6 -14/2/6
f -21/2/6 -20/2/6 -13/2/6
f -14/3/6 -21/3/6 -13/3/6
f -20/3/6 -19/3/6 -12/3/6
f -13/2/6 -20/2/6 -12/2/6
f -19/2/6 -18/2/6 -11/2/6
f -12/3/6 -19/3/6 -11/3/6
f -18/3/6 -17/3/6 -10/3/6
f -11/2/6 -18/2/6 -10/2/6
f -17/1/6 -25/1/6 -9/1/6
f -10/3/6 -17/3/6 -9/3/6
f -32/1/6 -16/1/6 -8/1/6
f -16/1/6 -15/1/6 -8/1/6
f -15/2/6 -14/2/6 -7/2/6
f -8/1/6 -15/1/6 -7/1/6
f -14/1/6 -13/1/6 -6/1/6
f -7/2/6 -14/2/6 -6/2/6
f -13/2/6 -12/2/6 -5/2/6
f -6/1/6 -13/1/6 -5/1/6
f -12/1/6 -11/1/6 -4/1/6
f -5/2/6 -12/2/6 -4/2/6
f -11/2/6 -10/2/6 -3/2/6
f -4/1/6 -11/1/6 -3/1/6
f -10/1/6 -9/1/6 -2/1/6
f -3/2/6 -10/2/6 -2/2/6
f -9/1/6 -25/1/6 -1/1/6
f -2/1/6 -9/1/6 -1/1/6
