# MagicaVoxel @ ephtracy

# material
mtllib plane.mtl

# normals
vn -1 0 0
vn 1 0 0
vn 0 0 1
vn 0 0 -1
vn 0 -1 0
vn 0 1 0

# texcoords
vt 0.00195312 0.5
vt 0.00585938 0.5
vt 0.0214844 0.5
vt 0.283203 0.5
vt 0.533203 0.5
vt 0.751953 0.5

# verts
v -10 0 2.5
v -10 0 -0.5
v -10 2 2.5
v -10 2 -0.5
f -2/3/1 -3/3/1 -4/3/1
f -1/3/1 -3/3/1 -2/3/1
v -9 2 2.5
v -9 2 -0.5
v -9 3 2.5
v -9 3 -0.5
f -2/1/1 -3/1/1 -4/1/1
f -1/1/1 -3/1/1 -2/1/1
v -8 0 3.5
v -8 0 2.5
v -8 0 -0.5
v -8 0 -1.5
v -8 2 3.5
v -8 2 2.5
v -8 2 -0.5
v -8 2 -1.5
v -8 3 3.5
v -8 3 2.5
v -8 3 -0.5
v -8 3 -1.5
f -8/3/1 -11/3/1 -12/3/1
f -7/3/1 -11/3/1 -8/3/1
f -6/3/1 -9/3/1 -10/3/1
f -5/3/1 -9/3/1 -6/3/1
f -4/1/1 -7/1/1 -8/1/1
f -3/1/1 -7/1/1 -4/1/1
f -2/1/1 -5/1/1 -6/1/1
f -1/1/1 -5/1/1 -2/1/1
v -7 3 2.5
v -7 3 -0.5
v -7 4 2.5
v -7 4 -0.5
v -7 5 2.5
v -7 5 -0.5
f -4/5/1 -5/5/1 -6/5/1
f -3/5/1 -5/5/1 -4/5/1
f -2/1/1 -3/1/1 -4/1/1
f -1/1/1 -3/1/1 -2/1/1
v -6 0 4.5
v -6 0 3.5
v -6 0 -1.5
v -6 0 -2.5
v -6 2 4.5
v -6 2 3.5
v -6 2 -1.5
v -6 2 -2.5
v -6 3 3.5
v -6 3 2.5
v -6 3 -0.5
v -6 3 -1.5
v -6 4 2.5
v -6 4 -0.5
v -6 5 3.5
v -6 5 2.5
v -6 5 -0.5
v -6 5 -1.5
f -14/3/1 -17/3/1 -18/3/1
f -13/3/1 -17/3/1 -14/3/1
f -12/3/1 -15/3/1 -16/3/1
f -11/3/1 -15/3/1 -12/3/1
f -6/1/1 -9/1/1 -10/1/1
f -5/1/1 -7/1/1 -8/1/1
f -4/1/1 -6/1/1 -10/1/1
f -3/1/1 -6/1/1 -4/1/1
f -2/1/1 -7/1/1 -5/1/1
f -1/1/1 -7/1/1 -2/1/1
v -5 5 3.5
v -5 5 -1.5
v -5 6 3.5
v -5 6 -1.5
f -2/1/1 -3/1/1 -4/1/1
f -1/1/1 -3/1/1 -2/1/1
v -4 6 2.5
v -4 6 -0.5
v -4 7 2.5
v -4 7 -0.5
f -2/5/1 -3/5/1 -4/5/1
f -1/5/1 -3/5/1 -2/5/1
v -3 0 5.5
v -3 0 4.5
v -3 0 -2.5
v -3 0 -3.5
v -3 2 5.5
v -3 2 4.5
v -3 2 -2.5
v -3 2 -3.5
f -4/3/1 -7/3/1 -8/3/1
f -3/3/1 -7/3/1 -4/3/1
f -2/3/1 -5/3/1 -6/3/1
f -1/3/1 -5/3/1 -2/3/1
v 0 0 6.5
v 0 0 5.5
v 0 0 -3.5
v 0 0 -4.5
v 0 2 6.5
v 0 2 5.5
v 0 2 -3.5
v 0 2 -4.5
f -4/3/1 -7/3/1 -8/3/1
f -3/3/1 -7/3/1 -4/3/1
f -2/3/1 -5/3/1 -6/3/1
f -1/3/1 -5/3/1 -2/3/1
v 3 0 7.5
v 3 0 6.5
v 3 0 -4.5
v 3 0 -5.5
v 3 2 7.5
v 3 2 6.5
v 3 2 -4.5
v 3 2 -5.5
v 3 4 -1.5
v 3 4 -2.5
v 3 5 -1.5
v 3 6 -1.5
v 3 6 -2.5
v 3 7 1.5
v 3 7 0.5
v 3 8 1.5
v 3 8 0.5
f -13/3/1 -16/3/1 -17/3/1
f -12/3/1 -16/3/1 -13/3/1
f -11/3/1 -14/3/1 -15/3/1
f -10/3/1 -14/3/1 -11/3/1
f -7/1/1 -8/1/1 -9/1/1
f -6/1/1 -8/1/1 -7/1/1
f -5/1/1 -8/1/1 -6/1/1
f -2/5/1 -3/5/1 -4/5/1
f -1/5/1 -3/5/1 -2/5/1
v 4 4 4.5
v 4 4 3.5
v 4 5 3.5
v 4 6 4.5
v 4 6 3.5
v 4 6 2.5
v 4 6 -0.5
v 4 6 -1.5
v 4 7 3.5
v 4 7 2.5
v 4 7 -0.5
v 4 7 -1.5
v 4 8 1.5
v 4 8 0.5
v 4 9 1.5
v 4 9 0.5
f -14/1/1 -15/1/1 -16/1/1
f -13/1/1 -14/1/1 -16/1/1
f -12/1/1 -14/1/1 -13/1/1
f -8/1/1 -11/1/1 -12/1/1
f -7/1/1 -11/1/1 -8/1/1
f -6/1/1 -9/1/1 -10/1/1
f -5/1/1 -9/1/1 -6/1/1
f -2/5/1 -3/5/1 -4/5/1
f -1/5/1 -3/5/1 -2/5/1
v 5 0 8.5
v 5 0 7.5
v 5 0 -5.5
v 5 0 -6.5
v 5 2 8.5
v 5 2 7.5
v 5 2 -5.5
v 5 2 -6.5
f -4/3/1 -7/3/1 -8/3/1
f -3/3/1 -7/3/1 -4/3/1
f -2/3/1 -5/3/1 -6/3/1
f -1/3/1 -5/3/1 -2/3/1
v 7 4 4.5
v 7 4 3.5
v 7 4 -1.5
v 7 4 -2.5
v 7 5 3.5
v 7 5 -1.5
v 7 6 4.5
v 7 6 3.5
v 7 6 -1.5
v 7 6 -2.5
f -10/1/2 -9/1/2 -6/1/2
f -8/1/2 -7/1/2 -5/1/2
f -10/1/2 -6/1/2 -4/1/2
f -4/1/2 -6/1/2 -3/1/2
f -5/1/2 -7/1/2 -2/1/2
f -2/1/2 -7/1/2 -1/1/2
v 8 0 8.5
v 8 0 -6.5
v 8 1 7.5
v 8 1 6.5
v 8 1 3.5
v 8 1 -1.5
v 8 1 -4.5
v 8 1 -5.5
v 8 2 8.5
v 8 2 7.5
v 8 2 6.5
v 8 2 3.5
v 8 2 1.5
v 8 2 0.5
v 8 2 -1.5
v 8 2 -4.5
v 8 2 -5.5
v 8 2 -6.5
v 8 4 3.5
v 8 4 1.5
v 8 4 0.5
v 8 4 -1.5
v 8 5 3.5
v 8 5 1.5
v 8 5 0.5
v 8 5 -1.5
v 8 7 3.5
v 8 7 1.5
v 8 7 0.5
v 8 7 -1.5
v 8 8 1.5
v 8 8 0.5
v 8 9 1.5
v 8 9 0.5
f -34/3/2 -33/3/2 -32/3/2
f -32/3/2 -33/3/2 -31/3/2
f -31/3/2 -33/3/2 -30/3/2
f -30/3/2 -33/3/2 -29/3/2
f -29/3/2 -33/3/2 -28/3/2
f -28/3/2 -33/3/2 -27/3/2
f -34/3/2 -32/3/2 -26/3/2
f -32/1/2 -31/1/2 -25/1/2
f -26/3/2 -32/3/2 -25/3/2
f -31/4/2 -30/4/2 -24/4/2
f -25/1/2 -31/1/2 -24/1/2
f -30/5/2 -29/5/2 -23/5/2
f -24/4/2 -30/4/2 -23/4/2
f -23/5/2 -29/5/2 -22/5/2
f -22/5/2 -29/5/2 -21/5/2
f -29/4/2 -28/4/2 -20/4/2
f -21/5/2 -29/5/2 -20/5/2
f -28/1/2 -27/1/2 -19/1/2
f -20/4/2 -28/4/2 -19/4/2
f -27/3/2 -33/3/2 -18/3/2
f -19/1/2 -27/1/2 -18/1/2
f -18/3/2 -33/3/2 -17/3/2
f -23/6/2 -22/6/2 -16/6/2
f -22/4/2 -21/4/2 -15/4/2
f -16/6/2 -22/6/2 -15/6/2
f -21/6/2 -20/6/2 -14/6/2
f -15/4/2 -21/4/2 -14/4/2
f -14/6/2 -20/6/2 -13/6/2
f -16/4/2 -15/4/2 -12/4/2
f -15/4/2 -14/4/2 -12/4/2
f -14/4/2 -13/4/2 -12/4/2
f -12/4/2 -13/4/2 -11/4/2
f -11/4/2 -13/4/2 -10/4/2
f -10/4/2 -13/4/2 -9/4/2
f -12/6/2 -11/6/2 -8/6/2
f -11/4/2 -10/4/2 -7/4/2
f -8/6/2 -11/6/2 -7/6/2
f -10/6/2 -9/6/2 -6/6/2
f -7/4/2 -10/4/2 -6/4/2
f -6/6/2 -9/6/2 -5/6/2
f -7/1/2 -6/1/2 -4/1/2
f -4/1/2 -6/1/2 -3/1/2
f -4/5/2 -3/5/2 -2/5/2
f -2/5/2 -3/5/2 -1/5/2
v 5 0 8.5
v 5 2 8.5
v 8 0 8.5
v 8 2 8.5
f -2/3/3 -3/3/3 -4/3/3
f -1/3/3 -3/3/3 -2/3/3
v 3 0 7.5
v 3 2 7.5
v 5 0 7.5
v 5 2 7.5
f -2/3/3 -3/3/3 -4/3/3
f -1/3/3 -3/3/3 -2/3/3
v 0 0 6.5
v 0 2 6.5
v 3 0 6.5
v 3 2 6.5
f -2/3/3 -3/3/3 -4/3/3
f -1/3/3 -3/3/3 -2/3/3
v -3 0 5.5
v -3 2 5.5
v 0 0 5.5
v 0 2 5.5
f -2/3/3 -3/3/3 -4/3/3
f -1/3/3 -3/3/3 -2/3/3
v -6 0 4.5
v -6 2 4.5
v -3 0 4.5
v -3 2 4.5
v 4 4 4.5
v 4 6 4.5
v 7 4 4.5
v 7 6 4.5
f -6/3/3 -7/3/3 -8/3/3
f -5/3/3 -7/3/3 -6/3/3
f -2/1/3 -3/1/3 -4/1/3
f -1/1/3 -3/1/3 -2/1/3
v -8 0 3.5
v -8 2 3.5
v -8 3 3.5
v -6 0 3.5
v -6 2 3.5
v -6 3 3.5
v -6 5 3.5
v -5 4 3.5
v -5 5 3.5
v -5 6 3.5
v -4 4 3.5
v -4 5 3.5
v -3 2 3.5
v -3 4 3.5
v -3 5 3.5
v -2 4 3.5
v -2 5 3.5
v -1 4 3.5
v -1 5 3.5
v 1 4 3.5
v 1 5 3.5
v 2 4 3.5
v 2 5 3.5
v 3 2 3.5
v 4 4 3.5
v 4 5 3.5
v 4 6 3.5
v 4 7 3.5
v 6 2 3.5
v 6 4 3.5
v 7 2 3.5
v 7 4 3.5
v 7 5 3.5
v 7 6 3.5
v 7 7 3.5
v 8 2 3.5
v 8 4 3.5
v 8 5 3.5
v 8 7 3.5
f -36/3/3 -38/3/3 -39/3/3
f -35/1/3 -37/1/3 -38/1/3
f -35/3/3 -38/3/3 -36/3/3
f -34/1/3 -37/1/3 -35/1/3
f -32/1/3 -33/1/3 -34/1/3
f -32/1/3 -34/1/3 -35/1/3
f -31/1/3 -33/1/3 -32/1/3
f -29/1/3 -32/1/3 -35/1/3
f -29/5/3 -31/5/3 -32/5/3
f -28/1/3 -30/1/3 -31/1/3
f -28/5/3 -31/5/3 -29/5/3
f -27/1/3 -29/1/3 -35/1/3
f -26/2/3 -28/2/3 -29/2/3
f -26/1/3 -29/1/3 -27/1/3
f -25/1/3 -30/1/3 -28/1/3
f -25/2/3 -28/2/3 -26/2/3
f -24/1/3 -26/1/3 -27/1/3
f -24/5/3 -25/5/3 -26/5/3
f -23/1/3 -30/1/3 -25/1/3
f -23/5/3 -25/5/3 -24/5/3
f -22/1/3 -24/1/3 -27/1/3
f -22/2/3 -23/2/3 -24/2/3
f -21/1/3 -30/1/3 -23/1/3
f -21/2/3 -23/2/3 -22/2/3
f -20/1/3 -22/1/3 -27/1/3
f -20/5/3 -21/5/3 -22/5/3
f -19/1/3 -30/1/3 -21/1/3
f -19/5/3 -21/5/3 -20/5/3
f -18/1/3 -20/1/3 -27/1/3
f -18/2/3 -19/2/3 -20/2/3
f -17/1/3 -30/1/3 -19/1/3
f -17/2/3 -19/2/3 -18/2/3
f -16/1/3 -18/1/3 -27/1/3
f -15/5/3 -17/5/3 -18/5/3
f -15/1/3 -18/1/3 -16/1/3
f -14/1/3 -30/1/3 -17/1/3
f -14/5/3 -17/5/3 -15/5/3
f -13/1/3 -30/1/3 -14/1/3
f -11/1/3 -15/1/3 -16/1/3
f -10/1/3 -15/1/3 -11/1/3
f -9/5/3 -10/5/3 -11/5/3
f -8/5/3 -10/5/3 -9/5/3
f -6/1/3 -12/1/3 -13/1/3
f -5/1/3 -12/1/3 -6/1/3
f -4/6/3 -8/6/3 -9/6/3
f -3/4/3 -7/4/3 -8/4/3
f -3/6/3 -8/6/3 -4/6/3
f -2/6/3 -6/6/3 -7/6/3
f -2/4/3 -7/4/3 -3/4/3
f -2/6/3 -5/6/3 -6/6/3
f -1/6/3 -5/6/3 -2/6/3
v -10 0 2.5
v -10 2 2.5
v -9 2 2.5
v -9 3 2.5
v -8 0 2.5
v -8 2 2.5
v -8 3 2.5
v -7 3 2.5
v -7 4 2.5
v -7 5 2.5
v -6 3 2.5
v -6 4 2.5
v -6 5 2.5
v -4 6 2.5
v -4 7 2.5
v 4 6 2.5
v 4 7 2.5
f -15/3/3 -16/3/3 -17/3/3
f -13/3/3 -15/3/3 -17/3/3
f -12/1/3 -14/1/3 -15/1/3
f -12/3/3 -15/3/3 -13/3/3
f -11/1/3 -14/1/3 -12/1/3
f -7/5/3 -9/5/3 -10/5/3
f -6/1/3 -8/1/3 -9/1/3
f -6/5/3 -9/5/3 -7/5/3
f -5/1/3 -8/1/3 -6/1/3
f -2/5/3 -3/5/3 -4/5/3
f -1/5/3 -3/5/3 -2/5/3
v 3 7 1.5
v 3 8 1.5
v 4 7 1.5
v 4 8 1.5
v 4 9 1.5
v 5 7 1.5
v 5 8 1.5
v 7 7 1.5
v 8 7 1.5
v 8 8 1.5
v 8 9 1.5
f -9/5/3 -10/5/3 -11/5/3
f -8/5/3 -10/5/3 -9/5/3
f -6/5/3 -8/5/3 -9/5/3
f -6/5/3 -7/5/3 -8/5/3
f -5/5/3 -7/5/3 -6/5/3
f -4/1/3 -5/1/3 -6/1/3
f -3/1/3 -5/1/3 -4/1/3
f -2/5/3 -7/5/3 -5/5/3
f -2/1/3 -5/1/3 -3/1/3
f -1/5/3 -7/5/3 -2/5/3
v 3 7 0.5
v 3 8 0.5
v 4 7 0.5
v 4 8 0.5
v 4 9 0.5
v 5 7 0.5
v 5 8 0.5
v 7 7 0.5
v 8 7 0.5
v 8 8 0.5
v 8 9 0.5
f -11/5/4 -10/5/4 -9/5/4
f -9/5/4 -10/5/4 -8/5/4
f -9/5/4 -8/5/4 -6/5/4
f -8/5/4 -7/5/4 -6/5/4
f -6/5/4 -7/5/4 -5/5/4
f -6/1/4 -5/1/4 -4/1/4
f -4/1/4 -5/1/4 -3/1/4
f -5/5/4 -7/5/4 -2/5/4
f -3/1/4 -5/1/4 -2/1/4
f -2/5/4 -7/5/4 -1/5/4
v -10 0 -0.5
v -10 2 -0.5
v -9 2 -0.5
v -9 3 -0.5
v -8 0 -0.5
v -8 2 -0.5
v -8 3 -0.5
v -7 3 -0.5
v -7 4 -0.5
v -7 5 -0.5
v -6 3 -0.5
v -6 4 -0.5
v -6 5 -0.5
v -4 6 -0.5
v -4 7 -0.5
v 4 6 -0.5
v 4 7 -0.5
f -17/3/4 -16/3/4 -15/3/4
f -17/3/4 -15/3/4 -13/3/4
f -15/1/4 -14/1/4 -12/1/4
f -13/3/4 -15/3/4 -12/3/4
f -12/1/4 -14/1/4 -11/1/4
f -10/5/4 -9/5/4 -7/5/4
f -9/1/4 -8/1/4 -6/1/4
f -7/5/4 -9/5/4 -6/5/4
f -6/1/4 -8/1/4 -5/1/4
f -4/5/4 -3/5/4 -2/5/4
f -2/5/4 -3/5/4 -1/5/4
v -8 0 -1.5
v -8 2 -1.5
v -8 3 -1.5
v -6 0 -1.5
v -6 2 -1.5
v -6 3 -1.5
v -6 5 -1.5
v -5 4 -1.5
v -5 5 -1.5
v -5 6 -1.5
v -4 4 -1.5
v -4 5 -1.5
v -3 2 -1.5
v -3 4 -1.5
v -3 5 -1.5
v -2 4 -1.5
v -2 5 -1.5
v -1 4 -1.5
v -1 5 -1.5
v 1 4 -1.5
v 1 5 -1.5
v 2 4 -1.5
v 2 5 -1.5
v 3 4 -1.5
v 3 5 -1.5
v 3 6 -1.5
v 4 6 -1.5
v 4 7 -1.5
v 6 2 -1.5
v 6 4 -1.5
v 7 2 -1.5
v 7 4 -1.5
v 7 5 -1.5
v 7 6 -1.5
v 7 7 -1.5
v 8 2 -1.5
v 8 4 -1.5
v 8 5 -1.5
v 8 7 -1.5
f -39/3/4 -38/3/4 -36/3/4
f -38/1/4 -37/1/4 -35/1/4
f -36/3/4 -38/3/4 -35/3/4
f -35/1/4 -37/1/4 -34/1/4
f -34/1/4 -33/1/4 -32/1/4
f -35/1/4 -34/1/4 -32/1/4
f -32/1/4 -33/1/4 -31/1/4
f -35/1/4 -32/1/4 -29/1/4
f -32/5/4 -31/5/4 -29/5/4
f -31/1/4 -30/1/4 -28/1/4
f -29/5/4 -31/5/4 -28/5/4
f -35/1/4 -29/1/4 -27/1/4
f -29/2/4 -28/2/4 -26/2/4
f -27/1/4 -29/1/4 -26/1/4
f -28/1/4 -30/1/4 -25/1/4
f -26/2/4 -28/2/4 -25/2/4
f -27/1/4 -26/1/4 -24/1/4
f -26/5/4 -25/5/4 -24/5/4
f -25/1/4 -30/1/4 -23/1/4
f -24/5/4 -25/5/4 -23/5/4
f -27/1/4 -24/1/4 -22/1/4
f -24/2/4 -23/2/4 -22/2/4
f -23/1/4 -30/1/4 -21/1/4
f -22/2/4 -23/2/4 -21/2/4
f -27/1/4 -22/1/4 -20/1/4
f -22/5/4 -21/5/4 -20/5/4
f -21/1/4 -30/1/4 -19/1/4
f -20/5/4 -21/5/4 -19/5/4
f -27/1/4 -20/1/4 -18/1/4
f -20/2/4 -19/2/4 -18/2/4
f -19/1/4 -30/1/4 -17/1/4
f -18/2/4 -19/2/4 -17/2/4
f -27/1/4 -18/1/4 -16/1/4
f -18/5/4 -17/5/4 -16/5/4
f -17/1/4 -30/1/4 -15/1/4
f -16/5/4 -17/5/4 -15/5/4
f -15/1/4 -30/1/4 -14/1/4
f -27/1/4 -16/1/4 -11/1/4
f -11/1/4 -16/1/4 -10/1/4
f -11/5/4 -10/5/4 -9/5/4
f -9/5/4 -10/5/4 -8/5/4
f -13/1/4 -12/1/4 -6/1/4
f -6/1/4 -12/1/4 -5/1/4
f -9/6/4 -8/6/4 -4/6/4
f -8/4/4 -7/4/4 -3/4/4
f -4/6/4 -8/6/4 -3/6/4
f -7/6/4 -6/6/4 -2/6/4
f -3/4/4 -7/4/4 -2/4/4
f -6/6/4 -5/6/4 -2/6/4
f -2/6/4 -5/6/4 -1/6/4
v -6 0 -2.5
v -6 2 -2.5
v -3 0 -2.5
v -3 2 -2.5
v 3 4 -2.5
v 3 6 -2.5
v 7 4 -2.5
v 7 6 -2.5
f -8/3/4 -7/3/4 -6/3/4
f -6/3/4 -7/3/4 -5/3/4
f -4/1/4 -3/1/4 -2/1/4
f -2/1/4 -3/1/4 -1/1/4
v -3 0 -3.5
v -3 2 -3.5
v 0 0 -3.5
v 0 2 -3.5
f -4/3/4 -3/3/4 -2/3/4
f -2/3/4 -3/3/4 -1/3/4
v 0 0 -4.5
v 0 2 -4.5
v 3 0 -4.5
v 3 2 -4.5
f -4/3/4 -3/3/4 -2/3/4
f -2/3/4 -3/3/4 -1/3/4
v 3 0 -5.5
v 3 2 -5.5
v 5 0 -5.5
v 5 2 -5.5
f -4/3/4 -3/3/4 -2/3/4
f -2/3/4 -3/3/4 -1/3/4
v 5 0 -6.5
v 5 2 -6.5
v 8 0 -6.5
v 8 2 -6.5
f -4/3/4 -3/3/4 -2/3/4
f -2/3/4 -3/3/4 -1/3/4
v 5 0 8.5
v 8 0 8.5
v 3 0 7.5
v 5 0 7.5
v 0 0 6.5
v 3 0 6.5
v -3 0 5.5
v 0 0 5.5
v -6 0 4.5
v -3 0 4.5
v -8 0 3.5
v -6 0 3.5
v -10 0 2.5
v -8 0 2.5
v -10 0 -0.5
v -8 0 -0.5
v -8 0 -1.5
v -6 0 -1.5
v -6 0 -2.5
v -3 0 -2.5
v -3 0 -3.5
v 0 0 -3.5
v 0 0 -4.5
v 3 0 -4.5
v 3 0 -5.5
v 5 0 -5.5
v 5 0 -6.5
v 8 0 -6.5
f -25/3/5 -27/3/5 -28/3/5
f -23/3/5 -25/3/5 -26/3/5
f -21/3/5 -23/3/5 -24/3/5
f -19/3/5 -21/3/5 -22/3/5
f -17/3/5 -19/3/5 -20/3/5
f -15/3/5 -17/3/5 -18/3/5
f -14/3/5 -15/3/5 -16/3/5
f -13/3/5 -17/3/5 -15/3/5
f -13/3/5 -15/3/5 -14/3/5
f -12/3/5 -17/3/5 -13/3/5
f -11/3/5 -19/3/5 -17/3/5
f -11/3/5 -17/3/5 -12/3/5
f -10/3/5 -19/3/5 -11/3/5
f -9/3/5 -21/3/5 -19/3/5
f -9/3/5 -19/3/5 -10/3/5
f -8/3/5 -21/3/5 -9/3/5
f -7/3/5 -23/3/5 -21/3/5
f -7/3/5 -21/3/5 -8/3/5
f -6/3/5 -23/3/5 -7/3/5
f -5/3/5 -25/3/5 -23/3/5
f -5/3/5 -23/3/5 -6/3/5
f -4/3/5 -25/3/5 -5/3/5
f -3/3/5 -27/3/5 -25/3/5
f -3/3/5 -25/3/5 -4/3/5
f -2/3/5 -27/3/5 -3/3/5
f -1/3/5 -27/3/5 -2/3/5
v 4 4 4.5
v 7 4 4.5
v 4 4 3.5
v 6 4 3.5
v 7 4 3.5
v 3 4 -1.5
v 6 4 -1.5
v 7 4 -1.5
v 3 4 -2.5
v 7 4 -2.5
f -8/1/5 -9/1/5 -10/1/5
f -7/1/5 -9/1/5 -8/1/5
f -6/1/5 -9/1/5 -7/1/5
f -2/1/5 -4/1/5 -5/1/5
f -2/1/5 -3/1/5 -4/1/5
f -1/1/5 -3/1/5 -2/1/5
v 5 2 8.5
v 8 2 8.5
v 3 2 7.5
v 5 2 7.5
v 8 2 7.5
v 0 2 6.5
v 3 2 6.5
v 5 2 6.5
v 6 2 6.5
v 7 2 6.5
v 8 2 6.5
v -3 2 5.5
v 0 2 5.5
v 3 2 5.5
v -6 2 4.5
v -3 2 4.5
v 0 2 4.5
v 3 2 4.5
v 6 2 4.5
v -6 2 3.5
v -3 2 3.5
v 3 2 3.5
v 6 2 3.5
v 7 2 3.5
v 8 2 3.5
v -10 2 2.5
v -9 2 2.5
v -10 2 -0.5
v -9 2 -0.5
v -6 2 -1.5
v -3 2 -1.5
v 6 2 -1.5
v 7 2 -1.5
v 8 2 -1.5
v -6 2 -2.5
v -3 2 -2.5
v 0 2 -2.5
v -3 2 -3.5
v 0 2 -3.5
v 3 2 -3.5
v 0 2 -4.5
v 3 2 -4.5
v 5 2 -4.5
v 6 2 -4.5
v 7 2 -4.5
v 8 2 -4.5
v 3 2 -5.5
v 5 2 -5.5
v 8 2 -5.5
v 5 2 -6.5
v 8 2 -6.5
f -51/3/6 -50/3/6 -48/3/6
f -48/3/6 -50/3/6 -47/3/6
f -49/3/6 -48/3/6 -45/3/6
f -48/1/6 -47/1/6 -44/1/6
f -45/3/6 -48/3/6 -44/3/6
f -44/1/6 -47/1/6 -43/1/6
f -43/1/6 -47/1/6 -42/1/6
f -42/1/6 -47/1/6 -41/1/6
f -46/3/6 -45/3/6 -39/3/6
f -45/1/6 -44/1/6 -38/1/6
f -44/1/6 -43/1/6 -38/1/6
f -39/3/6 -45/3/6 -38/3/6
f -40/3/6 -39/3/6 -36/3/6
f -39/1/6 -38/1/6 -35/1/6
f -36/3/6 -39/3/6 -35/3/6
f -38/1/6 -43/1/6 -34/1/6
f -35/1/6 -38/1/6 -34/1/6
f -43/5/6 -42/5/6 -33/5/6
f -34/1/6 -43/1/6 -33/1/6
f -37/3/6 -36/3/6 -32/3/6
f -36/1/6 -35/1/6 -31/1/6
f -32/3/6 -36/3/6 -31/3/6
f -35/1/6 -34/1/6 -31/1/6
f -34/5/6 -33/5/6 -30/5/6
f -31/1/6 -34/1/6 -30/1/6
f -33/5/6 -42/5/6 -29/5/6
f -30/5/6 -33/5/6 -29/5/6
f -42/4/6 -41/4/6 -28/4/6
f -29/5/6 -42/5/6 -28/5/6
f -28/4/6 -41/4/6 -27/4/6
f -26/3/6 -25/3/6 -24/3/6
f -24/3/6 -25/3/6 -23/3/6
f -22/3/6 -21/3/6 -17/3/6
f -21/1/6 -20/1/6 -16/1/6
f -17/3/6 -21/3/6 -16/3/6
f -16/1/6 -20/1/6 -15/1/6
f -16/3/6 -15/3/6 -14/3/6
f -15/1/6 -20/1/6 -13/1/6
f -14/3/6 -15/3/6 -13/3/6
f -13/1/6 -20/1/6 -12/1/6
f -13/3/6 -12/3/6 -11/3/6
f -12/1/6 -20/1/6 -10/1/6
f -11/3/6 -12/3/6 -10/3/6
f -10/1/6 -20/1/6 -9/1/6
f -20/5/6 -19/5/6 -8/5/6
f -9/1/6 -20/1/6 -8/1/6
f -19/4/6 -18/4/6 -7/4/6
f -8/5/6 -19/5/6 -7/5/6
f -7/4/6 -18/4/6 -6/4/6
f -10/3/6 -9/3/6 -5/3/6
f -9/1/6 -8/1/6 -4/1/6
f -5/3/6 -9/3/6 -4/3/6
f -7/1/6 -6/1/6 -4/1/6
f -8/1/6 -7/1/6 -4/1/6
f -4/1/6 -6/1/6 -3/1/6
f -4/3/6 -3/3/6 -2/3/6
f -2/3/6 -3/3/6 -1/3/6
v -8 3 3.5
v -6 3 3.5
v -9 3 2.5
v -8 3 2.5
v -7 3 2.5
v -6 3 2.5
v -9 3 -0.5
v -8 3 -0.5
v -7 3 -0.5
v -6 3 -0.5
v -8 3 -1.5
v -6 3 -1.5
f -12/1/6 -11/1/6 -9/1/6
f -9/1/6 -11/1/6 -8/1/6
f -8/1/6 -11/1/6 -7/1/6
f -10/1/6 -9/1/6 -6/1/6
f -9/5/6 -8/5/6 -5/5/6
f -6/1/6 -9/1/6 -5/1/6
f -5/5/6 -8/5/6 -4/5/6
f -4/1/6 -3/1/6 -2/1/6
f -5/1/6 -4/1/6 -2/1/6
f -2/1/6 -3/1/6 -1/1/6
v -6 5 3.5
v -5 5 3.5
v -7 5 2.5
v -6 5 2.5
v -7 5 -0.5
v -6 5 -0.5
v -6 5 -1.5
v -5 5 -1.5
f -8/1/6 -7/1/6 -5/1/6
f -6/1/6 -5/1/6 -4/1/6
f -5/1/6 -7/1/6 -3/1/6
f -4/1/6 -5/1/6 -3/1/6
f -3/1/6 -7/1/6 -2/1/6
f -2/1/6 -7/1/6 -1/1/6
v 4 6 4.5
v 7 6 4.5
v -5 6 3.5
v 4 6 3.5
v 7 6 3.5
v -4 6 2.5
v 4 6 2.5
v -4 6 -0.5
v 4 6 -0.5
v -5 6 -1.5
v 3 6 -1.5
v 4 6 -1.5
v 7 6 -1.5
v 3 6 -2.5
v 7 6 -2.5
f -15/1/6 -14/1/6 -12/1/6
f -12/1/6 -14/1/6 -11/1/6
f -13/1/6 -12/1/6 -10/1/6
f -10/1/6 -12/1/6 -9/1/6
f -13/1/6 -10/1/6 -8/1/6
f -13/1/6 -8/1/6 -6/1/6
f -8/1/6 -7/1/6 -6/1/6
f -6/1/6 -7/1/6 -5/1/6
f -5/1/6 -7/1/6 -4/1/6
f -5/1/6 -4/1/6 -2/1/6
f -4/1/6 -3/1/6 -2/1/6
f -2/1/6 -3/1/6 -1/1/6
v 4 7 3.5
v 7 7 3.5
v 8 7 3.5
v -4 7 2.5
v 4 7 2.5
v 3 7 1.5
v 4 7 1.5
v 5 7 1.5
v 7 7 1.5
v 8 7 1.5
v 3 7 0.5
v 4 7 0.5
v 5 7 0.5
v 7 7 0.5
v 8 7 0.5
v -4 7 -0.5
v 4 7 -0.5
v 4 7 -1.5
v 7 7 -1.5
v 8 7 -1.5
f -20/1/6 -19/1/6 -16/1/6
f -17/5/6 -16/5/6 -15/5/6
f -16/1/6 -19/1/6 -14/1/6
f -15/5/6 -16/5/6 -14/5/6
f -14/1/6 -19/1/6 -13/1/6
f -19/6/6 -18/6/6 -12/6/6
f -13/1/6 -19/1/6 -12/1/6
f -12/6/6 -18/6/6 -11/6/6
f -17/5/6 -15/5/6 -10/5/6
f -17/5/6 -10/5/6 -5/5/6
f -10/5/6 -9/5/6 -5/5/6
f -8/1/6 -7/1/6 -4/1/6
f -5/5/6 -9/5/6 -4/5/6
f -9/1/6 -8/1/6 -4/1/6
f -4/1/6 -7/1/6 -3/1/6
f -7/6/6 -6/6/6 -2/6/6
f -3/1/6 -7/1/6 -2/1/6
f -2/6/6 -6/6/6 -1/6/6
v 3 8 1.5
v 4 8 1.5
v 3 8 0.5
v 4 8 0.5
f -4/5/6 -3/5/6 -2/5/6
f -2/5/6 -3/5/6 -1/5/6
v 4 9 1.5
v 8 9 1.5
v 4 9 0.5
v 8 9 0.5
f -4/5/6 -3/5/6 -2/5/6
f -2/5/6 -3/5/6 -1/5/6
