# MagicaVoxel @ ephtracy

# material
mtllib platform2.mtl

# normals
vn -1 0 0
vn 1 0 0
vn 0 0 1
vn 0 0 -1
vn 0 -1 0
vn 0 1 0

# texcoords
vt 0.353516 0.5
vt 0.365234 0.5
vt 0.419922 0.5
vt 0.423828 0.5

# verts
v -6 0 6
v -6 0 -4
v -6 1 6
v -6 1 -4
v -6 2 6
v -6 2 -4
f -4/2/1 -5/2/1 -6/2/1
f -3/2/1 -5/2/1 -4/2/1
f -2/3/1 -3/3/1 -4/3/1
f -1/3/1 -3/3/1 -2/3/1
v 4 0 6
v 4 0 -4
v 4 1 6
v 4 1 -4
v 4 2 6
v 4 2 -4
f -6/2/2 -5/2/2 -4/2/2
f -4/2/2 -5/2/2 -3/2/2
f -4/3/2 -3/3/2 -2/3/2
f -2/3/2 -3/3/2 -1/3/2
v -6 0 6
v -6 1 6
v -6 2 6
v 4 0 6
v 4 1 6
v 4 2 6
f -3/2/3 -5/2/3 -6/2/3
f -2/3/3 -4/3/3 -5/3/3
f -2/2/3 -5/2/3 -3/2/3
f -1/3/3 -4/3/3 -2/3/3
v -6 0 -4
v -6 1 -4
v -6 2 -4
v 4 0 -4
v 4 1 -4
v 4 2 -4
f -6/2/4 -5/2/4 -3/2/4
f -5/3/4 -4/3/4 -2/3/4
f -3/2/4 -5/2/4 -2/2/4
f -2/3/4 -4/3/4 -1/3/4
v -6 0 6
v 4 0 6
v -5 0 5
v 3 0 5
v -5 0 -3
v 3 0 -3
v -6 0 -4
v 4 0 -4
f -6/2/5 -7/2/5 -8/2/5
f -5/2/5 -7/2/5 -6/2/5
f -4/2/5 -6/2/5 -8/2/5
f -4/1/5 -5/1/5 -6/1/5
f -3/2/5 -7/2/5 -5/2/5
f -3/1/5 -5/1/5 -4/1/5
f -2/2/5 -4/2/5 -8/2/5
f -2/2/5 -3/2/5 -4/2/5
f -1/2/5 -7/2/5 -3/2/5
f -1/2/5 -3/2/5 -2/2/5
v -6 2 6
v 4 2 6
v -5 2 5
v 3 2 5
v -5 2 -3
v 3 2 -3
v -6 2 -4
v 4 2 -4
f -8/3/6 -7/3/6 -6/3/6
f -6/3/6 -7/3/6 -5/3/6
f -8/3/6 -6/3/6 -4/3/6
f -6/4/6 -5/4/6 -4/4/6
f -5/3/6 -7/3/6 -3/3/6
f -4/4/6 -5/4/6 -3/4/6
f -8/3/6 -4/3/6 -2/3/6
f -4/3/6 -3/3/6 -2/3/6
f -3/3/6 -7/3/6 -1/3/6
f -2/3/6 -3/3/6 -1/3/6
