# MagicaVoxel @ ephtracy

# material
mtllib startpoint.mtl

# normals
vn -1 0 0
vn 1 0 0
vn 0 0 1
vn 0 0 -1
vn 0 -1 0
vn 0 1 0

# texcoords
vt 0.00195312 0.5
vt 0.00976562 0.5
vt 0.0136719 0.5

# verts
v -23 0 18.5
v -23 0 14.5
v -23 0 13.5
v -23 0 -16.5
v -23 1 14.5
v -23 1 13.5
v -23 5 -8.5
v -23 5 -10.5
v -23 5 -11.5
v -23 5 -12.5
v -23 6 18.5
v -23 6 -8.5
v -23 6 -10.5
v -23 6 -11.5
v -23 6 -12.5
v -23 6 -16.5
f -12/1/1 -15/1/1 -16/1/1
f -11/1/1 -13/1/1 -14/1/1
f -10/1/1 -13/1/1 -11/1/1
f -10/1/1 -11/1/1 -12/1/1
f -9/1/1 -13/1/1 -10/1/1
f -8/1/1 -13/1/1 -9/1/1
f -7/1/1 -13/1/1 -8/1/1
f -6/1/1 -12/1/1 -16/1/1
f -6/1/1 -10/1/1 -12/1/1
f -5/3/1 -9/3/1 -10/3/1
f -5/1/1 -10/1/1 -6/1/1
f -4/1/1 -8/1/1 -9/1/1
f -4/3/1 -9/3/1 -5/3/1
f -3/2/1 -7/2/1 -8/2/1
f -3/1/1 -8/1/1 -4/1/1
f -2/1/1 -13/1/1 -7/1/1
f -2/2/1 -7/2/1 -3/2/1
f -1/1/1 -13/1/1 -2/1/1
v -21 0 14.5
v -21 0 13.5
v -21 1 14.5
v -21 1 13.5
f -2/1/1 -3/1/1 -4/1/1
f -1/1/1 -3/1/1 -2/1/1
v 19 2 18.5
v 19 2 -8.5
v 19 2 -9.5
v 19 2 -10.5
v 19 2 -11.5
v 19 2 -12.5
v 19 2 -16.5
v 19 6 18.5
v 19 6 -8.5
v 19 6 -10.5
v 19 6 -11.5
v 19 6 -12.5
v 19 6 -16.5
f -6/1/1 -12/1/1 -13/1/1
f -5/3/1 -11/3/1 -12/3/1
f -5/1/1 -12/1/1 -6/1/1
f -5/3/1 -10/3/1 -11/3/1
f -4/1/1 -9/1/1 -10/1/1
f -4/3/1 -10/3/1 -5/3/1
f -3/2/1 -8/2/1 -9/2/1
f -3/1/1 -9/1/1 -4/1/1
f -2/1/1 -7/1/1 -8/1/1
f -2/2/1 -8/2/1 -3/2/1
f -1/1/1 -7/1/1 -2/1/1
v -21 2 18.5
v -21 2 -8.5
v -21 2 -9.5
v -21 2 -10.5
v -21 2 -11.5
v -21 2 -12.5
v -21 2 -16.5
v -21 6 18.5
v -21 6 -8.5
v -21 6 -10.5
v -21 6 -11.5
v -21 6 -12.5
v -21 6 -16.5
f -13/1/2 -12/1/2 -6/1/2
f -12/3/2 -11/3/2 -5/3/2
f -6/1/2 -12/1/2 -5/1/2
f -11/3/2 -10/3/2 -5/3/2
f -10/1/2 -9/1/2 -4/1/2
f -5/3/2 -10/3/2 -4/3/2
f -9/2/2 -8/2/2 -3/2/2
f -4/1/2 -9/1/2 -3/1/2
f -8/1/2 -7/1/2 -2/1/2
f -3/2/2 -8/2/2 -2/2/2
f -2/1/2 -7/1/2 -1/1/2
v 21 0 18.5
v 21 0 -16.5
v 21 5 -8.5
v 21 5 -10.5
v 21 5 -11.5
v 21 5 -12.5
v 21 6 18.5
v 21 6 -8.5
v 21 6 -10.5
v 21 6 -11.5
v 21 6 -12.5
v 21 6 -16.5
f -12/1/2 -11/1/2 -10/1/2
f -10/1/2 -11/1/2 -9/1/2
f -9/1/2 -11/1/2 -8/1/2
f -8/1/2 -11/1/2 -7/1/2
f -12/1/2 -10/1/2 -6/1/2
f -10/3/2 -9/3/2 -5/3/2
f -6/1/2 -10/1/2 -5/1/2
f -9/1/2 -8/1/2 -4/1/2
f -5/3/2 -9/3/2 -4/3/2
f -8/2/2 -7/2/2 -3/2/2
f -4/1/2 -8/1/2 -3/1/2
f -7/1/2 -11/1/2 -2/1/2
f -3/2/2 -7/2/2 -2/2/2
f -2/1/2 -11/1/2 -1/1/2
v -23 0 18.5
v -23 6 18.5
v -21 2 18.5
v -21 6 18.5
v 19 2 18.5
v 19 6 18.5
v 21 0 18.5
v 21 6 18.5
f -6/1/3 -7/1/3 -8/1/3
f -5/1/3 -7/1/3 -6/1/3
f -4/1/3 -6/1/3 -8/1/3
f -2/1/3 -4/1/3 -8/1/3
f -2/1/3 -3/1/3 -4/1/3
f -1/1/3 -3/1/3 -2/1/3
v -23 0 13.5
v -23 1 13.5
v -21 0 13.5
v -21 1 13.5
f -2/1/3 -3/1/3 -4/1/3
f -1/1/3 -3/1/3 -2/1/3
v -23 0 14.5
v -23 1 14.5
v -21 0 14.5
v -21 1 14.5
f -4/1/4 -3/1/4 -2/1/4
f -2/1/4 -3/1/4 -1/1/4
v -23 0 -16.5
v -23 6 -16.5
v -21 2 -16.5
v -21 6 -16.5
v 19 2 -16.5
v 19 6 -16.5
v 21 0 -16.5
v 21 6 -16.5
f -8/1/4 -7/1/4 -6/1/4
f -6/1/4 -7/1/4 -5/1/4
f -8/1/4 -6/1/4 -4/1/4
f -8/1/4 -4/1/4 -2/1/4
f -4/1/4 -3/1/4 -2/1/4
f -2/1/4 -3/1/4 -1/1/4
v -23 0 18.5
v 21 0 18.5
v -23 0 14.5
v -21 0 14.5
v -23 0 13.5
v -21 0 13.5
v -23 0 -16.5
v 21 0 -16.5
f -6/1/5 -7/1/5 -8/1/5
f -5/1/5 -7/1/5 -6/1/5
f -3/1/5 -7/1/5 -5/1/5
f -2/1/5 -3/1/5 -4/1/5
f -1/1/5 -7/1/5 -3/1/5
f -1/1/5 -3/1/5 -2/1/5
v -23 1 14.5
v -21 1 14.5
v -23 1 13.5
v -21 1 13.5
f -2/1/5 -3/1/5 -4/1/5
f -1/1/5 -3/1/5 -2/1/5
v -21 2 18.5
v 19 2 18.5
v -21 2 -8.5
v -20 2 -8.5
v -19 2 -8.5
v -18 2 -8.5
v -17 2 -8.5
v -16 2 -8.5
v -15 2 -8.5
v -14 2 -8.5
v -13 2 -8.5
v -12 2 -8.5
v -11 2 -8.5
v -10 2 -8.5
v -9 2 -8.5
v -8 2 -8.5
v -7 2 -8.5
v -6 2 -8.5
v -5 2 -8.5
v -4 2 -8.5
v -3 2 -8.5
v -2 2 -8.5
v -1 2 -8.5
v 0 2 -8.5
v 1 2 -8.5
v 2 2 -8.5
v 3 2 -8.5
v 4 2 -8.5
v 5 2 -8.5
v 6 2 -8.5
v 7 2 -8.5
v 8 2 -8.5
v 9 2 -8.5
v 10 2 -8.5
v 11 2 -8.5
v 12 2 -8.5
v 13 2 -8.5
v 14 2 -8.5
v 15 2 -8.5
v 16 2 -8.5
v 17 2 -8.5
v 18 2 -8.5
v 19 2 -8.5
v -21 2 -9.5
v -20 2 -9.5
v -19 2 -9.5
v -18 2 -9.5
v -17 2 -9.5
v -16 2 -9.5
v -15 2 -9.5
v -14 2 -9.5
v -13 2 -9.5
v -12 2 -9.5
v -11 2 -9.5
v -10 2 -9.5
v -9 2 -9.5
v -8 2 -9.5
v -7 2 -9.5
v -6 2 -9.5
v -5 2 -9.5
v -4 2 -9.5
v -3 2 -9.5
v -2 2 -9.5
v -1 2 -9.5
v 0 2 -9.5
v 1 2 -9.5
v 2 2 -9.5
v 3 2 -9.5
v 4 2 -9.5
v 5 2 -9.5
v 6 2 -9.5
v 7 2 -9.5
v 8 2 -9.5
v 9 2 -9.5
v 10 2 -9.5
v 11 2 -9.5
v 12 2 -9.5
v 13 2 -9.5
v 14 2 -9.5
v 15 2 -9.5
v 16 2 -9.5
v 17 2 -9.5
v 18 2 -9.5
v 19 2 -9.5
v -21 2 -10.5
v -20 2 -10.5
v -19 2 -10.5
v -18 2 -10.5
v -17 2 -10.5
v -16 2 -10.5
v -15 2 -10.5
v -14 2 -10.5
v -13 2 -10.5
v -12 2 -10.5
v -11 2 -10.5
v -10 2 -10.5
v -9 2 -10.5
v -8 2 -10.5
v -7 2 -10.5
v -6 2 -10.5
v -5 2 -10.5
v -4 2 -10.5
v -3 2 -10.5
v -2 2 -10.5
v -1 2 -10.5
v 0 2 -10.5
v 1 2 -10.5
v 2 2 -10.5
v 3 2 -10.5
v 4 2 -10.5
v 5 2 -10.5
v 6 2 -10.5
v 7 2 -10.5
v 8 2 -10.5
v 9 2 -10.5
v 10 2 -10.5
v 11 2 -10.5
v 12 2 -10.5
v 13 2 -10.5
v 14 2 -10.5
v 15 2 -10.5
v 16 2 -10.5
v 17 2 -10.5
v 18 2 -10.5
v 19 2 -10.5
v -21 2 -11.5
v 19 2 -11.5
v -21 2 -12.5
v 19 2 -12.5
v -21 2 -16.5
v 19 2 -16.5
f -131/1/6 -130/1/6 -129/1/6
f -129/1/6 -130/1/6 -128/1/6
f -128/1/6 -130/1/6 -127/1/6
f -127/1/6 -130/1/6 -126/1/6
f -126/1/6 -130/1/6 -125/1/6
f -125/1/6 -130/1/6 -124/1/6
f -124/1/6 -130/1/6 -123/1/6
f -123/1/6 -130/1/6 -122/1/6
f -122/1/6 -130/1/6 -121/1/6
f -121/1/6 -130/1/6 -120/1/6
f -120/1/6 -130/1/6 -119/1/6
f -119/1/6 -130/1/6 -118/1/6
f -118/1/6 -130/1/6 -117/1/6
f -117/1/6 -130/1/6 -116/1/6
f -116/1/6 -130/1/6 -115/1/6
f -115/1/6 -130/1/6 -114/1/6
f -114/1/6 -130/1/6 -113/1/6
f -113/1/6 -130/1/6 -112/1/6
f -112/1/6 -130/1/6 -111/1/6
f -111/1/6 -130/1/6 -110/1/6
f -110/1/6 -130/1/6 -109/1/6
f -109/1/6 -130/1/6 -108/1/6
f -108/1/6 -130/1/6 -107/1/6
f -107/1/6 -130/1/6 -106/1/6
f -106/1/6 -130/1/6 -105/1/6
f -105/1/6 -130/1/6 -104/1/6
f -104/1/6 -130/1/6 -103/1/6
f -103/1/6 -130/1/6 -102/1/6
f -102/1/6 -130/1/6 -101/1/6
f -101/1/6 -130/1/6 -100/1/6
f -100/1/6 -130/1/6 -99/1/6
f -99/1/6 -130/1/6 -98/1/6
f -98/1/6 -130/1/6 -97/1/6
f -97/1/6 -130/1/6 -96/1/6
f -96/1/6 -130/1/6 -95/1/6
f -95/1/6 -130/1/6 -94/1/6
f -94/1/6 -130/1/6 -93/1/6
f -93/1/6 -130/1/6 -92/1/6
f -92/1/6 -130/1/6 -91/1/6
f -91/1/6 -130/1/6 -90/1/6
f -90/1/6 -130/1/6 -89/1/6
f -129/1/6 -128/1/6 -88/1/6
f -128/3/6 -127/3/6 -87/3/6
f -88/1/6 -128/1/6 -87/1/6
f -127/1/6 -126/1/6 -86/1/6
f -87/3/6 -127/3/6 -86/3/6
f -126/3/6 -125/3/6 -85/3/6
f -86/1/6 -126/1/6 -85/1/6
f -125/1/6 -124/1/6 -84/1/6
f -85/3/6 -125/3/6 -84/3/6
f -124/3/6 -123/3/6 -83/3/6
f -84/1/6 -124/1/6 -83/1/6
f -123/1/6 -122/1/6 -82/1/6
f -83/3/6 -123/3/6 -82/3/6
f -122/3/6 -121/3/6 -81/3/6
f -82/1/6 -122/1/6 -81/1/6
f -121/1/6 -120/1/6 -80/1/6
f -81/3/6 -121/3/6 -80/3/6
f -120/3/6 -119/3/6 -79/3/6
f -80/1/6 -120/1/6 -79/1/6
f -119/1/6 -118/1/6 -78/1/6
f -79/3/6 -119/3/6 -78/3/6
f -118/3/6 -117/3/6 -77/3/6
f -78/1/6 -118/1/6 -77/1/6
f -117/1/6 -116/1/6 -76/1/6
f -77/3/6 -117/3/6 -76/3/6
f -116/3/6 -115/3/6 -75/3/6
f -76/1/6 -116/1/6 -75/1/6
f -115/1/6 -114/1/6 -74/1/6
f -75/3/6 -115/3/6 -74/3/6
f -114/3/6 -113/3/6 -73/3/6
f -74/1/6 -114/1/6 -73/1/6
f -113/1/6 -112/1/6 -72/1/6
f -73/3/6 -113/3/6 -72/3/6
f -112/3/6 -111/3/6 -71/3/6
f -72/1/6 -112/1/6 -71/1/6
f -111/1/6 -110/1/6 -70/1/6
f -71/3/6 -111/3/6 -70/3/6
f -110/3/6 -109/3/6 -69/3/6
f -70/1/6 -110/1/6 -69/1/6
f -109/1/6 -108/1/6 -68/1/6
f -69/3/6 -109/3/6 -68/3/6
f -108/3/6 -107/3/6 -67/3/6
f -68/1/6 -108/1/6 -67/1/6
f -107/1/6 -106/1/6 -66/1/6
f -67/3/6 -107/3/6 -66/3/6
f -106/3/6 -105/3/6 -65/3/6
f -66/1/6 -106/1/6 -65/1/6
f -105/1/6 -104/1/6 -64/1/6
f -65/3/6 -105/3/6 -64/3/6
f -104/3/6 -103/3/6 -63/3/6
f -64/1/6 -104/1/6 -63/1/6
f -103/1/6 -102/1/6 -62/1/6
f -63/3/6 -103/3/6 -62/3/6
f -102/3/6 -101/3/6 -61/3/6
f -62/1/6 -102/1/6 -61/1/6
f -101/1/6 -100/1/6 -60/1/6
f -61/3/6 -101/3/6 -60/3/6
f -100/3/6 -99/3/6 -59/3/6
f -60/1/6 -100/1/6 -59/1/6
f -99/1/6 -98/1/6 -58/1/6
f -59/3/6 -99/3/6 -58/3/6
f -98/3/6 -97/3/6 -57/3/6
f -58/1/6 -98/1/6 -57/1/6
f -97/1/6 -96/1/6 -56/1/6
f -57/3/6 -97/3/6 -56/3/6
f -96/3/6 -95/3/6 -55/3/6
f -56/1/6 -96/1/6 -55/1/6
f -95/1/6 -94/1/6 -54/1/6
f -55/3/6 -95/3/6 -54/3/6
f -94/3/6 -93/3/6 -53/3/6
f -54/1/6 -94/1/6 -53/1/6
f -93/1/6 -92/1/6 -52/1/6
f -53/3/6 -93/3/6 -52/3/6
f -92/3/6 -91/3/6 -51/3/6
f -52/1/6 -92/1/6 -51/1/6
f -91/1/6 -90/1/6 -50/1/6
f -51/3/6 -91/3/6 -50/3/6
f -90/3/6 -89/3/6 -49/3/6
f -50/1/6 -90/1/6 -49/1/6
f -49/3/6 -89/3/6 -48/3/6
f -88/3/6 -87/3/6 -47/3/6
f -87/1/6 -86/1/6 -46/1/6
f -47/3/6 -87/3/6 -46/3/6
f -86/3/6 -85/3/6 -45/3/6
f -46/1/6 -86/1/6 -45/1/6
f -85/1/6 -84/1/6 -44/1/6
f -45/3/6 -85/3/6 -44/3/6
f -84/3/6 -83/3/6 -43/3/6
f -44/1/6 -84/1/6 -43/1/6
f -83/1/6 -82/1/6 -42/1/6
f -43/3/6 -83/3/6 -42/3/6
f -82/3/6 -81/3/6 -41/3/6
f -42/1/6 -82/1/6 -41/1/6
f -81/1/6 -80/1/6 -40/1/6
f -41/3/6 -81/3/6 -40/3/6
f -80/3/6 -79/3/6 -39/3/6
f -40/1/6 -80/1/6 -39/1/6
f -79/1/6 -78/1/6 -38/1/6
f -39/3/6 -79/3/6 -38/3/6
f -78/3/6 -77/3/6 -37/3/6
f -38/1/6 -78/1/6 -37/1/6
f -77/1/6 -76/1/6 -36/1/6
f -37/3/6 -77/3/6 -36/3/6
f -76/3/6 -75/3/6 -35/3/6
f -36/1/6 -76/1/6 -35/1/6
f -75/1/6 -74/1/6 -34/1/6
f -35/3/6 -75/3/6 -34/3/6
f -74/3/6 -73/3/6 -33/3/6
f -34/1/6 -74/1/6 -33/1/6
f -73/1/6 -72/1/6 -32/1/6
f -33/3/6 -73/3/6 -32/3/6
f -72/3/6 -71/3/6 -31/3/6
f -32/1/6 -72/1/6 -31/1/6
f -71/1/6 -70/1/6 -30/1/6
f -31/3/6 -71/3/6 -30/3/6
f -70/3/6 -69/3/6 -29/3/6
f -30/1/6 -70/1/6 -29/1/6
f -69/1/6 -68/1/6 -28/1/6
f -29/3/6 -69/3/6 -28/3/6
f -68/3/6 -67/3/6 -27/3/6
f -28/1/6 -68/1/6 -27/1/6
f -67/1/6 -66/1/6 -26/1/6
f -27/3/6 -67/3/6 -26/3/6
f -66/3/6 -65/3/6 -25/3/6
f -26/1/6 -66/1/6 -25/1/6
f -65/1/6 -64/1/6 -24/1/6
f -25/3/6 -65/3/6 -24/3/6
f -64/3/6 -63/3/6 -23/3/6
f -24/1/6 -64/1/6 -23/1/6
f -63/1/6 -62/1/6 -22/1/6
f -23/3/6 -63/3/6 -22/3/6
f -62/3/6 -61/3/6 -21/3/6
f -22/1/6 -62/1/6 -21/1/6
f -61/1/6 -60/1/6 -20/1/6
f -21/3/6 -61/3/6 -20/3/6
f -60/3/6 -59/3/6 -19/3/6
f -20/1/6 -60/1/6 -19/1/6
f -59/1/6 -58/1/6 -18/1/6
f -19/3/6 -59/3/6 -18/3/6
f -58/3/6 -57/3/6 -17/3/6
f -18/1/6 -58/1/6 -17/1/6
f -57/1/6 -56/1/6 -16/1/6
f -17/3/6 -57/3/6 -16/3/6
f -56/3/6 -55/3/6 -15/3/6
f -16/1/6 -56/1/6 -15/1/6
f -55/1/6 -54/1/6 -14/1/6
f -15/3/6 -55/3/6 -14/3/6
f -54/3/6 -53/3/6 -13/3/6
f -14/1/6 -54/1/6 -13/1/6
f -53/1/6 -52/1/6 -12/1/6
f -13/3/6 -53/3/6 -12/3/6
f -52/3/6 -51/3/6 -11/3/6
f -12/1/6 -52/1/6 -11/1/6
f -51/1/6 -50/1/6 -10/1/6
f -11/3/6 -51/3/6 -10/3/6
f -50/3/6 -49/3/6 -9/3/6
f -10/1/6 -50/1/6 -9/1/6
f -49/1/6 -48/1/6 -8/1/6
f -9/3/6 -49/3/6 -8/3/6
f -8/1/6 -48/1/6 -7/1/6
f -47/1/6 -46/1/6 -6/1/6
f -46/1/6 -45/1/6 -6/1/6
f -8/1/6 -7/1/6 -6/1/6
f -9/1/6 -8/1/6 -6/1/6
f -10/1/6 -9/1/6 -6/1/6
f -11/1/6 -10/1/6 -6/1/6
f -12/1/6 -11/1/6 -6/1/6
f -13/1/6 -12/1/6 -6/1/6
f -14/1/6 -13/1/6 -6/1/6
f -15/1/6 -14/1/6 -6/1/6
f -16/1/6 -15/1/6 -6/1/6
f -17/1/6 -16/1/6 -6/1/6
f -18/1/6 -17/1/6 -6/1/6
f -19/1/6 -18/1/6 -6/1/6
f -20/1/6 -19/1/6 -6/1/6
f -21/1/6 -20/1/6 -6/1/6
f -22/1/6 -21/1/6 -6/1/6
f -23/1/6 -22/1/6 -6/1/6
f -24/1/6 -23/1/6 -6/1/6
f -25/1/6 -24/1/6 -6/1/6
f -26/1/6 -25/1/6 -6/1/6
f -27/1/6 -26/1/6 -6/1/6
f -28/1/6 -27/1/6 -6/1/6
f -29/1/6 -28/1/6 -6/1/6
f -30/1/6 -29/1/6 -6/1/6
f -31/1/6 -30/1/6 -6/1/6
f -32/1/6 -31/1/6 -6/1/6
f -33/1/6 -32/1/6 -6/1/6
f -34/1/6 -33/1/6 -6/1/6
f -35/1/6 -34/1/6 -6/1/6
f -36/1/6 -35/1/6 -6/1/6
f -37/1/6 -36/1/6 -6/1/6
f -38/1/6 -37/1/6 -6/1/6
f -39/1/6 -38/1/6 -6/1/6
f -40/1/6 -39/1/6 -6/1/6
f -41/1/6 -40/1/6 -6/1/6
f -42/1/6 -41/1/6 -6/1/6
f -43/1/6 -42/1/6 -6/1/6
f -44/1/6 -43/1/6 -6/1/6
f -45/1/6 -44/1/6 -6/1/6
f -6/1/6 -7/1/6 -5/1/6
f -6/2/6 -5/2/6 -4/2/6
f -4/2/6 -5/2/6 -3/2/6
f -4/1/6 -3/1/6 -2/1/6
f -2/1/6 -3/1/6 -1/1/6
v -23 6 18.5
v -21 6 18.5
v 19 6 18.5
v 21 6 18.5
v -23 6 -8.5
v -21 6 -8.5
v 19 6 -8.5
v 21 6 -8.5
v -23 6 -10.5
v -21 6 -10.5
v 19 6 -10.5
v 21 6 -10.5
v -23 6 -11.5
v -21 6 -11.5
v 19 6 -11.5
v 21 6 -11.5
v -23 6 -12.5
v -21 6 -12.5
v 19 6 -12.5
v 21 6 -12.5
v -23 6 -16.5
v -21 6 -16.5
v 19 6 -16.5
v 21 6 -16.5
f -24/1/6 -23/1/6 -20/1/6
f -20/1/6 -23/1/6 -19/1/6
f -22/1/6 -21/1/6 -18/1/6
f -18/1/6 -21/1/6 -17/1/6
f -20/3/6 -19/3/6 -16/3/6
f -16/3/6 -19/3/6 -15/3/6
f -18/3/6 -17/3/6 -14/3/6
f -14/3/6 -17/3/6 -13/3/6
f -16/1/6 -15/1/6 -12/1/6
f -12/1/6 -15/1/6 -11/1/6
f -14/1/6 -13/1/6 -10/1/6
f -10/1/6 -13/1/6 -9/1/6
f -12/2/6 -11/2/6 -8/2/6
f -8/2/6 -11/2/6 -7/2/6
f -10/2/6 -9/2/6 -6/2/6
f -6/2/6 -9/2/6 -5/2/6
f -8/1/6 -7/1/6 -4/1/6
f -4/1/6 -7/1/6 -3/1/6
f -6/1/6 -5/1/6 -2/1/6
f -2/1/6 -5/1/6 -1/1/6
