# MagicaVoxel @ ephtracy

# material
mtllib platform2.mtl

# normals
vn -1 0 0
vn 1 0 0
vn 0 0 1
vn 0 0 -1
vn 0 -1 0
vn 0 1 0

# texcoords
vt 0.736328 0.5
vt 0.740234 0.5
vt 0.744141 0.5
vt 0.748047 0.5

# verts
v -5 0 5
v -5 1 5
v -5 1 4
v -5 0 4
v -5 1 3
v -5 0 3
v -5 1 2
v -5 0 2
v -5 1 1
v -5 0 1
v -5 1 -0
v -5 0 -0
v -5 1 -1
v -5 0 -1
v -5 1 -2
v -5 0 -2
v -5 1 -3
v -5 0 -3
v -5 1 -4
v -5 0 -4
v -5 1 -5
v -5 0 -5
v -5 2 5
v -5 2 4
v -5 2 3
v -5 2 2
v -5 2 1
v -5 2 -0
v -5 2 -1
v -5 2 -2
v -5 2 -3
v -5 2 -4
v -5 2 -5
v 5 0 5
v 5 0 4
v 5 1 4
v 5 1 5
v 5 0 3
v 5 1 3
v 5 0 2
v 5 1 2
v 5 0 1
v 5 1 1
v 5 0 -0
v 5 1 -0
v 5 0 -1
v 5 1 -1
v 5 0 -2
v 5 1 -2
v 5 0 -3
v 5 1 -3
v 5 0 -4
v 5 1 -4
v 5 0 -5
v 5 1 -5
v 5 2 4
v 5 2 5
v 5 2 3
v 5 2 2
v 5 2 1
v 5 2 -0
v 5 2 -1
v 5 2 -2
v 5 2 -3
v 5 2 -4
v 5 2 -5
v -4 0 5
v -4 1 5
v -3 0 5
v -3 1 5
v -2 0 5
v -2 1 5
v -1 0 5
v -1 1 5
v 0 0 5
v 0 1 5
v 1 0 5
v 1 1 5
v 2 0 5
v 2 1 5
v 3 0 5
v 3 1 5
v 4 0 5
v 4 1 5
v -4 2 5
v -3 2 5
v -2 2 5
v -1 2 5
v 0 2 5
v 1 2 5
v 2 2 5
v 3 2 5
v 4 2 5
v -4 1 -5
v -4 0 -5
v -3 1 -5
v -3 0 -5
v -2 1 -5
v -2 0 -5
v -1 1 -5
v -1 0 -5
v 0 1 -5
v 0 0 -5
v 1 1 -5
v 1 0 -5
v 2 1 -5
v 2 0 -5
v 3 1 -5
v 3 0 -5
v 4 1 -5
v 4 0 -5
v -4 2 -5
v -3 2 -5
v -2 2 -5
v -1 2 -5
v 0 2 -5
v 1 2 -5
v 2 2 -5
v 3 2 -5
v 4 2 -5
v -4 0 4
v -3 0 4
v -2 0 4
v -1 0 4
v 0 0 4
v 1 0 4
v 2 0 4
v 3 0 4
v 4 0 4
v -4 0 3
v -3 0 3
v -2 0 3
v -1 0 3
v 0 0 3
v 1 0 3
v 2 0 3
v 3 0 3
v 4 0 3
v -4 0 2
v -3 0 2
v -2 0 2
v -1 0 2
v 0 0 2
v 1 0 2
v 2 0 2
v 3 0 2
v 4 0 2
v -4 0 1
v -3 0 1
v -2 0 1
v -1 0 1
v 0 0 1
v 1 0 1
v 2 0 1
v 3 0 1
v 4 0 1
v -4 0 -0
v -3 0 -0
v -2 0 -0
v -1 0 -0
v 0 0 -0
v 1 0 -0
v 2 0 -0
v 3 0 -0
v 4 0 -0
v -4 0 -1
v -3 0 -1
v -2 0 -1
v -1 0 -1
v 0 0 -1
v 1 0 -1
v 2 0 -1
v 3 0 -1
v 4 0 -1
v -4 0 -2
v -3 0 -2
v -2 0 -2
v -1 0 -2
v 0 0 -2
v 1 0 -2
v 2 0 -2
v 3 0 -2
v 4 0 -2
v -4 0 -3
v -3 0 -3
v -2 0 -3
v -1 0 -3
v 0 0 -3
v 1 0 -3
v 2 0 -3
v 3 0 -3
v 4 0 -3
v -4 0 -4
v -3 0 -4
v -2 0 -4
v -1 0 -4
v 0 0 -4
v 1 0 -4
v 2 0 -4
v 3 0 -4
v 4 0 -4
v -4 2 4
v -3 2 4
v -2 2 4
v -1 2 4
v 0 2 4
v 1 2 4
v 2 2 4
v 3 2 4
v 4 2 4
v -4 2 3
v -3 2 3
v -2 2 3
v -1 2 3
v 0 2 3
v 1 2 3
v 2 2 3
v 3 2 3
v 4 2 3
v -4 2 2
v -3 2 2
v -2 2 2
v -1 2 2
v 0 2 2
v 1 2 2
v 2 2 2
v 3 2 2
v 4 2 2
v -4 2 1
v -3 2 1
v -2 2 1
v -1 2 1
v 0 2 1
v 1 2 1
v 2 2 1
v 3 2 1
v 4 2 1
v -4 2 -0
v -3 2 -0
v -2 2 -0
v -1 2 -0
v 0 2 -0
v 1 2 -0
v 2 2 -0
v 3 2 -0
v 4 2 -0
v -4 2 -1
v -3 2 -1
v -2 2 -1
v -1 2 -1
v 0 2 -1
v 1 2 -1
v 2 2 -1
v 3 2 -1
v 4 2 -1
v -4 2 -2
v -3 2 -2
v -2 2 -2
v -1 2 -2
v 0 2 -2
v 1 2 -2
v 2 2 -2
v 3 2 -2
v 4 2 -2
v -4 2 -3
v -3 2 -3
v -2 2 -3
v -1 2 -3
v 0 2 -3
v 1 2 -3
v 2 2 -3
v 3 2 -3
v 4 2 -3
v -4 2 -4
v -3 2 -4
v -2 2 -4
v -1 2 -4
v 0 2 -4
v 1 2 -4
v 2 2 -4
v 3 2 -4
v 4 2 -4

# faces

usemtl palette

f 1/4/1 2/4/1 3/4/1 4/4/1

f 4/4/1 3/4/1 5/4/1 6/4/1

f 6/4/1 5/4/1 7/4/1 8/4/1

f 8/4/1 7/4/1 9/4/1 10/4/1

f 10/4/1 9/4/1 11/4/1 12/4/1

f 12/4/1 11/4/1 13/4/1 14/4/1

f 14/4/1 13/4/1 15/4/1 16/4/1

f 16/4/1 15/4/1 17/4/1 18/4/1

f 18/4/1 17/4/1 19/4/1 20/4/1

f 20/4/1 19/4/1 21/4/1 22/4/1

f 2/2/1 23/2/1 24/2/1 3/2/1

f 3/2/1 24/2/1 25/2/1 5/2/1

f 5/2/1 25/2/1 26/2/1 7/2/1

f 7/2/1 26/2/1 27/2/1 9/2/1

f 9/2/1 27/2/1 28/2/1 11/2/1

f 11/2/1 28/2/1 29/2/1 13/2/1

f 13/2/1 29/2/1 30/2/1 15/2/1

f 15/2/1 30/2/1 31/2/1 17/2/1

f 17/2/1 31/2/1 32/2/1 19/2/1

f 19/2/1 32/2/1 33/2/1 21/2/1

f 34/4/2 35/4/2 36/4/2 37/4/2

f 35/4/2 38/4/2 39/4/2 36/4/2

f 38/4/2 40/4/2 41/4/2 39/4/2

f 40/4/2 42/4/2 43/4/2 41/4/2

f 42/4/2 44/4/2 45/4/2 43/4/2

f 44/4/2 46/4/2 47/4/2 45/4/2

f 46/4/2 48/4/2 49/4/2 47/4/2

f 48/4/2 50/4/2 51/4/2 49/4/2

f 50/4/2 52/4/2 53/4/2 51/4/2

f 52/4/2 54/4/2 55/4/2 53/4/2

f 37/2/2 36/2/2 56/2/2 57/2/2

f 36/2/2 39/2/2 58/2/2 56/2/2

f 39/2/2 41/2/2 59/2/2 58/2/2

f 41/2/2 43/2/2 60/2/2 59/2/2

f 43/2/2 45/2/2 61/2/2 60/2/2

f 45/2/2 47/2/2 62/2/2 61/2/2

f 47/2/2 49/2/2 63/2/2 62/2/2

f 49/2/2 51/2/2 64/2/2 63/2/2

f 51/2/2 53/2/2 65/2/2 64/2/2

f 53/2/2 55/2/2 66/2/2 65/2/2

f 1/4/3 67/4/3 68/4/3 2/4/3

f 67/4/3 69/4/3 70/4/3 68/4/3

f 69/4/3 71/4/3 72/4/3 70/4/3

f 71/4/3 73/4/3 74/4/3 72/4/3

f 73/4/3 75/4/3 76/4/3 74/4/3

f 75/4/3 77/4/3 78/4/3 76/4/3

f 77/4/3 79/4/3 80/4/3 78/4/3

f 79/4/3 81/4/3 82/4/3 80/4/3

f 81/4/3 83/4/3 84/4/3 82/4/3

f 83/4/3 34/4/3 37/4/3 84/4/3

f 2/2/3 68/2/3 85/2/3 23/2/3

f 68/2/3 70/2/3 86/2/3 85/2/3

f 70/2/3 72/2/3 87/2/3 86/2/3

f 72/2/3 74/2/3 88/2/3 87/2/3

f 74/2/3 76/2/3 89/2/3 88/2/3

f 76/2/3 78/2/3 90/2/3 89/2/3

f 78/2/3 80/2/3 91/2/3 90/2/3

f 80/2/3 82/2/3 92/2/3 91/2/3

f 82/2/3 84/2/3 93/2/3 92/2/3

f 84/2/3 37/2/3 57/2/3 93/2/3

f 22/4/4 21/4/4 94/4/4 95/4/4

f 95/4/4 94/4/4 96/4/4 97/4/4

f 97/4/4 96/4/4 98/4/4 99/4/4

f 99/4/4 98/4/4 100/4/4 101/4/4

f 101/4/4 100/4/4 102/4/4 103/4/4

f 103/4/4 102/4/4 104/4/4 105/4/4

f 105/4/4 104/4/4 106/4/4 107/4/4

f 107/4/4 106/4/4 108/4/4 109/4/4

f 109/4/4 108/4/4 110/4/4 111/4/4

f 111/4/4 110/4/4 55/4/4 54/4/4

f 21/2/4 33/2/4 112/2/4 94/2/4

f 94/2/4 112/2/4 113/2/4 96/2/4

f 96/2/4 113/2/4 114/2/4 98/2/4

f 98/2/4 114/2/4 115/2/4 100/2/4

f 100/2/4 115/2/4 116/2/4 102/2/4

f 102/2/4 116/2/4 117/2/4 104/2/4

f 104/2/4 117/2/4 118/2/4 106/2/4

f 106/2/4 118/2/4 119/2/4 108/2/4

f 108/2/4 119/2/4 120/2/4 110/2/4

f 110/2/4 120/2/4 66/2/4 55/2/4

f 1/4/5 4/4/5 121/4/5 67/4/5

f 67/4/5 121/4/5 122/4/5 69/4/5

f 69/4/5 122/4/5 123/4/5 71/4/5

f 71/4/5 123/4/5 124/4/5 73/4/5

f 73/4/5 124/4/5 125/4/5 75/4/5

f 75/4/5 125/4/5 126/4/5 77/4/5

f 77/4/5 126/4/5 127/4/5 79/4/5

f 79/4/5 127/4/5 128/4/5 81/4/5

f 81/4/5 128/4/5 129/4/5 83/4/5

f 83/4/5 129/4/5 35/4/5 34/4/5

f 4/4/5 6/4/5 130/4/5 121/4/5

f 121/3/5 130/3/5 131/3/5 122/3/5

f 122/3/5 131/3/5 132/3/5 123/3/5

f 123/3/5 132/3/5 133/3/5 124/3/5

f 124/3/5 133/3/5 134/3/5 125/3/5

f 125/3/5 134/3/5 135/3/5 126/3/5

f 126/3/5 135/3/5 136/3/5 127/3/5

f 127/3/5 136/3/5 137/3/5 128/3/5

f 128/3/5 137/3/5 138/3/5 129/3/5

f 129/4/5 138/4/5 38/4/5 35/4/5

f 6/4/5 8/4/5 139/4/5 130/4/5

f 130/3/5 139/3/5 140/3/5 131/3/5

f 131/3/5 140/3/5 141/3/5 132/3/5

f 132/3/5 141/3/5 142/3/5 133/3/5

f 133/3/5 142/3/5 143/3/5 134/3/5

f 134/3/5 143/3/5 144/3/5 135/3/5

f 135/3/5 144/3/5 145/3/5 136/3/5

f 136/3/5 145/3/5 146/3/5 137/3/5

f 137/3/5 146/3/5 147/3/5 138/3/5

f 138/4/5 147/4/5 40/4/5 38/4/5

f 8/4/5 10/4/5 148/4/5 139/4/5

f 139/3/5 148/3/5 149/3/5 140/3/5

f 140/3/5 149/3/5 150/3/5 141/3/5

f 141/3/5 150/3/5 151/3/5 142/3/5

f 142/3/5 151/3/5 152/3/5 143/3/5

f 143/3/5 152/3/5 153/3/5 144/3/5

f 144/3/5 153/3/5 154/3/5 145/3/5

f 145/3/5 154/3/5 155/3/5 146/3/5

f 146/3/5 155/3/5 156/3/5 147/3/5

f 147/4/5 156/4/5 42/4/5 40/4/5

f 10/4/5 12/4/5 157/4/5 148/4/5

f 148/3/5 157/3/5 158/3/5 149/3/5

f 149/3/5 158/3/5 159/3/5 150/3/5

f 150/3/5 159/3/5 160/3/5 151/3/5

f 151/3/5 160/3/5 161/3/5 152/3/5

f 152/3/5 161/3/5 162/3/5 153/3/5

f 153/3/5 162/3/5 163/3/5 154/3/5

f 154/3/5 163/3/5 164/3/5 155/3/5

f 155/3/5 164/3/5 165/3/5 156/3/5

f 156/4/5 165/4/5 44/4/5 42/4/5

f 12/4/5 14/4/5 166/4/5 157/4/5

f 157/3/5 166/3/5 167/3/5 158/3/5

f 158/3/5 167/3/5 168/3/5 159/3/5

f 159/3/5 168/3/5 169/3/5 160/3/5

f 160/3/5 169/3/5 170/3/5 161/3/5

f 161/3/5 170/3/5 171/3/5 162/3/5

f 162/3/5 171/3/5 172/3/5 163/3/5

f 163/3/5 172/3/5 173/3/5 164/3/5

f 164/3/5 173/3/5 174/3/5 165/3/5

f 165/4/5 174/4/5 46/4/5 44/4/5

f 14/4/5 16/4/5 175/4/5 166/4/5

f 166/3/5 175/3/5 176/3/5 167/3/5

f 167/3/5 176/3/5 177/3/5 168/3/5

f 168/3/5 177/3/5 178/3/5 169/3/5

f 169/3/5 178/3/5 179/3/5 170/3/5

f 170/3/5 179/3/5 180/3/5 171/3/5

f 171/3/5 180/3/5 181/3/5 172/3/5

f 172/3/5 181/3/5 182/3/5 173/3/5

f 173/3/5 182/3/5 183/3/5 174/3/5

f 174/4/5 183/4/5 48/4/5 46/4/5

f 16/4/5 18/4/5 184/4/5 175/4/5

f 175/3/5 184/3/5 185/3/5 176/3/5

f 176/3/5 185/3/5 186/3/5 177/3/5

f 177/3/5 186/3/5 187/3/5 178/3/5

f 178/3/5 187/3/5 188/3/5 179/3/5

f 179/3/5 188/3/5 189/3/5 180/3/5

f 180/3/5 189/3/5 190/3/5 181/3/5

f 181/3/5 190/3/5 191/3/5 182/3/5

f 182/3/5 191/3/5 192/3/5 183/3/5

f 183/4/5 192/4/5 50/4/5 48/4/5

f 18/4/5 20/4/5 193/4/5 184/4/5

f 184/3/5 193/3/5 194/3/5 185/3/5

f 185/3/5 194/3/5 195/3/5 186/3/5

f 186/3/5 195/3/5 196/3/5 187/3/5

f 187/3/5 196/3/5 197/3/5 188/3/5

f 188/3/5 197/3/5 198/3/5 189/3/5

f 189/3/5 198/3/5 199/3/5 190/3/5

f 190/3/5 199/3/5 200/3/5 191/3/5

f 191/3/5 200/3/5 201/3/5 192/3/5

f 192/4/5 201/4/5 52/4/5 50/4/5

f 20/4/5 22/4/5 95/4/5 193/4/5

f 193/4/5 95/4/5 97/4/5 194/4/5

f 194/4/5 97/4/5 99/4/5 195/4/5

f 195/4/5 99/4/5 101/4/5 196/4/5

f 196/4/5 101/4/5 103/4/5 197/4/5

f 197/4/5 103/4/5 105/4/5 198/4/5

f 198/4/5 105/4/5 107/4/5 199/4/5

f 199/4/5 107/4/5 109/4/5 200/4/5

f 200/4/5 109/4/5 111/4/5 201/4/5

f 201/4/5 111/4/5 54/4/5 52/4/5

f 23/2/6 85/2/6 202/2/6 24/2/6

f 85/2/6 86/2/6 203/2/6 202/2/6

f 86/2/6 87/2/6 204/2/6 203/2/6

f 87/2/6 88/2/6 205/2/6 204/2/6

f 88/2/6 89/2/6 206/2/6 205/2/6

f 89/2/6 90/2/6 207/2/6 206/2/6

f 90/2/6 91/2/6 208/2/6 207/2/6

f 91/2/6 92/2/6 209/2/6 208/2/6

f 92/2/6 93/2/6 210/2/6 209/2/6

f 93/2/6 57/2/6 56/2/6 210/2/6

f 24/2/6 202/2/6 211/2/6 25/2/6

f 202/1/6 203/1/6 212/1/6 211/1/6

f 203/1/6 204/1/6 213/1/6 212/1/6

f 204/1/6 205/1/6 214/1/6 213/1/6

f 205/1/6 206/1/6 215/1/6 214/1/6

f 206/1/6 207/1/6 216/1/6 215/1/6

f 207/1/6 208/1/6 217/1/6 216/1/6

f 208/1/6 209/1/6 218/1/6 217/1/6

f 209/1/6 210/1/6 219/1/6 218/1/6

f 210/2/6 56/2/6 58/2/6 219/2/6

f 25/2/6 211/2/6 220/2/6 26/2/6

f 211/1/6 212/1/6 221/1/6 220/1/6

f 212/1/6 213/1/6 222/1/6 221/1/6

f 213/1/6 214/1/6 223/1/6 222/1/6

f 214/1/6 215/1/6 224/1/6 223/1/6

f 215/1/6 216/1/6 225/1/6 224/1/6

f 216/1/6 217/1/6 226/1/6 225/1/6

f 217/1/6 218/1/6 227/1/6 226/1/6

f 218/1/6 219/1/6 228/1/6 227/1/6

f 219/2/6 58/2/6 59/2/6 228/2/6

f 26/2/6 220/2/6 229/2/6 27/2/6

f 220/1/6 221/1/6 230/1/6 229/1/6

f 221/1/6 222/1/6 231/1/6 230/1/6

f 222/1/6 223/1/6 232/1/6 231/1/6

f 223/1/6 224/1/6 233/1/6 232/1/6

f 224/1/6 225/1/6 234/1/6 233/1/6

f 225/1/6 226/1/6 235/1/6 234/1/6

f 226/1/6 227/1/6 236/1/6 235/1/6

f 227/1/6 228/1/6 237/1/6 236/1/6

f 228/2/6 59/2/6 60/2/6 237/2/6

f 27/2/6 229/2/6 238/2/6 28/2/6

f 229/1/6 230/1/6 239/1/6 238/1/6

f 230/1/6 231/1/6 240/1/6 239/1/6

f 231/1/6 232/1/6 241/1/6 240/1/6

f 232/1/6 233/1/6 242/1/6 241/1/6

f 233/1/6 234/1/6 243/1/6 242/1/6

f 234/1/6 235/1/6 244/1/6 243/1/6

f 235/1/6 236/1/6 245/1/6 244/1/6

f 236/1/6 237/1/6 246/1/6 245/1/6

f 237/2/6 60/2/6 61/2/6 246/2/6

f 28/2/6 238/2/6 247/2/6 29/2/6

f 238/1/6 239/1/6 248/1/6 247/1/6

f 239/1/6 240/1/6 249/1/6 248/1/6

f 240/1/6 241/1/6 250/1/6 249/1/6

f 241/1/6 242/1/6 251/1/6 250/1/6

f 242/1/6 243/1/6 252/1/6 251/1/6

f 243/1/6 244/1/6 253/1/6 252/1/6

f 244/1/6 245/1/6 254/1/6 253/1/6

f 245/1/6 246/1/6 255/1/6 254/1/6

f 246/2/6 61/2/6 62/2/6 255/2/6

f 29/2/6 247/2/6 256/2/6 30/2/6

f 247/1/6 248/1/6 257/1/6 256/1/6

f 248/1/6 249/1/6 258/1/6 257/1/6

f 249/1/6 250/1/6 259/1/6 258/1/6

f 250/1/6 251/1/6 260/1/6 259/1/6

f 251/1/6 252/1/6 261/1/6 260/1/6

f 252/1/6 253/1/6 262/1/6 261/1/6

f 253/1/6 254/1/6 263/1/6 262/1/6

f 254/1/6 255/1/6 264/1/6 263/1/6

f 255/2/6 62/2/6 63/2/6 264/2/6

f 30/2/6 256/2/6 265/2/6 31/2/6

f 256/1/6 257/1/6 266/1/6 265/1/6

f 257/1/6 258/1/6 267/1/6 266/1/6

f 258/1/6 259/1/6 268/1/6 267/1/6

f 259/1/6 260/1/6 269/1/6 268/1/6

f 260/1/6 261/1/6 270/1/6 269/1/6

f 261/1/6 262/1/6 271/1/6 270/1/6

f 262/1/6 263/1/6 272/1/6 271/1/6

f 263/1/6 264/1/6 273/1/6 272/1/6

f 264/2/6 63/2/6 64/2/6 273/2/6

f 31/2/6 265/2/6 274/2/6 32/2/6

f 265/1/6 266/1/6 275/1/6 274/1/6

f 266/1/6 267/1/6 276/1/6 275/1/6

f 267/1/6 268/1/6 277/1/6 276/1/6

f 268/1/6 269/1/6 278/1/6 277/1/6

f 269/1/6 270/1/6 279/1/6 278/1/6

f 270/1/6 271/1/6 280/1/6 279/1/6

f 271/1/6 272/1/6 281/1/6 280/1/6

f 272/1/6 273/1/6 282/1/6 281/1/6

f 273/2/6 64/2/6 65/2/6 282/2/6

f 32/2/6 274/2/6 112/2/6 33/2/6

f 274/2/6 275/2/6 113/2/6 112/2/6

f 275/2/6 276/2/6 114/2/6 113/2/6

f 276/2/6 277/2/6 115/2/6 114/2/6

f 277/2/6 278/2/6 116/2/6 115/2/6

f 278/2/6 279/2/6 117/2/6 116/2/6

f 279/2/6 280/2/6 118/2/6 117/2/6

f 280/2/6 281/2/6 119/2/6 118/2/6

f 281/2/6 282/2/6 120/2/6 119/2/6

f 282/2/6 65/2/6 66/2/6 120/2/6

# numNormals 6
# numTexCoords 4
# numVerts 282
# numFaces 280
