# MagicaVoxel @ ephtracy

# material
mtllib sidebar.mtl

# normals
vn -1 0 0
vn 1 0 0
vn 0 0 1
vn 0 0 -1
vn 0 -1 0
vn 0 1 0

# texcoords
vt 0.0136719 0.5
vt 0.189453 0.5
vt 0.193359 0.5

# verts
v 2 5 4
v 2 6 4
v 2 6 3
v 2 5 3
v 2 4 3
v 2 5 2
v 2 4 2
v 2 5 1
v 2 4 1
v 2 2 -1
v 2 3 -1
v 2 3 -2
v 2 2 -2
v 2 0 4
v 2 1 4
v 2 1 3
v 2 0 3
v 2 2 3
v 2 3 3
v 2 3 2
v 2 2 2
v 2 4 4
v 2 3 1
v 2 4 -0
v 2 3 -0
v 2 1 2
v 2 0 2
v 2 4 -1
v 2 2 -3
v 2 3 -3
v 2 3 -4
v 2 2 -4
v 2 3 4
v 2 1 1
v 2 0 1
v 2 4 -2
v 2 1 -0
v 2 0 -0
v 2 2 4
v 2 4 -3
v 2 4 -4
v 2 5 -0
v 2 6 -0
v 2 6 -1
v 2 5 -1
v 2 1 -1
v 2 0 -1
v 2 2 1
v 2 2 -0
v 2 5 -2
v 2 1 -2
v 2 0 -2
v 2 6 2
v 2 6 1
v 2 1 -3
v 2 0 -3
v 2 1 -4
v 2 6 -2
v 2 6 -3
v 2 5 -3
v 2 0 -4
v 2 6 -4
v 2 5 -4
v 4 5 4
v 4 5 3
v 4 6 3
v 4 6 4
v 4 2 -1
v 4 2 -2
v 4 3 -2
v 4 3 -1
v 4 0 4
v 4 0 3
v 4 1 3
v 4 1 4
v 4 2 3
v 4 2 2
v 4 3 2
v 4 3 3
v 4 1 1
v 4 1 -0
v 4 2 -0
v 4 2 1
v 4 3 1
v 4 3 -0
v 4 4 -0
v 4 4 1
v 4 0 2
v 4 1 2
v 4 4 -1
v 4 2 -3
v 4 2 -4
v 4 3 -4
v 4 3 -3
v 4 3 4
v 4 4 3
v 4 4 4
v 4 0 1
v 4 4 2
v 4 4 -2
v 4 0 -0
v 4 2 4
v 4 4 -4
v 4 4 -3
v 4 5 -0
v 4 5 -1
v 4 6 -1
v 4 6 -0
v 4 0 -1
v 4 1 -1
v 4 0 -2
v 4 1 -2
v 4 5 2
v 4 6 2
v 4 5 1
v 4 6 1
v 4 0 -3
v 4 1 -3
v 4 1 -4
v 4 5 -2
v 4 5 -3
v 4 6 -3
v 4 6 -2
v 4 0 -4
v 4 5 -4
v 4 6 -4
v 3 5 4
v 3 6 4
v 3 0 4
v 3 1 4
v 3 4 4
v 3 3 4
v 3 2 4
v 3 3 -4
v 3 2 -4
v 3 4 -4
v 3 1 -4
v 3 0 -4
v 3 5 -4
v 3 6 -4
v 3 0 3
v 3 0 2
v 3 0 1
v 3 0 -0
v 3 0 -1
v 3 0 -2
v 3 0 -3
v 3 6 3
v 3 6 -0
v 3 6 -1
v 3 6 2
v 3 6 1
v 3 6 -2
v 3 6 -3

# faces

usemtl palette

f 1/3/1 2/3/1 3/3/1 4/3/1

f 5/1/1 4/1/1 6/1/1 7/1/1

f 7/1/1 6/1/1 8/1/1 9/1/1

f 10/3/1 11/3/1 12/3/1 13/3/1

f 14/3/1 15/3/1 16/3/1 17/3/1

f 18/3/1 19/3/1 20/3/1 21/3/1

f 22/1/1 1/1/1 4/1/1 5/1/1

f 23/3/1 9/3/1 24/3/1 25/3/1

f 17/3/1 16/3/1 26/3/1 27/3/1

f 25/3/1 24/3/1 28/3/1 11/3/1

f 29/3/1 30/3/1 31/3/1 32/3/1

f 33/3/1 22/3/1 5/3/1 19/3/1

f 27/3/1 26/3/1 34/3/1 35/3/1

f 19/3/1 5/3/1 7/3/1 20/3/1

f 20/3/1 7/3/1 9/3/1 23/3/1

f 11/3/1 28/3/1 36/3/1 12/3/1

f 35/3/1 34/3/1 37/3/1 38/3/1

f 39/3/1 33/3/1 19/3/1 18/3/1

f 30/3/1 40/3/1 41/3/1 31/3/1

f 42/3/1 43/3/1 44/3/1 45/3/1

f 38/3/1 37/3/1 46/3/1 47/3/1

f 9/1/1 8/1/1 42/1/1 24/1/1

f 34/3/1 48/3/1 49/3/1 37/3/1

f 15/3/1 39/3/1 18/3/1 16/3/1

f 28/1/1 45/1/1 50/1/1 36/1/1

f 46/3/1 10/3/1 13/3/1 51/3/1

f 47/3/1 46/3/1 51/3/1 52/3/1

f 13/3/1 12/3/1 30/3/1 29/3/1

f 4/3/1 3/3/1 53/3/1 6/3/1

f 6/3/1 53/3/1 54/3/1 8/3/1

f 52/3/1 51/3/1 55/3/1 56/3/1

f 55/3/1 29/3/1 32/3/1 57/3/1

f 50/3/1 58/3/1 59/3/1 60/3/1

f 37/3/1 49/3/1 10/3/1 46/3/1

f 56/3/1 55/3/1 57/3/1 61/3/1

f 60/3/1 59/3/1 62/3/1 63/3/1

f 36/1/1 50/1/1 60/1/1 40/1/1

f 21/3/1 20/3/1 23/3/1 48/3/1

f 12/3/1 36/3/1 40/3/1 30/3/1

f 45/3/1 44/3/1 58/3/1 50/3/1

f 49/3/1 25/3/1 11/3/1 10/3/1

f 51/3/1 13/3/1 29/3/1 55/3/1

f 16/3/1 18/3/1 21/3/1 26/3/1

f 24/1/1 42/1/1 45/1/1 28/1/1

f 8/3/1 54/3/1 43/3/1 42/3/1

f 48/3/1 23/3/1 25/3/1 49/3/1

f 40/1/1 60/1/1 63/1/1 41/1/1

f 26/3/1 21/3/1 48/3/1 34/3/1

f 64/3/2 65/3/2 66/3/2 67/3/2

f 68/3/2 69/3/2 70/3/2 71/3/2

f 72/3/2 73/3/2 74/3/2 75/3/2

f 76/3/2 77/3/2 78/3/2 79/3/2

f 80/3/2 81/3/2 82/3/2 83/3/2

f 84/3/2 85/3/2 86/3/2 87/3/2

f 73/3/2 88/3/2 89/3/2 74/3/2

f 85/3/2 71/3/2 90/3/2 86/3/2

f 91/3/2 92/3/2 93/3/2 94/3/2

f 95/3/2 79/3/2 96/3/2 97/3/2

f 88/3/2 98/3/2 80/3/2 89/3/2

f 79/3/2 78/3/2 99/3/2 96/3/2

f 78/3/2 84/3/2 87/3/2 99/3/2

f 71/3/2 70/3/2 100/3/2 90/3/2

f 98/3/2 101/3/2 81/3/2 80/3/2

f 102/3/2 76/3/2 79/3/2 95/3/2

f 94/3/2 93/3/2 103/3/2 104/3/2

f 105/3/2 106/3/2 107/3/2 108/3/2

f 101/3/2 109/3/2 110/3/2 81/3/2

f 75/3/2 74/3/2 76/3/2 102/3/2

f 109/3/2 111/3/2 112/3/2 110/3/2

f 69/3/2 91/3/2 94/3/2 70/3/2

f 65/2/2 113/2/2 114/2/2 66/2/2

f 113/3/2 115/3/2 116/3/2 114/3/2

f 111/3/2 117/3/2 118/3/2 112/3/2

f 118/3/2 119/3/2 92/3/2 91/3/2

f 120/3/2 121/3/2 122/3/2 123/3/2

f 81/3/2 110/3/2 68/3/2 82/3/2

f 117/3/2 124/3/2 119/3/2 118/3/2

f 121/3/2 125/3/2 126/3/2 122/3/2

f 83/3/2 82/3/2 85/3/2 84/3/2

f 77/3/2 83/3/2 84/3/2 78/3/2

f 70/3/2 94/3/2 104/3/2 100/3/2

f 106/3/2 120/3/2 123/3/2 107/3/2

f 82/3/2 68/3/2 71/3/2 85/3/2

f 112/3/2 118/3/2 91/3/2 69/3/2

f 74/3/2 89/3/2 77/3/2 76/3/2

f 110/3/2 112/3/2 69/3/2 68/3/2

f 115/3/2 105/3/2 108/3/2 116/3/2

f 89/3/2 80/3/2 83/3/2 77/3/2

f 97/1/2 96/1/2 65/1/2 64/1/2

f 96/1/2 99/1/2 113/1/2 65/1/2

f 99/1/2 87/1/2 115/1/2 113/1/2

f 87/1/2 86/1/2 105/1/2 115/1/2

f 86/1/2 90/1/2 106/1/2 105/1/2

f 90/1/2 100/1/2 120/1/2 106/1/2

f 100/1/2 104/1/2 121/1/2 120/1/2

f 104/1/2 103/1/2 125/1/2 121/1/2

f 127/3/3 64/3/3 67/3/3 128/3/3

f 1/3/3 127/3/3 128/3/3 2/3/3

f 14/3/3 129/3/3 130/3/3 15/3/3

f 129/3/3 72/3/3 75/3/3 130/3/3

f 22/1/3 131/1/3 127/1/3 1/1/3

f 132/3/3 95/3/3 97/3/3 131/3/3

f 33/3/3 132/3/3 131/3/3 22/3/3

f 133/3/3 102/3/3 95/3/3 132/3/3

f 39/3/3 133/3/3 132/3/3 33/3/3

f 130/3/3 75/3/3 102/3/3 133/3/3

f 15/3/3 130/3/3 133/3/3 39/3/3

f 131/1/3 97/1/3 64/1/3 127/1/3

f 32/3/4 31/3/4 134/3/4 135/3/4

f 135/3/4 134/3/4 93/3/4 92/3/4

f 31/3/4 41/3/4 136/3/4 134/3/4

f 134/3/4 136/3/4 103/3/4 93/3/4

f 57/3/4 32/3/4 135/3/4 137/3/4

f 137/3/4 135/3/4 92/3/4 119/3/4

f 61/3/4 57/3/4 137/3/4 138/3/4

f 138/3/4 137/3/4 119/3/4 124/3/4

f 139/3/4 140/3/4 126/3/4 125/3/4

f 63/3/4 62/3/4 140/3/4 139/3/4

f 41/1/4 63/1/4 139/1/4 136/1/4

f 136/1/4 139/1/4 125/1/4 103/1/4

f 14/3/5 17/3/5 141/3/5 129/3/5

f 129/3/5 141/3/5 73/3/5 72/3/5

f 17/3/5 27/3/5 142/3/5 141/3/5

f 141/3/5 142/3/5 88/3/5 73/3/5

f 27/3/5 35/3/5 143/3/5 142/3/5

f 142/3/5 143/3/5 98/3/5 88/3/5

f 35/3/5 38/3/5 144/3/5 143/3/5

f 143/3/5 144/3/5 101/3/5 98/3/5

f 38/3/5 47/3/5 145/3/5 144/3/5

f 144/3/5 145/3/5 109/3/5 101/3/5

f 47/3/5 52/3/5 146/3/5 145/3/5

f 145/3/5 146/3/5 111/3/5 109/3/5

f 52/3/5 56/3/5 147/3/5 146/3/5

f 146/3/5 147/3/5 117/3/5 111/3/5

f 56/3/5 61/3/5 138/3/5 147/3/5

f 147/3/5 138/3/5 124/3/5 117/3/5

f 128/3/6 67/3/6 66/3/6 148/3/6

f 2/3/6 128/3/6 148/3/6 3/3/6

f 149/3/6 108/3/6 107/3/6 150/3/6

f 43/3/6 149/3/6 150/3/6 44/3/6

f 3/3/6 148/3/6 151/3/6 53/3/6

f 148/2/6 66/2/6 114/2/6 151/2/6

f 151/3/6 114/3/6 116/3/6 152/3/6

f 53/3/6 151/3/6 152/3/6 54/3/6

f 153/3/6 123/3/6 122/3/6 154/3/6

f 58/3/6 153/3/6 154/3/6 59/3/6

f 154/3/6 122/3/6 126/3/6 140/3/6

f 59/3/6 154/3/6 140/3/6 62/3/6

f 150/3/6 107/3/6 123/3/6 153/3/6

f 44/3/6 150/3/6 153/3/6 58/3/6

f 54/3/6 152/3/6 149/3/6 43/3/6

f 152/3/6 116/3/6 108/3/6 149/3/6

# numNormals 6
# numTexCoords 3
# numVerts 154
# numFaces 152
