# MagicaVoxel @ ephtracy

# material
mtllib 1x1.mtl

# normals
vn -1 0 0
vn 1 0 0
vn 0 0 1
vn 0 0 -1
vn 0 -1 0
vn 0 1 0

# texcoords
vt 0.189453 0.5

# verts
v -4 0 4
v -4 1 4
v -4 1 3
v -4 0 3
v -4 1 2
v -4 0 2
v -4 1 1
v -4 0 1
v -4 1 -0
v -4 0 -0
v -4 1 -1
v -4 0 -1
v -4 1 -2
v -4 0 -2
v -4 1 -3
v -4 0 -3
v -4 1 -4
v -4 0 -4
v -4 2 4
v -4 2 3
v -4 2 2
v -4 2 1
v -4 2 -0
v -4 2 -1
v -4 2 -2
v -4 2 -3
v -4 2 -4
v 4 0 4
v 4 0 3
v 4 1 3
v 4 1 4
v 4 0 2
v 4 1 2
v 4 0 1
v 4 1 1
v 4 0 -0
v 4 1 -0
v 4 0 -1
v 4 1 -1
v 4 0 -2
v 4 1 -2
v 4 0 -3
v 4 1 -3
v 4 0 -4
v 4 1 -4
v 4 2 3
v 4 2 4
v 4 2 2
v 4 2 1
v 4 2 -0
v 4 2 -1
v 4 2 -2
v 4 2 -3
v 4 2 -4
v -3 0 4
v -3 1 4
v -2 0 4
v -2 1 4
v -1 0 4
v -1 1 4
v 0 0 4
v 0 1 4
v 1 0 4
v 1 1 4
v 2 0 4
v 2 1 4
v 3 0 4
v 3 1 4
v -3 2 4
v -2 2 4
v -1 2 4
v 0 2 4
v 1 2 4
v 2 2 4
v 3 2 4
v -3 1 -4
v -3 0 -4
v -2 1 -4
v -2 0 -4
v -1 1 -4
v -1 0 -4
v 0 1 -4
v 0 0 -4
v 1 1 -4
v 1 0 -4
v 2 1 -4
v 2 0 -4
v 3 1 -4
v 3 0 -4
v -3 2 -4
v -2 2 -4
v -1 2 -4
v 0 2 -4
v 1 2 -4
v 2 2 -4
v 3 2 -4
v -3 0 3
v -2 0 3
v -1 0 3
v 0 0 3
v 1 0 3
v 2 0 3
v 3 0 3
v -3 0 2
v -2 0 2
v -1 0 2
v 0 0 2
v 1 0 2
v 2 0 2
v 3 0 2
v -3 0 1
v -2 0 1
v -1 0 1
v 0 0 1
v 1 0 1
v 2 0 1
v 3 0 1
v -3 0 -0
v -2 0 -0
v -1 0 -0
v 0 0 -0
v 1 0 -0
v 2 0 -0
v 3 0 -0
v -3 0 -1
v -2 0 -1
v -1 0 -1
v 0 0 -1
v 1 0 -1
v 2 0 -1
v 3 0 -1
v -3 0 -2
v -2 0 -2
v -1 0 -2
v 0 0 -2
v 1 0 -2
v 2 0 -2
v 3 0 -2
v -3 0 -3
v -2 0 -3
v -1 0 -3
v 0 0 -3
v 1 0 -3
v 2 0 -3
v 3 0 -3
v -3 2 3
v -2 2 3
v -1 2 3
v 0 2 3
v 1 2 3
v 2 2 3
v 3 2 3
v -3 2 2
v -2 2 2
v -1 2 2
v 0 2 2
v 1 2 2
v 2 2 2
v 3 2 2
v -3 2 1
v -2 2 1
v -1 2 1
v 0 2 1
v 1 2 1
v 2 2 1
v 3 2 1
v -3 2 -0
v -2 2 -0
v -1 2 -0
v 0 2 -0
v 1 2 -0
v 2 2 -0
v 3 2 -0
v -3 2 -1
v -2 2 -1
v -1 2 -1
v 0 2 -1
v 1 2 -1
v 2 2 -1
v 3 2 -1
v -3 2 -2
v -2 2 -2
v -1 2 -2
v 0 2 -2
v 1 2 -2
v 2 2 -2
v 3 2 -2
v -3 2 -3
v -2 2 -3
v -1 2 -3
v 0 2 -3
v 1 2 -3
v 2 2 -3
v 3 2 -3

# faces

usemtl palette

f 1/1/1 2/1/1 3/1/1 4/1/1

f 4/1/1 3/1/1 5/1/1 6/1/1

f 6/1/1 5/1/1 7/1/1 8/1/1

f 8/1/1 7/1/1 9/1/1 10/1/1

f 10/1/1 9/1/1 11/1/1 12/1/1

f 12/1/1 11/1/1 13/1/1 14/1/1

f 14/1/1 13/1/1 15/1/1 16/1/1

f 16/1/1 15/1/1 17/1/1 18/1/1

f 2/1/1 19/1/1 20/1/1 3/1/1

f 3/1/1 20/1/1 21/1/1 5/1/1

f 5/1/1 21/1/1 22/1/1 7/1/1

f 7/1/1 22/1/1 23/1/1 9/1/1

f 9/1/1 23/1/1 24/1/1 11/1/1

f 11/1/1 24/1/1 25/1/1 13/1/1

f 13/1/1 25/1/1 26/1/1 15/1/1

f 15/1/1 26/1/1 27/1/1 17/1/1

f 28/1/2 29/1/2 30/1/2 31/1/2

f 29/1/2 32/1/2 33/1/2 30/1/2

f 32/1/2 34/1/2 35/1/2 33/1/2

f 34/1/2 36/1/2 37/1/2 35/1/2

f 36/1/2 38/1/2 39/1/2 37/1/2

f 38/1/2 40/1/2 41/1/2 39/1/2

f 40/1/2 42/1/2 43/1/2 41/1/2

f 42/1/2 44/1/2 45/1/2 43/1/2

f 31/1/2 30/1/2 46/1/2 47/1/2

f 30/1/2 33/1/2 48/1/2 46/1/2

f 33/1/2 35/1/2 49/1/2 48/1/2

f 35/1/2 37/1/2 50/1/2 49/1/2

f 37/1/2 39/1/2 51/1/2 50/1/2

f 39/1/2 41/1/2 52/1/2 51/1/2

f 41/1/2 43/1/2 53/1/2 52/1/2

f 43/1/2 45/1/2 54/1/2 53/1/2

f 1/1/3 55/1/3 56/1/3 2/1/3

f 55/1/3 57/1/3 58/1/3 56/1/3

f 57/1/3 59/1/3 60/1/3 58/1/3

f 59/1/3 61/1/3 62/1/3 60/1/3

f 61/1/3 63/1/3 64/1/3 62/1/3

f 63/1/3 65/1/3 66/1/3 64/1/3

f 65/1/3 67/1/3 68/1/3 66/1/3

f 67/1/3 28/1/3 31/1/3 68/1/3

f 2/1/3 56/1/3 69/1/3 19/1/3

f 56/1/3 58/1/3 70/1/3 69/1/3

f 58/1/3 60/1/3 71/1/3 70/1/3

f 60/1/3 62/1/3 72/1/3 71/1/3

f 62/1/3 64/1/3 73/1/3 72/1/3

f 64/1/3 66/1/3 74/1/3 73/1/3

f 66/1/3 68/1/3 75/1/3 74/1/3

f 68/1/3 31/1/3 47/1/3 75/1/3

f 18/1/4 17/1/4 76/1/4 77/1/4

f 77/1/4 76/1/4 78/1/4 79/1/4

f 79/1/4 78/1/4 80/1/4 81/1/4

f 81/1/4 80/1/4 82/1/4 83/1/4

f 83/1/4 82/1/4 84/1/4 85/1/4

f 85/1/4 84/1/4 86/1/4 87/1/4

f 87/1/4 86/1/4 88/1/4 89/1/4

f 89/1/4 88/1/4 45/1/4 44/1/4

f 17/1/4 27/1/4 90/1/4 76/1/4

f 76/1/4 90/1/4 91/1/4 78/1/4

f 78/1/4 91/1/4 92/1/4 80/1/4

f 80/1/4 92/1/4 93/1/4 82/1/4

f 82/1/4 93/1/4 94/1/4 84/1/4

f 84/1/4 94/1/4 95/1/4 86/1/4

f 86/1/4 95/1/4 96/1/4 88/1/4

f 88/1/4 96/1/4 54/1/4 45/1/4

f 1/1/5 4/1/5 97/1/5 55/1/5

f 55/1/5 97/1/5 98/1/5 57/1/5

f 57/1/5 98/1/5 99/1/5 59/1/5

f 59/1/5 99/1/5 100/1/5 61/1/5

f 61/1/5 100/1/5 101/1/5 63/1/5

f 63/1/5 101/1/5 102/1/5 65/1/5

f 65/1/5 102/1/5 103/1/5 67/1/5

f 67/1/5 103/1/5 29/1/5 28/1/5

f 4/1/5 6/1/5 104/1/5 97/1/5

f 97/1/5 104/1/5 105/1/5 98/1/5

f 98/1/5 105/1/5 106/1/5 99/1/5

f 99/1/5 106/1/5 107/1/5 100/1/5

f 100/1/5 107/1/5 108/1/5 101/1/5

f 101/1/5 108/1/5 109/1/5 102/1/5

f 102/1/5 109/1/5 110/1/5 103/1/5

f 103/1/5 110/1/5 32/1/5 29/1/5

f 6/1/5 8/1/5 111/1/5 104/1/5

f 104/1/5 111/1/5 112/1/5 105/1/5

f 105/1/5 112/1/5 113/1/5 106/1/5

f 106/1/5 113/1/5 114/1/5 107/1/5

f 107/1/5 114/1/5 115/1/5 108/1/5

f 108/1/5 115/1/5 116/1/5 109/1/5

f 109/1/5 116/1/5 117/1/5 110/1/5

f 110/1/5 117/1/5 34/1/5 32/1/5

f 8/1/5 10/1/5 118/1/5 111/1/5

f 111/1/5 118/1/5 119/1/5 112/1/5

f 112/1/5 119/1/5 120/1/5 113/1/5

f 113/1/5 120/1/5 121/1/5 114/1/5

f 114/1/5 121/1/5 122/1/5 115/1/5

f 115/1/5 122/1/5 123/1/5 116/1/5

f 116/1/5 123/1/5 124/1/5 117/1/5

f 117/1/5 124/1/5 36/1/5 34/1/5

f 10/1/5 12/1/5 125/1/5 118/1/5

f 118/1/5 125/1/5 126/1/5 119/1/5

f 119/1/5 126/1/5 127/1/5 120/1/5

f 120/1/5 127/1/5 128/1/5 121/1/5

f 121/1/5 128/1/5 129/1/5 122/1/5

f 122/1/5 129/1/5 130/1/5 123/1/5

f 123/1/5 130/1/5 131/1/5 124/1/5

f 124/1/5 131/1/5 38/1/5 36/1/5

f 12/1/5 14/1/5 132/1/5 125/1/5

f 125/1/5 132/1/5 133/1/5 126/1/5

f 126/1/5 133/1/5 134/1/5 127/1/5

f 127/1/5 134/1/5 135/1/5 128/1/5

f 128/1/5 135/1/5 136/1/5 129/1/5

f 129/1/5 136/1/5 137/1/5 130/1/5

f 130/1/5 137/1/5 138/1/5 131/1/5

f 131/1/5 138/1/5 40/1/5 38/1/5

f 14/1/5 16/1/5 139/1/5 132/1/5

f 132/1/5 139/1/5 140/1/5 133/1/5

f 133/1/5 140/1/5 141/1/5 134/1/5

f 134/1/5 141/1/5 142/1/5 135/1/5

f 135/1/5 142/1/5 143/1/5 136/1/5

f 136/1/5 143/1/5 144/1/5 137/1/5

f 137/1/5 144/1/5 145/1/5 138/1/5

f 138/1/5 145/1/5 42/1/5 40/1/5

f 16/1/5 18/1/5 77/1/5 139/1/5

f 139/1/5 77/1/5 79/1/5 140/1/5

f 140/1/5 79/1/5 81/1/5 141/1/5

f 141/1/5 81/1/5 83/1/5 142/1/5

f 142/1/5 83/1/5 85/1/5 143/1/5

f 143/1/5 85/1/5 87/1/5 144/1/5

f 144/1/5 87/1/5 89/1/5 145/1/5

f 145/1/5 89/1/5 44/1/5 42/1/5

f 19/1/6 69/1/6 146/1/6 20/1/6

f 69/1/6 70/1/6 147/1/6 146/1/6

f 70/1/6 71/1/6 148/1/6 147/1/6

f 71/1/6 72/1/6 149/1/6 148/1/6

f 72/1/6 73/1/6 150/1/6 149/1/6

f 73/1/6 74/1/6 151/1/6 150/1/6

f 74/1/6 75/1/6 152/1/6 151/1/6

f 75/1/6 47/1/6 46/1/6 152/1/6

f 20/1/6 146/1/6 153/1/6 21/1/6

f 146/1/6 147/1/6 154/1/6 153/1/6

f 147/1/6 148/1/6 155/1/6 154/1/6

f 148/1/6 149/1/6 156/1/6 155/1/6

f 149/1/6 150/1/6 157/1/6 156/1/6

f 150/1/6 151/1/6 158/1/6 157/1/6

f 151/1/6 152/1/6 159/1/6 158/1/6

f 152/1/6 46/1/6 48/1/6 159/1/6

f 21/1/6 153/1/6 160/1/6 22/1/6

f 153/1/6 154/1/6 161/1/6 160/1/6

f 154/1/6 155/1/6 162/1/6 161/1/6

f 155/1/6 156/1/6 163/1/6 162/1/6

f 156/1/6 157/1/6 164/1/6 163/1/6

f 157/1/6 158/1/6 165/1/6 164/1/6

f 158/1/6 159/1/6 166/1/6 165/1/6

f 159/1/6 48/1/6 49/1/6 166/1/6

f 22/1/6 160/1/6 167/1/6 23/1/6

f 160/1/6 161/1/6 168/1/6 167/1/6

f 161/1/6 162/1/6 169/1/6 168/1/6

f 162/1/6 163/1/6 170/1/6 169/1/6

f 163/1/6 164/1/6 171/1/6 170/1/6

f 164/1/6 165/1/6 172/1/6 171/1/6

f 165/1/6 166/1/6 173/1/6 172/1/6

f 166/1/6 49/1/6 50/1/6 173/1/6

f 23/1/6 167/1/6 174/1/6 24/1/6

f 167/1/6 168/1/6 175/1/6 174/1/6

f 168/1/6 169/1/6 176/1/6 175/1/6

f 169/1/6 170/1/6 177/1/6 176/1/6

f 170/1/6 171/1/6 178/1/6 177/1/6

f 171/1/6 172/1/6 179/1/6 178/1/6

f 172/1/6 173/1/6 180/1/6 179/1/6

f 173/1/6 50/1/6 51/1/6 180/1/6

f 24/1/6 174/1/6 181/1/6 25/1/6

f 174/1/6 175/1/6 182/1/6 181/1/6

f 175/1/6 176/1/6 183/1/6 182/1/6

f 176/1/6 177/1/6 184/1/6 183/1/6

f 177/1/6 178/1/6 185/1/6 184/1/6

f 178/1/6 179/1/6 186/1/6 185/1/6

f 179/1/6 180/1/6 187/1/6 186/1/6

f 180/1/6 51/1/6 52/1/6 187/1/6

f 25/1/6 181/1/6 188/1/6 26/1/6

f 181/1/6 182/1/6 189/1/6 188/1/6

f 182/1/6 183/1/6 190/1/6 189/1/6

f 183/1/6 184/1/6 191/1/6 190/1/6

f 184/1/6 185/1/6 192/1/6 191/1/6

f 185/1/6 186/1/6 193/1/6 192/1/6

f 186/1/6 187/1/6 194/1/6 193/1/6

f 187/1/6 52/1/6 53/1/6 194/1/6

f 26/1/6 188/1/6 90/1/6 27/1/6

f 188/1/6 189/1/6 91/1/6 90/1/6

f 189/1/6 190/1/6 92/1/6 91/1/6

f 190/1/6 191/1/6 93/1/6 92/1/6

f 191/1/6 192/1/6 94/1/6 93/1/6

f 192/1/6 193/1/6 95/1/6 94/1/6

f 193/1/6 194/1/6 96/1/6 95/1/6

f 194/1/6 53/1/6 54/1/6 96/1/6

# numNormals 6
# numTexCoords 1
# numVerts 194
# numFaces 192
